<mxfile host="app.diagrams.net" modified="2022-08-12T03:16:50.843Z" agent="5.0 (Windows NT 10.0; Win64; x64) AppleWebKit/537.36 (KHTML, like Gecko) Chrome/104.0.0.0 Safari/537.36" etag="4oF7slU-v-7IBOAY8N0m" version="20.2.3" type="github" pages="7">
  <diagram name="Page-0" id="HVEgXYW5Z1jcdQ3HbvWP">
    <mxGraphModel dx="7680" dy="4140" grid="1" gridSize="200" guides="1" tooltips="1" connect="1" arrows="1" fold="1" page="1" pageScale="1" pageWidth="3000" pageHeight="3000" background="#81D8D0" math="1" shadow="0">
      <root>
        <mxCell id="0f2rUVqEKTg523hNPYAQ-0" />
        <mxCell id="0f2rUVqEKTg523hNPYAQ-1" parent="0f2rUVqEKTg523hNPYAQ-0" />
        <mxCell id="0f2rUVqEKTg523hNPYAQ-2" value="$$\begin{array}{c}{\text{一些好不容易弄懂的樂理 2}}\\\\{\text{陳家耀}}\\{\text{2022年8月}}\\\end{array}$$" style="text;html=1;strokeColor=none;fillColor=none;align=center;verticalAlign=middle;whiteSpace=wrap;rounded=0;dashed=1;fontFamily=Noto Serif TC;fontSize=120;fontColor=#000000;fontSource=https%3A%2F%2Ffonts.googleapis.com%2Fcss%3Ffamily%3DNoto%2BSerif%2BTC;labelBorderColor=none;spacing=0;" parent="0f2rUVqEKTg523hNPYAQ-1" vertex="1">
          <mxGeometry x="100" y="100" width="2800" height="2800" as="geometry" />
        </mxCell>
      </root>
    </mxGraphModel>
  </diagram>
  <diagram id="jAkjb9qOhjbaiIQoaHy9" name="Page-1">
    <mxGraphModel dx="7680" dy="4140" grid="1" gridSize="200" guides="1" tooltips="1" connect="1" arrows="1" fold="1" page="1" pageScale="1" pageWidth="3000" pageHeight="3000" background="#81D8D0" math="1" shadow="0">
      <root>
        <mxCell id="0" />
        <mxCell id="1" parent="0" />
        <mxCell id="qqJ_djHY32RG2-X8zSMV-31" value="$$\begin{array}{c}{\color{red}{\text{C自然大調}}}{\text{從}}{\color{red}{\text{主音C}}}{\text{按照音高順時針排列}}\\{\text{其音程結構為}}{\color{red}{\text{全全}}}{\color{blue}{\text{半}}}{\color{red}{\text{全全全}}}{\color{blue}{\text{半}}}\\{\color{red}{\text{a自然小調}}}{\text{從}}{\color{red}{\text{主音A}}}{\text{按照音高順時針排列}}\\{\text{其音程結構為}}{\color{red}{\text{全}}}{\color{blue}{\text{半}}}{\color{red}{\text{全全}}}{\color{blue}{\text{半}}}{\color{red}{\text{全全}}}\\{\color{red}{\text{C自然大調}}}{\text{與}}{\color{red}{\text{a自然小調}}}{\text{互為}}{\color{red}{\text{關係調}}}\\{\text{主音不同但音列完全相同}}\end{array}$$" style="text;html=1;strokeColor=none;fillColor=none;align=center;verticalAlign=middle;whiteSpace=wrap;rounded=0;dashed=1;fontFamily=Noto Serif TC;fontSize=100;fontColor=#000000;fontSource=https%3A%2F%2Ffonts.googleapis.com%2Fcss%3Ffamily%3DNoto%2BSerif%2BTC;labelBorderColor=none;spacing=0;" parent="1" vertex="1">
          <mxGeometry x="100" y="200" width="2800" height="1100" as="geometry" />
        </mxCell>
        <mxCell id="circulation_1_0" value="$$\color{red}{\text{C}}$$" style="text;html=1;strokeColor=none;fillColor=none;align=center;verticalAlign=middle;whiteSpace=wrap;rounded=0;dashed=1;labelBorderColor=none;fontFamily=Noto Serif TC;fontSize=80;fontColor=#000000;fontSource=https%3A%2F%2Ffonts.googleapis.com%2Fcss%3Ffamily%3DNoto%2BSerif%2BTC;" parent="1" vertex="1">
          <mxGeometry x="600" y="1300" width="400" height="200" as="geometry" />
        </mxCell>
        <mxCell id="circulation_1_1" value="$$\color{black}{\text{D}\flat\vert\text{C}\sharp}$$" style="text;html=1;strokeColor=none;fillColor=none;align=center;verticalAlign=middle;whiteSpace=wrap;rounded=0;dashed=1;labelBorderColor=none;fontFamily=Noto Serif TC;fontSize=80;fontColor=#000000;fontSource=https%3A%2F%2Ffonts.googleapis.com%2Fcss%3Ffamily%3DNoto%2BSerif%2BTC;" parent="1" vertex="1">
          <mxGeometry x="850" y="1366.987298" width="400" height="200" as="geometry" />
        </mxCell>
        <mxCell id="circulation_1_2" value="$$\color{red}{\text{D}}$$" style="text;html=1;strokeColor=none;fillColor=none;align=center;verticalAlign=middle;whiteSpace=wrap;rounded=0;dashed=1;labelBorderColor=none;fontFamily=Noto Serif TC;fontSize=80;fontColor=#000000;fontSource=https%3A%2F%2Ffonts.googleapis.com%2Fcss%3Ffamily%3DNoto%2BSerif%2BTC;" parent="1" vertex="1">
          <mxGeometry x="1033.012702" y="1550" width="400" height="200" as="geometry" />
        </mxCell>
        <mxCell id="circulation_1_3" value="$$\color{black}{\text{E}\flat}$$" style="text;html=1;strokeColor=none;fillColor=none;align=center;verticalAlign=middle;whiteSpace=wrap;rounded=0;dashed=1;labelBorderColor=none;fontFamily=Noto Serif TC;fontSize=80;fontColor=#000000;fontSource=https%3A%2F%2Ffonts.googleapis.com%2Fcss%3Ffamily%3DNoto%2BSerif%2BTC;" parent="1" vertex="1">
          <mxGeometry x="1100" y="1800" width="400" height="200" as="geometry" />
        </mxCell>
        <mxCell id="circulation_1_4" value="$$\color{red}{\text{E}}$$" style="text;html=1;strokeColor=none;fillColor=none;align=center;verticalAlign=middle;whiteSpace=wrap;rounded=0;dashed=1;labelBorderColor=none;fontFamily=Noto Serif TC;fontSize=80;fontColor=#000000;fontSource=https%3A%2F%2Ffonts.googleapis.com%2Fcss%3Ffamily%3DNoto%2BSerif%2BTC;" parent="1" vertex="1">
          <mxGeometry x="1033.012702" y="2050" width="400" height="200" as="geometry" />
        </mxCell>
        <mxCell id="circulation_1_5" value="$$\color{blue}{\text{F}}$$" style="text;html=1;strokeColor=none;fillColor=none;align=center;verticalAlign=middle;whiteSpace=wrap;rounded=0;dashed=1;labelBorderColor=none;fontFamily=Noto Serif TC;fontSize=80;fontColor=#000000;fontSource=https%3A%2F%2Ffonts.googleapis.com%2Fcss%3Ffamily%3DNoto%2BSerif%2BTC;" parent="1" vertex="1">
          <mxGeometry x="850" y="2233.012702" width="400" height="200" as="geometry" />
        </mxCell>
        <mxCell id="circulation_1_6" value="$$\color{black}{\text{G}\flat\vert\text{F}\sharp}$$" style="text;html=1;strokeColor=none;fillColor=none;align=center;verticalAlign=middle;whiteSpace=wrap;rounded=0;dashed=1;labelBorderColor=none;fontFamily=Noto Serif TC;fontSize=80;fontColor=#000000;fontSource=https%3A%2F%2Ffonts.googleapis.com%2Fcss%3Ffamily%3DNoto%2BSerif%2BTC;" parent="1" vertex="1">
          <mxGeometry x="600" y="2300" width="400" height="200" as="geometry" />
        </mxCell>
        <mxCell id="circulation_1_7" value="$$\color{red}{\text{G}}$$" style="text;html=1;strokeColor=none;fillColor=none;align=center;verticalAlign=middle;whiteSpace=wrap;rounded=0;dashed=1;labelBorderColor=none;fontFamily=Noto Serif TC;fontSize=80;fontColor=#000000;fontSource=https%3A%2F%2Ffonts.googleapis.com%2Fcss%3Ffamily%3DNoto%2BSerif%2BTC;" parent="1" vertex="1">
          <mxGeometry x="350" y="2233.012702" width="400" height="200" as="geometry" />
        </mxCell>
        <mxCell id="circulation_1_8" value="$$\color{black}{\text{A}\flat}$$" style="text;html=1;strokeColor=none;fillColor=none;align=center;verticalAlign=middle;whiteSpace=wrap;rounded=0;dashed=1;labelBorderColor=none;fontFamily=Noto Serif TC;fontSize=80;fontColor=#000000;fontSource=https%3A%2F%2Ffonts.googleapis.com%2Fcss%3Ffamily%3DNoto%2BSerif%2BTC;" parent="1" vertex="1">
          <mxGeometry x="166.987298" y="2050" width="400" height="200" as="geometry" />
        </mxCell>
        <mxCell id="circulation_1_9" value="$$\color{red}{\text{A}}$$" style="text;html=1;strokeColor=none;fillColor=none;align=center;verticalAlign=middle;whiteSpace=wrap;rounded=0;dashed=1;labelBorderColor=none;fontFamily=Noto Serif TC;fontSize=80;fontColor=#000000;fontSource=https%3A%2F%2Ffonts.googleapis.com%2Fcss%3Ffamily%3DNoto%2BSerif%2BTC;" parent="1" vertex="1">
          <mxGeometry x="100" y="1800" width="400" height="200" as="geometry" />
        </mxCell>
        <mxCell id="circulation_1_10" value="$$\color{black}{\text{B}\flat}$$" style="text;html=1;strokeColor=none;fillColor=none;align=center;verticalAlign=middle;whiteSpace=wrap;rounded=0;dashed=1;labelBorderColor=none;fontFamily=Noto Serif TC;fontSize=80;fontColor=#000000;fontSource=https%3A%2F%2Ffonts.googleapis.com%2Fcss%3Ffamily%3DNoto%2BSerif%2BTC;" parent="1" vertex="1">
          <mxGeometry x="166.987298" y="1550" width="400" height="200" as="geometry" />
        </mxCell>
        <mxCell id="circulation_1_11" value="$$\color{blue}{\text{B}\vert\text{C}\flat}$$" style="text;html=1;strokeColor=none;fillColor=none;align=center;verticalAlign=middle;whiteSpace=wrap;rounded=0;dashed=1;labelBorderColor=none;fontFamily=Noto Serif TC;fontSize=80;fontColor=#000000;fontSource=https%3A%2F%2Ffonts.googleapis.com%2Fcss%3Ffamily%3DNoto%2BSerif%2BTC;" parent="1" vertex="1">
          <mxGeometry x="350" y="1366.987298" width="400" height="200" as="geometry" />
        </mxCell>
        <mxCell id="circulation_2_0" value="$$\color{red}{\text{C}}$$" style="text;html=1;strokeColor=none;fillColor=none;align=center;verticalAlign=middle;whiteSpace=wrap;rounded=0;dashed=1;labelBorderColor=none;fontFamily=Noto Serif TC;fontSize=80;fontColor=#000000;fontSource=https%3A%2F%2Ffonts.googleapis.com%2Fcss%3Ffamily%3DNoto%2BSerif%2BTC;" parent="1" vertex="1">
          <mxGeometry x="2000" y="1300" width="400" height="200" as="geometry" />
        </mxCell>
        <mxCell id="circulation_2_1" value="$$\color{red}{\text{G}}$$" style="text;html=1;strokeColor=none;fillColor=none;align=center;verticalAlign=middle;whiteSpace=wrap;rounded=0;dashed=1;labelBorderColor=none;fontFamily=Noto Serif TC;fontSize=80;fontColor=#000000;fontSource=https%3A%2F%2Ffonts.googleapis.com%2Fcss%3Ffamily%3DNoto%2BSerif%2BTC;" parent="1" vertex="1">
          <mxGeometry x="2250" y="1366.987298" width="400" height="200" as="geometry" />
        </mxCell>
        <mxCell id="circulation_2_2" value="$$\color{red}{\text{D}}$$" style="text;html=1;strokeColor=none;fillColor=none;align=center;verticalAlign=middle;whiteSpace=wrap;rounded=0;dashed=1;labelBorderColor=none;fontFamily=Noto Serif TC;fontSize=80;fontColor=#000000;fontSource=https%3A%2F%2Ffonts.googleapis.com%2Fcss%3Ffamily%3DNoto%2BSerif%2BTC;" parent="1" vertex="1">
          <mxGeometry x="2433.012702" y="1550" width="400" height="200" as="geometry" />
        </mxCell>
        <mxCell id="circulation_2_3" value="$$\color{red}{\text{A}}$$" style="text;html=1;strokeColor=none;fillColor=none;align=center;verticalAlign=middle;whiteSpace=wrap;rounded=0;dashed=1;labelBorderColor=none;fontFamily=Noto Serif TC;fontSize=80;fontColor=#000000;fontSource=https%3A%2F%2Ffonts.googleapis.com%2Fcss%3Ffamily%3DNoto%2BSerif%2BTC;" parent="1" vertex="1">
          <mxGeometry x="2500" y="1800" width="400" height="200" as="geometry" />
        </mxCell>
        <mxCell id="circulation_2_4" value="$$\color{red}{\text{E}}$$" style="text;html=1;strokeColor=none;fillColor=none;align=center;verticalAlign=middle;whiteSpace=wrap;rounded=0;dashed=1;labelBorderColor=none;fontFamily=Noto Serif TC;fontSize=80;fontColor=#000000;fontSource=https%3A%2F%2Ffonts.googleapis.com%2Fcss%3Ffamily%3DNoto%2BSerif%2BTC;" parent="1" vertex="1">
          <mxGeometry x="2433.012702" y="2050" width="400" height="200" as="geometry" />
        </mxCell>
        <mxCell id="circulation_2_5" value="$$\color{blue}{\text{B}\vert\text{C}\flat}$$" style="text;html=1;strokeColor=none;fillColor=none;align=center;verticalAlign=middle;whiteSpace=wrap;rounded=0;dashed=1;labelBorderColor=none;fontFamily=Noto Serif TC;fontSize=80;fontColor=#000000;fontSource=https%3A%2F%2Ffonts.googleapis.com%2Fcss%3Ffamily%3DNoto%2BSerif%2BTC;" parent="1" vertex="1">
          <mxGeometry x="2250" y="2233.012702" width="400" height="200" as="geometry" />
        </mxCell>
        <mxCell id="circulation_2_6" value="$$\color{black}{\text{G}\flat\vert\text{F}\sharp}$$" style="text;html=1;strokeColor=none;fillColor=none;align=center;verticalAlign=middle;whiteSpace=wrap;rounded=0;dashed=1;labelBorderColor=none;fontFamily=Noto Serif TC;fontSize=80;fontColor=#000000;fontSource=https%3A%2F%2Ffonts.googleapis.com%2Fcss%3Ffamily%3DNoto%2BSerif%2BTC;" parent="1" vertex="1">
          <mxGeometry x="2000" y="2300" width="400" height="200" as="geometry" />
        </mxCell>
        <mxCell id="circulation_2_7" value="$$\color{black}{\text{D}\flat\vert\text{C}\sharp}$$" style="text;html=1;strokeColor=none;fillColor=none;align=center;verticalAlign=middle;whiteSpace=wrap;rounded=0;dashed=1;labelBorderColor=none;fontFamily=Noto Serif TC;fontSize=80;fontColor=#000000;fontSource=https%3A%2F%2Ffonts.googleapis.com%2Fcss%3Ffamily%3DNoto%2BSerif%2BTC;" parent="1" vertex="1">
          <mxGeometry x="1750" y="2233.012702" width="400" height="200" as="geometry" />
        </mxCell>
        <mxCell id="circulation_2_8" value="$$\color{black}{\text{A}\flat}$$" style="text;html=1;strokeColor=none;fillColor=none;align=center;verticalAlign=middle;whiteSpace=wrap;rounded=0;dashed=1;labelBorderColor=none;fontFamily=Noto Serif TC;fontSize=80;fontColor=#000000;fontSource=https%3A%2F%2Ffonts.googleapis.com%2Fcss%3Ffamily%3DNoto%2BSerif%2BTC;" parent="1" vertex="1">
          <mxGeometry x="1566.987298" y="2050" width="400" height="200" as="geometry" />
        </mxCell>
        <mxCell id="circulation_2_9" value="$$\color{black}{\text{E}\flat}$$" style="text;html=1;strokeColor=none;fillColor=none;align=center;verticalAlign=middle;whiteSpace=wrap;rounded=0;dashed=1;labelBorderColor=none;fontFamily=Noto Serif TC;fontSize=80;fontColor=#000000;fontSource=https%3A%2F%2Ffonts.googleapis.com%2Fcss%3Ffamily%3DNoto%2BSerif%2BTC;" parent="1" vertex="1">
          <mxGeometry x="1500" y="1800" width="400" height="200" as="geometry" />
        </mxCell>
        <mxCell id="circulation_2_10" value="$$\color{black}{\text{B}\flat}$$" style="text;html=1;strokeColor=none;fillColor=none;align=center;verticalAlign=middle;whiteSpace=wrap;rounded=0;dashed=1;labelBorderColor=none;fontFamily=Noto Serif TC;fontSize=80;fontColor=#000000;fontSource=https%3A%2F%2Ffonts.googleapis.com%2Fcss%3Ffamily%3DNoto%2BSerif%2BTC;" parent="1" vertex="1">
          <mxGeometry x="1566.987298" y="1550" width="400" height="200" as="geometry" />
        </mxCell>
        <mxCell id="circulation_2_11" value="$$\color{blue}{\text{F}}$$" style="text;html=1;strokeColor=none;fillColor=none;align=center;verticalAlign=middle;whiteSpace=wrap;rounded=0;dashed=1;labelBorderColor=none;fontFamily=Noto Serif TC;fontSize=80;fontColor=#000000;fontSource=https%3A%2F%2Ffonts.googleapis.com%2Fcss%3Ffamily%3DNoto%2BSerif%2BTC;" parent="1" vertex="1">
          <mxGeometry x="1750" y="1366.987298" width="400" height="200" as="geometry" />
        </mxCell>
        <mxCell id="line_1_0" value="" style="endArrow=classic;html=1;rounded=0;strokeColor=#FF0000;strokeWidth=10;endFill=1;endSize=50;targetPerimeterSpacing=0;" parent="1" edge="1">
          <mxGeometry width="50" height="50" relative="1" as="geometry">
            <mxPoint x="800" y="1500" as="sourcePoint" />
            <mxPoint x="1146.410162" y="1700" as="targetPoint" />
          </mxGeometry>
        </mxCell>
        <mxCell id="line_1_1" value="" style="endArrow=classic;html=1;rounded=0;strokeColor=#FF0000;strokeWidth=10;endFill=1;endSize=50;targetPerimeterSpacing=0;" parent="1" edge="1">
          <mxGeometry width="50" height="50" relative="1" as="geometry">
            <mxPoint x="1146.410162" y="1700" as="sourcePoint" />
            <mxPoint x="1146.410162" y="2100" as="targetPoint" />
          </mxGeometry>
        </mxCell>
        <mxCell id="line_1_2" value="" style="endArrow=classic;html=1;rounded=0;strokeColor=#0000FF;strokeWidth=10;endFill=1;endSize=50;targetPerimeterSpacing=0;" parent="1" edge="1">
          <mxGeometry width="50" height="50" relative="1" as="geometry">
            <mxPoint x="1146.410162" y="2100" as="sourcePoint" />
            <mxPoint x="1000" y="2246.410162" as="targetPoint" />
          </mxGeometry>
        </mxCell>
        <mxCell id="line_1_3" value="" style="endArrow=classic;html=1;rounded=0;strokeColor=#FF0000;strokeWidth=10;endFill=1;endSize=50;targetPerimeterSpacing=0;" parent="1" edge="1">
          <mxGeometry width="50" height="50" relative="1" as="geometry">
            <mxPoint x="1000" y="2246.410162" as="sourcePoint" />
            <mxPoint x="600" y="2246.410162" as="targetPoint" />
          </mxGeometry>
        </mxCell>
        <mxCell id="line_1_4" value="" style="endArrow=classic;html=1;rounded=0;strokeColor=#FF0000;strokeWidth=10;endFill=1;endSize=50;targetPerimeterSpacing=0;" parent="1" edge="1">
          <mxGeometry width="50" height="50" relative="1" as="geometry">
            <mxPoint x="600" y="2246.410162" as="sourcePoint" />
            <mxPoint x="400" y="1900" as="targetPoint" />
          </mxGeometry>
        </mxCell>
        <mxCell id="line_1_5" value="" style="endArrow=classic;html=1;rounded=0;strokeColor=#FF0000;strokeWidth=10;endFill=1;endSize=50;targetPerimeterSpacing=0;" parent="1" edge="1">
          <mxGeometry width="50" height="50" relative="1" as="geometry">
            <mxPoint x="400" y="1900" as="sourcePoint" />
            <mxPoint x="600" y="1553.589838" as="targetPoint" />
          </mxGeometry>
        </mxCell>
        <mxCell id="line_1_6" value="" style="endArrow=classic;html=1;rounded=0;strokeColor=#0000FF;strokeWidth=10;endFill=1;endSize=50;targetPerimeterSpacing=0;" parent="1" edge="1">
          <mxGeometry width="50" height="50" relative="1" as="geometry">
            <mxPoint x="600" y="1553.589838" as="sourcePoint" />
            <mxPoint x="800" y="1500" as="targetPoint" />
          </mxGeometry>
        </mxCell>
        <mxCell id="line_2_0" value="" style="endArrow=classic;html=1;rounded=0;strokeColor=#0000FF;strokeWidth=10;endFill=1;endSize=50;targetPerimeterSpacing=0;" parent="1" edge="1">
          <mxGeometry width="50" height="50" relative="1" as="geometry">
            <mxPoint x="2000" y="1553.589838" as="sourcePoint" />
            <mxPoint x="2200" y="1500" as="targetPoint" />
          </mxGeometry>
        </mxCell>
        <mxCell id="line_2_1" value="" style="endArrow=classic;html=1;rounded=0;strokeColor=#FF0000;strokeWidth=10;endFill=1;endSize=50;targetPerimeterSpacing=0;" parent="1" edge="1">
          <mxGeometry width="50" height="50" relative="1" as="geometry">
            <mxPoint x="2200" y="1500" as="sourcePoint" />
            <mxPoint x="2400" y="1553.589838" as="targetPoint" />
          </mxGeometry>
        </mxCell>
        <mxCell id="line_2_2" value="" style="endArrow=classic;html=1;rounded=0;strokeColor=#FF0000;strokeWidth=10;endFill=1;endSize=50;targetPerimeterSpacing=0;" parent="1" edge="1">
          <mxGeometry width="50" height="50" relative="1" as="geometry">
            <mxPoint x="2400" y="1553.589838" as="sourcePoint" />
            <mxPoint x="2546.410162" y="1700" as="targetPoint" />
          </mxGeometry>
        </mxCell>
        <mxCell id="line_2_3" value="" style="endArrow=classic;html=1;rounded=0;strokeColor=#FF0000;strokeWidth=10;endFill=1;endSize=50;targetPerimeterSpacing=0;" parent="1" edge="1">
          <mxGeometry width="50" height="50" relative="1" as="geometry">
            <mxPoint x="2546.410162" y="1700" as="sourcePoint" />
            <mxPoint x="2600" y="1900" as="targetPoint" />
          </mxGeometry>
        </mxCell>
        <mxCell id="line_2_4" value="" style="endArrow=classic;html=1;rounded=0;strokeColor=#FF0000;strokeWidth=10;endFill=1;endSize=50;targetPerimeterSpacing=0;" parent="1" edge="1">
          <mxGeometry width="50" height="50" relative="1" as="geometry">
            <mxPoint x="2600" y="1900" as="sourcePoint" />
            <mxPoint x="2546.410162" y="2100" as="targetPoint" />
          </mxGeometry>
        </mxCell>
        <mxCell id="line_2_5" value="" style="endArrow=classic;html=1;rounded=0;strokeColor=#0000FF;strokeWidth=10;endFill=1;endSize=50;targetPerimeterSpacing=0;" parent="1" edge="1">
          <mxGeometry width="50" height="50" relative="1" as="geometry">
            <mxPoint x="2546.410162" y="2100" as="sourcePoint" />
            <mxPoint x="2400" y="2246.410162" as="targetPoint" />
          </mxGeometry>
        </mxCell>
      </root>
    </mxGraphModel>
  </diagram>
  <diagram name="Page-2" id="hDMFViZ7thQ3l3rHuAcP">
    <mxGraphModel dx="7680" dy="4140" grid="1" gridSize="200" guides="1" tooltips="1" connect="1" arrows="1" fold="1" page="1" pageScale="1" pageWidth="3000" pageHeight="3000" background="#81D8D0" math="1" shadow="0">
      <root>
        <mxCell id="dovyj1iJbNHp64XGyW4s-0" />
        <mxCell id="dovyj1iJbNHp64XGyW4s-1" parent="dovyj1iJbNHp64XGyW4s-0" />
        <mxCell id="dovyj1iJbNHp64XGyW4s-25" value="$$\begin{array}{c}{\text{五線譜的高音譜號，其螺旋中心是位於第二線的G4}}\\{\text{C自然大調的音階沒有任何的升號或降號，其主音為C}}\end{array}$$" style="text;html=1;strokeColor=none;fillColor=none;align=center;verticalAlign=middle;whiteSpace=wrap;rounded=0;dashed=1;fontFamily=Noto Serif TC;fontSize=100;fontColor=#000000;fontSource=https%3A%2F%2Ffonts.googleapis.com%2Fcss%3Ffamily%3DNoto%2BSerif%2BTC;labelBorderColor=none;spacing=0;" parent="dovyj1iJbNHp64XGyW4s-1" vertex="1">
          <mxGeometry x="100" y="200" width="2800" height="400" as="geometry" />
        </mxCell>
        <mxCell id="kU30caRFxwuleeygXn4r-0" value="" style="shape=image;imageAspect=0;aspect=fixed;verticalLabelPosition=bottom;verticalAlign=top;image=data:image/svg+xml,PHN2ZyB4bWxuczp4bGluaz0iaHR0cDovL3d3dy53My5vcmcvMTk5OS94bGluayIgeG1sbnM9Imh0dHA6Ly93d3cudzMub3JnLzIwMDAvc3ZnIiB2ZXJzaW9uPSIxLjIiIHZpZXdCb3g9IjMwMCAzMDAgMjgwMCA3NTAiIGhlaWdodD0iNDUwIiB3aWR0aD0iMjUwMCI+JiN4YTs8dGl0bGU+5pyq5ZG95ZCNPC90aXRsZT4mI3hhOzxkZXNjPkdlbmVyYXRlZCBieSBNdXNlU2NvcmUgMy42LjI8L2Rlc2M+JiN4YTs8cG9seWxpbmUgcG9pbnRzPSIzMzYuNjE0LDM4Ni4yMiAyNzYzLjc4LDM4Ni4yMiIgc3Ryb2tlLWxpbmVqb2luPSJiZXZlbCIgc3Ryb2tlLXdpZHRoPSIyLjczIiBzdHJva2U9IiMwMDAwMDAiIGZpbGw9Im5vbmUiIGNsYXNzPSJTdGFmZkxpbmVzIi8+JiN4YTs8cG9seWxpbmUgcG9pbnRzPSIzMzYuNjE0LDQxMS4wMjQgMjc2My43OCw0MTEuMDI0IiBzdHJva2UtbGluZWpvaW49ImJldmVsIiBzdHJva2Utd2lkdGg9IjIuNzMiIHN0cm9rZT0iIzAwMDAwMCIgZmlsbD0ibm9uZSIgY2xhc3M9IlN0YWZmTGluZXMiLz4mI3hhOzxwb2x5bGluZSBwb2ludHM9IjMzNi42MTQsNDM1LjgyNyAyNzYzLjc4LDQzNS44MjciIHN0cm9rZS1saW5lam9pbj0iYmV2ZWwiIHN0cm9rZS13aWR0aD0iMi43MyIgc3Ryb2tlPSIjMDAwMDAwIiBmaWxsPSJub25lIiBjbGFzcz0iU3RhZmZMaW5lcyIvPiYjeGE7PHBvbHlsaW5lIHBvaW50cz0iMzM2LjYxNCw0NjAuNjMgMjc2My43OCw0NjAuNjMiIHN0cm9rZS1saW5lam9pbj0iYmV2ZWwiIHN0cm9rZS13aWR0aD0iMi43MyIgc3Ryb2tlPSIjMDAwMDAwIiBmaWxsPSJub25lIiBjbGFzcz0iU3RhZmZMaW5lcyIvPiYjeGE7PHBvbHlsaW5lIHBvaW50cz0iMzM2LjYxNCw0ODUuNDMzIDI3NjMuNzgsNDg1LjQzMyIgc3Ryb2tlLWxpbmVqb2luPSJiZXZlbCIgc3Ryb2tlLXdpZHRoPSIyLjczIiBzdHJva2U9IiMwMDAwMDAiIGZpbGw9Im5vbmUiIGNsYXNzPSJTdGFmZkxpbmVzIi8+JiN4YTs8cG9seWxpbmUgcG9pbnRzPSIxNjM4LjIyLDM4NC44NTYgMTYzOC4yMiw0ODYuNzk3IiBzdHJva2UtbGluZWpvaW49ImJldmVsIiBzdHJva2Utd2lkdGg9IjQuNDYiIHN0cm9rZT0iIzAwMDAwMCIgZmlsbD0ibm9uZSIgY2xhc3M9IkJhckxpbmUiLz4mI3hhOzxwb2x5bGluZSBwb2ludHM9IjI3MzkuNiwzODQuODU2IDI3MzkuNiw0ODYuNzk3IiBzdHJva2UtbGluZWpvaW49ImJldmVsIiBzdHJva2Utd2lkdGg9IjQuNDYiIHN0cm9rZT0iIzAwMDAwMCIgZmlsbD0ibm9uZSIgY2xhc3M9IkJhckxpbmUiLz4mI3hhOzxwb2x5bGluZSBwb2ludHM9IjI3NTYuOTYsMzg0Ljg1NiAyNzU2Ljk2LDQ4Ni43OTciIHN0cm9rZS1saW5lam9pbj0iYmV2ZWwiIHN0cm9rZS13aWR0aD0iMTMuNjQiIHN0cm9rZT0iIzAwMDAwMCIgZmlsbD0ibm9uZSIgY2xhc3M9IkJhckxpbmUiLz4mI3hhOzxwb2x5bGluZSBwb2ludHM9IjUzNi44Myw1MTAuMjM2IDU4Ni40MjgsNTEwLjIzNiIgc3Ryb2tlLWxpbmVqb2luPSJiZXZlbCIgc3Ryb2tlLXdpZHRoPSIzLjk3IiBzdHJva2U9IiMwMDAwMDAiIGZpbGw9Im5vbmUiIGNsYXNzPSJMZWRnZXJMaW5lIi8+JiN4YTs8cG9seWxpbmUgcG9pbnRzPSI1NzYuMzgzLDUwNy4wNjEgNTc2LjM4Myw0MjMuNDI1IiBzdHJva2UtbGluZWpvaW49ImJldmVsIiBzdHJva2Utd2lkdGg9IjIuNzMiIHN0cm9rZT0iIzAwMDAwMCIgZmlsbD0ibm9uZSIgY2xhc3M9IlN0ZW0iLz4mI3hhOzxwb2x5bGluZSBwb2ludHM9Ijg0OS4wMDMsNDk0LjY2IDg0OS4wMDMsNDExLjAyNCIgc3Ryb2tlLWxpbmVqb2luPSJiZXZlbCIgc3Ryb2tlLXdpZHRoPSIyLjczIiBzdHJva2U9IiMwMDAwMDAiIGZpbGw9Im5vbmUiIGNsYXNzPSJTdGVtIi8+JiN4YTs8cG9seWxpbmUgcG9pbnRzPSIxMTIxLjYyLDQ4Mi4yNTggMTEyMS42MiwzOTguNjIyIiBzdHJva2UtbGluZWpvaW49ImJldmVsIiBzdHJva2Utd2lkdGg9IjIuNzMiIHN0cm9rZT0iIzAwMDAwMCIgZmlsbD0ibm9uZSIgY2xhc3M9IlN0ZW0iLz4mI3hhOzxwb2x5bGluZSBwb2ludHM9IjEzOTQuMjQsNDY5Ljg1NyAxMzk0LjI0LDM4Ni4yMiIgc3Ryb2tlLWxpbmVqb2luPSJiZXZlbCIgc3Ryb2tlLXdpZHRoPSIyLjczIiBzdHJva2U9IiMwMDAwMDAiIGZpbGw9Im5vbmUiIGNsYXNzPSJTdGVtIi8+JiN4YTs8cG9seWxpbmUgcG9pbnRzPSIxNzY2LjU2LDQ1Ny40NTUgMTc2Ni41NiwzNzYuOTE5IiBzdHJva2UtbGluZWpvaW49ImJldmVsIiBzdHJva2Utd2lkdGg9IjIuNzMiIHN0cm9rZT0iIzAwMDAwMCIgZmlsbD0ibm9uZSIgY2xhc3M9IlN0ZW0iLz4mI3hhOzxwb2x5bGluZSBwb2ludHM9IjIwMTYuOTgsNDQ1LjA1NCAyMDE2Ljk4LDM2Ny42MTgiIHN0cm9rZS1saW5lam9pbj0iYmV2ZWwiIHN0cm9rZS13aWR0aD0iMi43MyIgc3Ryb2tlPSIjMDAwMDAwIiBmaWxsPSJub25lIiBjbGFzcz0iU3RlbSIvPiYjeGE7PHBvbHlsaW5lIHBvaW50cz0iMjIzNy44OSw0MzkuMTYgMjIzNy44OSw1MTMuMzM3IiBzdHJva2UtbGluZWpvaW49ImJldmVsIiBzdHJva2Utd2lkdGg9IjIuNzMiIHN0cm9rZT0iIzAwMDAwMCIgZmlsbD0ibm9uZSIgY2xhc3M9IlN0ZW0iLz4mI3hhOzxwb2x5bGluZSBwb2ludHM9IjI0ODguMzEsNDI2Ljc1OSAyNDg4LjMxLDUwNC4wMzUiIHN0cm9rZS1saW5lam9pbj0iYmV2ZWwiIHN0cm9rZS13aWR0aD0iMi43MyIgc3Ryb2tlPSIjMDAwMDAwIiBmaWxsPSJub25lIiBjbGFzcz0iU3RlbSIvPiYjeGE7PHBhdGggZD0iTTMxLjUsLTguMDkzNzUgQzI5LjcwMzEsLTExLjQwNjMgMjUuOTA2MywtMTMuMjAzMSAyMS4yOTY5LC0xMy4yMDMxIEMxNy45MDYzLC0xMy4yMDMxIDE0LjIwMzEsLTEyLjIwMzEgMTAuNTkzOCwtMTAuMjk2OSBDNCwtNi43OTY4OCAwLC0wLjkwNjI1IDAsNC4yMDMxMyBDMCw1LjU5Mzc1IDAuMjk2ODc1LDcgMSw4LjI5Njg4IEMyLjc5Njg4LDExLjU5MzggNi41OTM3NSwxMy4yOTY5IDExLjIwMzEsMTMuMjk2OSBDMTQuNTkzOCwxMy4yOTY5IDE4LjI5NjksMTIuNDA2MyAyMS45MDYzLDEwLjUgQzI4LjUsNyAzMi41LDEuMDkzNzUgMzIuNSwtNCBDMzIuNSwtNS40MDYyNSAzMi4yMDMxLC02Ljc5Njg4IDMxLjUsLTguMDkzNzUiIHRyYW5zZm9ybT0ibWF0cml4KDAuOTkyMTI2LDAsMCwwLjk5MjEyNiw1NDUuNTExLDUxMC4yMzYpIiBjbGFzcz0iTm90ZSIvPiYjeGE7PHBhdGggZD0iTTMxLjUsLTguMDkzNzUgQzI5LjcwMzEsLTExLjQwNjMgMjUuOTA2MywtMTMuMjAzMSAyMS4yOTY5LC0xMy4yMDMxIEMxNy45MDYzLC0xMy4yMDMxIDE0LjIwMzEsLTEyLjIwMzEgMTAuNTkzOCwtMTAuMjk2OSBDNCwtNi43OTY4OCAwLC0wLjkwNjI1IDAsNC4yMDMxMyBDMCw1LjU5Mzc1IDAuMjk2ODc1LDcgMSw4LjI5Njg4IEMyLjc5Njg4LDExLjU5MzggNi41OTM3NSwxMy4yOTY5IDExLjIwMzEsMTMuMjk2OSBDMTQuNTkzOCwxMy4yOTY5IDE4LjI5NjksMTIuNDA2MyAyMS45MDYzLDEwLjUgQzI4LjUsNyAzMi41LDEuMDkzNzUgMzIuNSwtNCBDMzIuNSwtNS40MDYyNSAzMi4yMDMxLC02Ljc5Njg4IDMxLjUsLTguMDkzNzUiIHRyYW5zZm9ybT0ibWF0cml4KDAuOTkyMTI2LDAsMCwwLjk5MjEyNiw4MTguMTMxLDQ5Ny44MzUpIiBjbGFzcz0iTm90ZSIvPiYjeGE7PHBhdGggZD0iTTMxLjUsLTguMDkzNzUgQzI5LjcwMzEsLTExLjQwNjMgMjUuOTA2MywtMTMuMjAzMSAyMS4yOTY5LC0xMy4yMDMxIEMxNy45MDYzLC0xMy4yMDMxIDE0LjIwMzEsLTEyLjIwMzEgMTAuNTkzOCwtMTAuMjk2OSBDNCwtNi43OTY4OCAwLC0wLjkwNjI1IDAsNC4yMDMxMyBDMCw1LjU5Mzc1IDAuMjk2ODc1LDcgMSw4LjI5Njg4IEMyLjc5Njg4LDExLjU5MzggNi41OTM3NSwxMy4yOTY5IDExLjIwMzEsMTMuMjk2OSBDMTQuNTkzOCwxMy4yOTY5IDE4LjI5NjksMTIuNDA2MyAyMS45MDYzLDEwLjUgQzI4LjUsNyAzMi41LDEuMDkzNzUgMzIuNSwtNCBDMzIuNSwtNS40MDYyNSAzMi4yMDMxLC02Ljc5Njg4IDMxLjUsLTguMDkzNzUiIHRyYW5zZm9ybT0ibWF0cml4KDAuOTkyMTI2LDAsMCwwLjk5MjEyNiwxMDkwLjc1LDQ4NS40MzMpIiBjbGFzcz0iTm90ZSIvPiYjeGE7PHBhdGggZD0iTTMxLjUsLTguMDkzNzUgQzI5LjcwMzEsLTExLjQwNjMgMjUuOTA2MywtMTMuMjAzMSAyMS4yOTY5LC0xMy4yMDMxIEMxNy45MDYzLC0xMy4yMDMxIDE0LjIwMzEsLTEyLjIwMzEgMTAuNTkzOCwtMTAuMjk2OSBDNCwtNi43OTY4OCAwLC0wLjkwNjI1IDAsNC4yMDMxMyBDMCw1LjU5Mzc1IDAuMjk2ODc1LDcgMSw4LjI5Njg4IEMyLjc5Njg4LDExLjU5MzggNi41OTM3NSwxMy4yOTY5IDExLjIwMzEsMTMuMjk2OSBDMTQuNTkzOCwxMy4yOTY5IDE4LjI5NjksMTIuNDA2MyAyMS45MDYzLDEwLjUgQzI4LjUsNyAzMi41LDEuMDkzNzUgMzIuNSwtNCBDMzIuNSwtNS40MDYyNSAzMi4yMDMxLC02Ljc5Njg4IDMxLjUsLTguMDkzNzUiIHRyYW5zZm9ybT0ibWF0cml4KDAuOTkyMTI2LDAsMCwwLjk5MjEyNiwxMzYzLjM3LDQ3My4wMzEpIiBjbGFzcz0iTm90ZSIvPiYjeGE7PHBhdGggZD0iTTMxLjUsLTguMDkzNzUgQzI5LjcwMzEsLTExLjQwNjMgMjUuOTA2MywtMTMuMjAzMSAyMS4yOTY5LC0xMy4yMDMxIEMxNy45MDYzLC0xMy4yMDMxIDE0LjIwMzEsLTEyLjIwMzEgMTAuNTkzOCwtMTAuMjk2OSBDNCwtNi43OTY4OCAwLC0wLjkwNjI1IDAsNC4yMDMxMyBDMCw1LjU5Mzc1IDAuMjk2ODc1LDcgMSw4LjI5Njg4IEMyLjc5Njg4LDExLjU5MzggNi41OTM3NSwxMy4yOTY5IDExLjIwMzEsMTMuMjk2OSBDMTQuNTkzOCwxMy4yOTY5IDE4LjI5NjksMTIuNDA2MyAyMS45MDYzLDEwLjUgQzI4LjUsNyAzMi41LDEuMDkzNzUgMzIuNSwtNCBDMzIuNSwtNS40MDYyNSAzMi4yMDMxLC02Ljc5Njg4IDMxLjUsLTguMDkzNzUiIHRyYW5zZm9ybT0ibWF0cml4KDAuOTkyMTI2LDAsMCwwLjk5MjEyNiwxNzM1LjY4LDQ2MC42MykiIGNsYXNzPSJOb3RlIi8+JiN4YTs8cGF0aCBkPSJNMzEuNSwtOC4wOTM3NSBDMjkuNzAzMSwtMTEuNDA2MyAyNS45MDYzLC0xMy4yMDMxIDIxLjI5NjksLTEzLjIwMzEgQzE3LjkwNjMsLTEzLjIwMzEgMTQuMjAzMSwtMTIuMjAzMSAxMC41OTM4LC0xMC4yOTY5IEM0LC02Ljc5Njg4IDAsLTAuOTA2MjUgMCw0LjIwMzEzIEMwLDUuNTkzNzUgMC4yOTY4NzUsNyAxLDguMjk2ODggQzIuNzk2ODgsMTEuNTkzOCA2LjU5Mzc1LDEzLjI5NjkgMTEuMjAzMSwxMy4yOTY5IEMxNC41OTM4LDEzLjI5NjkgMTguMjk2OSwxMi40MDYzIDIxLjkwNjMsMTAuNSBDMjguNSw3IDMyLjUsMS4wOTM3NSAzMi41LC00IEMzMi41LC01LjQwNjI1IDMyLjIwMzEsLTYuNzk2ODggMzEuNSwtOC4wOTM3NSIgdHJhbnNmb3JtPSJtYXRyaXgoMC45OTIxMjYsMCwwLDAuOTkyMTI2LDE5ODYuMSw0NDguMjI4KSIgY2xhc3M9Ik5vdGUiLz4mI3hhOzxwYXRoIGQ9Ik0zMS41LC04LjA5Mzc1IEMyOS43MDMxLC0xMS40MDYzIDI1LjkwNjMsLTEzLjIwMzEgMjEuMjk2OSwtMTMuMjAzMSBDMTcuOTA2MywtMTMuMjAzMSAxNC4yMDMxLC0xMi4yMDMxIDEwLjU5MzgsLTEwLjI5NjkgQzQsLTYuNzk2ODggMCwtMC45MDYyNSAwLDQuMjAzMTMgQzAsNS41OTM3NSAwLjI5Njg3NSw3IDEsOC4yOTY4OCBDMi43OTY4OCwxMS41OTM4IDYuNTkzNzUsMTMuMjk2OSAxMS4yMDMxLDEzLjI5NjkgQzE0LjU5MzgsMTMuMjk2OSAxOC4yOTY5LDEyLjQwNjMgMjEuOTA2MywxMC41IEMyOC41LDcgMzIuNSwxLjA5Mzc1IDMyLjUsLTQgQzMyLjUsLTUuNDA2MjUgMzIuMjAzMSwtNi43OTY4OCAzMS41LC04LjA5Mzc1IiB0cmFuc2Zvcm09Im1hdHJpeCgwLjk5MjEyNiwwLDAsMC45OTIxMjYsMjQ4Ni45NCw0MjMuNDI1KSIgY2xhc3M9Ik5vdGUiLz4mI3hhOzxwYXRoIGQ9Ik0zMS41LC04LjA5Mzc1IEMyOS43MDMxLC0xMS40MDYzIDI1LjkwNjMsLTEzLjIwMzEgMjEuMjk2OSwtMTMuMjAzMSBDMTcuOTA2MywtMTMuMjAzMSAxNC4yMDMxLC0xMi4yMDMxIDEwLjU5MzgsLTEwLjI5NjkgQzQsLTYuNzk2ODggMCwtMC45MDYyNSAwLDQuMjAzMTMgQzAsNS41OTM3NSAwLjI5Njg3NSw3IDEsOC4yOTY4OCBDMi43OTY4OCwxMS41OTM4IDYuNTkzNzUsMTMuMjk2OSAxMS4yMDMxLDEzLjI5NjkgQzE0LjU5MzgsMTMuMjk2OSAxOC4yOTY5LDEyLjQwNjMgMjEuOTA2MywxMC41IEMyOC41LDcgMzIuNSwxLjA5Mzc1IDMyLjUsLTQgQzMyLjUsLTUuNDA2MjUgMzIuMjAzMSwtNi43OTY4OCAzMS41LC04LjA5Mzc1IiB0cmFuc2Zvcm09Im1hdHJpeCgwLjk5MjEyNiwwLDAsMC45OTIxMjYsMjIzNi41Miw0MzUuODI3KSIgY2xhc3M9Ik5vdGUiLz4mI3hhOzxwYXRoIGQ9Ik02My4zNTk0LC01LjkyMTg4IEM2Mi4xMjUsLTExLjM0MzggNTkuNDg0NCwtMTUuMTcxOSA1OC43MDMxLC0xNi4yMDMxIEM1NS41MTU2LC0yMC40ODQ0IDUxLjUsLTIzLjMyODEgNDYuODEyNSwtMjQuNjg3NSBDNDMuNzAzMSwtMjUuNTYyNSA0MC43MDMxLC0yNS42ODc1IDM4LjI4MTMsLTI1LjUgQzM3LjIzNDQsLTMxLjUxNTYgMzYuMjM0NCwtMzcuMzkwNiAzNS4zMjgxLC00Mi44NDM4IEM0MC43ODEzLC00OS4wMTU2IDQ0LjQwNjMsLTU0LjgxMjUgNDYuNjg3NSwtNTkuMTA5NCBDNTAuMTU2MywtNjUuNjg3NSA1MS4yOTY5LC03MC4yNjU2IDUxLjM1OTQsLTcwLjQ2ODggQzUzLjA3ODEsLTc1LjY4NzUgNTMuNDM3NSwtODMuMzkwNiA1Mi4zMjgxLC05MS41OTM4IEM1MS4zMjgxLC05OS4xNDA2IDQ5LjIzNDQsLTEwNS44NTkgNDYuODc1LC0xMDkuMTA5IEM0NS44NTk0LC0xMTAuNTMxIDQ0Ljc5NjksLTExMS4yNjYgNDMuNzY1NiwtMTExLjI2NiBDNDIuNTQ2OSwtMTExLjI2NiA0MC4wMzEzLC0xMTAuMDMxIDM3LjE0MDYsLTEwNy4yNSBDMzQuODQzOCwtMTA1LjA2MyAzMS41NzgxLC0xMDEuMTcyIDI5LjAxNTYsLTk1LjE1NjMgQzI2LjAxNTYsLTg4LjA5MzggMjUuNzk2OSwtNzguNjA5NCAyNi4xNTYzLC03MS44OTA2IEMyNi41MzEzLC02NC42MDk0IDI3LjY0MDYsLTU4LjkyMTkgMjcuNjU2MywtNTguODc1IEMyNy42NzE5LC01OC43ODEzIDI3LjkzNzUsLTU3LjI4MTMgMjguMzc1LC01NC43MTg4IEMyOC4xNTYzLC01NC40ODQ0IDI3LjkwNjMsLTU0LjI2NTYgMjcuNjU2MywtNTQuMDE1NiBDMjYuNjI1LC01My4wMTU2IDI1LjQzNzUsLTUxLjg5MDYgMjQuMDQ2OSwtNTAuNSBDMjMuMTg3NSwtNDkuNjQwNiAyMi4yMzQ0LC00OC43MzQ0IDIxLjIzNDQsLTQ3Ljc2NTYgQzEyLjc5NjksLTM5LjYyNSAwLC0yNy4yOTY5IDAsLTguMTQwNjMgQzAsLTMuNDM3NSAwLjkwNjI1LDAuOTg0Mzc1IDIuNjg3NSw1IEM0LjI2NTYzLDguNTkzNzUgNi41NjI1LDExLjg3NSA5LjUsMTQuNzUgQzE3LjIzNDQsMjIuMzEyNSAyNy44MjgxLDI1LjUxNTYgMzQuODc1LDI1LjM1OTQgQzM3LjgyODEsMjUuMjgxMyA0MC40Njg4LDI1LjA0NjkgNDIuODU5NCwyNC41OTM4IEM0NC42ODc1LDM0LjIwMzEgNDUuODI4MSw0MS4yMzQ0IDQ1Ljg1OTQsNDYuNTc4MSBDNDUuOTA2Myw1My4wOTM4IDQ0LjI1LDU3LjA3ODEgNDAuMzU5NCw1OS44NDM4IEMzNy45MjE5LDYxLjU3ODEgMzUuMTA5NCw2Mi41MzEzIDMyLjAxNTYsNjIuNjcxOSBDMjkuNDIxOSw2Mi43OTY5IDI3LjE1NjMsNjIuMzI4MSAyNS43MzQ0LDYxLjkyMTkgTDI1LjcxODgsNjEuOTIxOSBDMjUuNzE4OCw2MS45MjE5IDI1LjQzNzUsNjEuODI4MSAyNS40MjE5LDYxLjY0MDYgQzI1LjQwNjMsNjEuNDUzMSAyNS43NjU2LDYxLjQwNjMgMjUuNzY1Niw2MS40MDYzIEwyNS43OTY5LDYxLjQwNjMgQzI3LjcxODgsNjAuOTY4OCAzMS4yODEzLDU5LjczNDQgMzMuNjQwNiw1Ni40Mzc1IEMzNS40Mzc1LDUzLjkwNjMgMzYuMzEyNSw0OS4yODEzIDM0LjQ2ODgsNDUuMzQzOCBDMzMuMzU5NCw0Mi45NTMxIDMwLjg1OTQsNDAgMjUuMjM0NCwzOS41NDY5IEMyMi43MzQ0LDM5LjM0MzggMjAuNDY4OCwzOS44NTk0IDE4LjQ2ODgsNDEuMDYyNSBDMTYuNjU2Myw0Mi4xNDA2IDE1LjE1NjMsNDMuNzgxMyAxNC4xMDk0LDQ1Ljc4MTMgQzExLjY1NjMsNTAuNDg0NCAxMi4xMDk0LDU2LjIxODggMTUuMjM0NCw2MC4wNjI1IEMxOC4yMDMxLDYzLjY4NzUgMjIuODEyNSw2NiAyOC4yNSw2Ni41NzgxIEMyOS4xMDk0LDY2LjY3MTkgMjkuOTUzMSw2Ni43MDMxIDMwLjc5NjksNjYuNzAzMSBDMzUuMjM0NCw2Ni43MDMxIDM5LjYyNSw2NS41IDQzLjIwMzEsNjMuMjk2OSBDNDYuODU5NCw2MC43MTg4IDQ4Ljk4NDQsNTYuNzM0NCA0OS42NTYzLDUxLjEwOTQgQzUwLjIxODgsNDYuNDY4OCA0OS44MjgxLDQwLjU0NjkgNDguNDM3NSwzMi40Njg4IEM0OC4wNzgxLDMwLjM3NSA0Ny41MzEzLDI3LjM0MzggNDYuODc1LDIzLjU5MzggQzUyLjYyNSwyMS42NzE5IDU2Ljc4MTMsMTguMDkzOCA2MC41NDY5LDEyLjIzNDQgQzYzLjg0MzgsNi41IDY0Ljc4MTMsMC4zOTA2MjUgNjMuMzU5NCwtNS45MjE4OCBNMjkuMTQwNiwyMC4yOTY5IEMyNC41LDE5LjA3ODEgMjAuMDYyNSwxNi41NzgxIDE2LjMxMjUsMTMuMDYyNSBDMTUsMTEuODQzOCAxMy4xMjUsOS42NzE4OCAxMS42NTYzLDYuMjgxMjUgQzEwLjI5NjksMy4xMDkzOCA5LjYyNSwtMC4zMjgxMjUgOS42ODc1LC0zLjkwNjI1IEM5Ljc1LC04LjYwOTM4IDExLjA2MjUsLTEzLjQzNzUgMTMuNTYyNSwtMTguMjE4OCBDMTYuNDg0NCwtMjMuNzk2OSAyMS4wNDY5LC0yOS4zMjgxIDI3LjEwOTQsLTM0LjY1NjMgQzI4LjU2MjUsLTM1LjkzNzUgMjkuOTM3NSwtMzcuMjE4OCAzMS4yMTg4LC0zOC41IEMzMS45ODQ0LC0zNC4yMzQ0IDMyLjgxMjUsLTI5LjU0NjkgMzMuNjg3NSwtMjQuNjcxOSBDMjkuODQzOCwtMjMuNDA2MyAyNS4wOTM4LC0yMC4yNSAyMS45ODQ0LC0xNC41OTM4IEMxOC40Mzc1LC04LjAzMTI1IDE4LjU3ODEsLTIuNSAxOS4zMTI1LDAuOTg0Mzc1IEMyMC4yNSw1LjQzNzUgMjIuNzgxMyw5LjIwMzEzIDI2LjIzNDQsMTEuMjk2OSBDMjcuMTcxOSwxMS44NTk0IDMxLjI5NjksMTMuOTg0NCAzMy4xNDA2LDEzLjQwNjMgQzMzLjUxNTYsMTMuMjk2OSAzMy43ODEzLDEzLjA2MjUgMzMuOTIxOSwxMi43MzQ0IEMzNC40Mzc1LDExLjU2MjUgMzMuNDA2MywxMC45MjE5IDMxLjg1OTQsOS45Njg3NSBDMzEuMjUsOS41OTM3NSAzMC41NzgxLDkuMTcxODggMjkuODU5NCw4LjY0MDYzIEMyNi41MzEzLDYuMTU2MjUgMjUuMDc4MSwxLjcwMzEzIDI2LjE1NjMsLTIuNjg3NSBDMjYuNzM0NCwtNS4wNzgxMyAyOC4wMTU2LC03LjI1IDI5Ljg1OTQsLTguOTUzMTMgQzMxLjUxNTYsLTEwLjUgMzMuNTYyNSwtMTEuNTkzOCAzNS45Mzc1LC0xMi4yMzQ0IEMzNy45ODQ0LC0wLjk4NDM3NSA0MC4wNDY5LDEwLjE3MTkgNDEuNjg3NSwxOC41MzEzIEM0MS44MTI1LDE5LjIxODggNDEuOTUzMSwxOS44OTA2IDQyLjA3ODEsMjAuNTYyNSBDMzcuNzAzMSwyMS41IDMzLjM1OTQsMjEuNDA2MyAyOS4xNDA2LDIwLjI5NjkgTTQwLjQ2ODgsLTEyLjkwNjMgQzUwLjgxMjUsLTEzLjM3NSA1NS4wNzgxLC01LjkzNzUgNTUuOTY4OCwtMS4xMDkzOCBDNTYuNDM3NSwxLjQzNzUgNTYuNDM3NSw1Ljg3NSA1NC44OTA2LDEwLjA5MzggQzUzLjcxODgsMTMuMjY1NiA1MS4yNjU2LDE3LjM0MzggNDYuMTI1LDE5LjQwNjMgQzQ2LjA2MjUsMTguOTg0NCA0NS45ODQ0LDE4LjU0NjkgNDUuOTA2MywxOC4xMjUgQzQ0LjM1OTQsOS4zNDM3NSA0Mi40MjE5LC0xLjY1NjI1IDQwLjQ2ODgsLTEyLjkwNjMgTTMzLjE0MDYsLTgzLjg1OTQgQzM0LjkyMTksLTg5LjU5MzggMzcuNjU2MywtOTIuODQzOCAzOS42NTYzLC05NC41NzgxIEM0MS40MDYzLC05Ni4wOTM4IDQzLjA0NjksLTk2LjgxMjUgNDMuOTY4OCwtOTYuODEyNSBDNDQuMTA5NCwtOTYuODEyNSA0NC4yMzQ0LC05Ni43ODEzIDQ0LjMyODEsLTk2Ljc1IEM0NC43OTY5LC05Ni42MDk0IDQ1LjMyODEsLTk2LjA0NjkgNDUuNzk2OSwtOTUuMTcxOSBDNDguMTA5NCwtOTAuODkwNiA0Ny4zNTk0LC04NC4xNzE5IDQ2LjAxNTYsLTc5LjczNDQgQzQ0LjM5MDYsLTc0LjMyODEgNDEuNDY4OCwtNjguNzE4OCAzMi42NzE5LC01OS4xMDk0IEMzMi41LC02MC4yMTg4IDMyLjM0MzgsLTYxLjI2NTYgMzIuMTg3NSwtNjIuMjUgQzMwLjkzNzUsLTcwLjUzMTMgMzEuMjY1NiwtNzcuODEyNSAzMy4xNDA2LC04My44NTk0IiB0cmFuc2Zvcm09Im1hdHJpeCgwLjk5MjEyNiwwLDAsMC45OTIxMjYsMzU2LjQ1Nyw0NjAuNjMpIiBjbGFzcz0iQ2xlZiIvPiYjeGE7PHBhdGggZD0iTTMuNTkzNzUsMTIuNjI1IEwyMC43NjU2LDEyLjYyNSBMMjAuNzY1NiwyMC4wNzgxIEwxMi41NDY5LDIwLjA3ODEgQzExLjc2NTYsMjAuMDc4MSAxMS4xMjUsMjAuNzAzMSAxMS4xMjUsMjEuNDg0NCBMMTEuMTI1LDIzLjM5MDYgQzExLjEyNSwyNC4xNzE5IDExLjc2NTYsMjQuNzk2OSAxMi41NDY5LDI0Ljc5NjkgTDQyLjc5NjksMjQuNzk2OSBDNDMuNTc4MSwyNC43OTY5IDQ0LjIwMzEsMjQuMTcxOSA0NC4yMDMxLDIzLjM5MDYgTDQ0LjIwMzEsMjEuNDg0NCBDNDQuMjAzMSwyMC43MDMxIDQzLjU3ODEsMjAuMDc4MSA0Mi43OTY5LDIwLjA3ODEgTDMzLjg1OTQsMjAuMDc4MSBMMzMuODU5NCwxMi42MjUgTDQyLjc5NjksMTIuNjI1IEM0My41NzgxLDEyLjYyNSA0NC4yMDMxLDEyIDQ0LjIwMzEsMTEuMjE4OCBMNDQuMjAzMSw5LjMxMjUgQzQ0LjIwMzEsOC41MzEyNSA0My41NzgxLDcuOTA2MjUgNDIuNzk2OSw3LjkwNjI1IEwzMy44NTk0LDcuOTA2MjUgTDMzLjg1OTQsLTguMDYyNSBDMzMuODU5NCwtOC41OTM3NSAzMy41NDY5LC05LjA3ODEzIDMzLjA3ODEsLTkuMzEyNSBMMzEuODU5NCwtOS45MjE4OCBDMzEuMzI4MSwtMTAuMTcxOSAzMC43MDMxLC0xMC4wNzgxIDMwLjI2NTYsLTkuNjg3NSBMMjEuMjE4OCwtMS4zNzUgQzIwLjkzNzUsLTEuMDkzNzUgMjAuNzY1NiwtMC43MzQzNzUgMjAuNzY1NiwtMC4zMjgxMjUgTDIwLjc2NTYsNy45MDYyNSBMOS4yNSw3LjkwNjI1IEM5LjI1LDcuOTA2MjUgMjAuMzc1LC00LjEyNSAzMi4yMTg4LC0xOS44OTA2IEMzMy4wNzgxLC0yMS4wNDY5IDMyLjU3ODEsLTIyLjA5MzggMzIuMzkwNiwtMjIuMjgxMyBMMzAuMjE4OCwtMjQuNDg0NCBDMjkuOTUzMSwtMjQuNzUgMjkuNTkzOCwtMjQuOTA2MyAyOS4yMTg4LC0yNC45MDYzIEMyOC42MjUsLTI0LjkwNjMgMTUuMDYyNSwtMjQuODc1IDE0LjM0MzgsLTI0LjkwNjMgQzEzLjYyNSwtMjQuOTIxOSAxMy4wOTM4LC0yNC4yOTY5IDEzLjAxNTYsLTIzLjY4NzUgQzEzLjAxNTYsLTIzLjY4NzUgMTIuNDg0NCwtMTYuMzI4MSA5Ljg3NSwtOC4xODc1IEM3LjI4MTI1LC0wLjA3ODEyNSA0LjM0Mzc1LDQuOTA2MjUgMS42ODc1LDguNTMxMjUgQzEuNjg3NSw4LjUzMTI1IDEuMTQwNjMsOS41MTU2MyAxLjUsMTAuMjY1NiBDMS44NDM3NSwxMS4wMTU2IDIuNDg0MzgsMTIuMDkzOCAyLjQ4NDM4LDEyLjA5MzggQzIuNDg0MzgsMTIuMDkzOCAyLjczNDM4LDEyLjYyNSAzLjU5Mzc1LDEyLjYyNSIgdHJhbnNmb3JtPSJtYXRyaXgoMC45OTIxMjYsMCwwLDAuOTkyMTI2LDQ0My4zNzYsNDExLjE1NSkiIGNsYXNzPSJUaW1lU2lnIi8+JiN4YTs8cGF0aCBkPSJNMy41OTM3NSwxMi42MjUgTDIwLjc2NTYsMTIuNjI1IEwyMC43NjU2LDIwLjA3ODEgTDEyLjU0NjksMjAuMDc4MSBDMTEuNzY1NiwyMC4wNzgxIDExLjEyNSwyMC43MDMxIDExLjEyNSwyMS40ODQ0IEwxMS4xMjUsMjMuMzkwNiBDMTEuMTI1LDI0LjE3MTkgMTEuNzY1NiwyNC43OTY5IDEyLjU0NjksMjQuNzk2OSBMNDIuNzk2OSwyNC43OTY5IEM0My41NzgxLDI0Ljc5NjkgNDQuMjAzMSwyNC4xNzE5IDQ0LjIwMzEsMjMuMzkwNiBMNDQuMjAzMSwyMS40ODQ0IEM0NC4yMDMxLDIwLjcwMzEgNDMuNTc4MSwyMC4wNzgxIDQyLjc5NjksMjAuMDc4MSBMMzMuODU5NCwyMC4wNzgxIEwzMy44NTk0LDEyLjYyNSBMNDIuNzk2OSwxMi42MjUgQzQzLjU3ODEsMTIuNjI1IDQ0LjIwMzEsMTIgNDQuMjAzMSwxMS4yMTg4IEw0NC4yMDMxLDkuMzEyNSBDNDQuMjAzMSw4LjUzMTI1IDQzLjU3ODEsNy45MDYyNSA0Mi43OTY5LDcuOTA2MjUgTDMzLjg1OTQsNy45MDYyNSBMMzMuODU5NCwtOC4wNjI1IEMzMy44NTk0LC04LjU5Mzc1IDMzLjU0NjksLTkuMDc4MTMgMzMuMDc4MSwtOS4zMTI1IEwzMS44NTk0LC05LjkyMTg4IEMzMS4zMjgxLC0xMC4xNzE5IDMwLjcwMzEsLTEwLjA3ODEgMzAuMjY1NiwtOS42ODc1IEwyMS4yMTg4LC0xLjM3NSBDMjAuOTM3NSwtMS4wOTM3NSAyMC43NjU2LC0wLjczNDM3NSAyMC43NjU2LC0wLjMyODEyNSBMMjAuNzY1Niw3LjkwNjI1IEw5LjI1LDcuOTA2MjUgQzkuMjUsNy45MDYyNSAyMC4zNzUsLTQuMTI1IDMyLjIxODgsLTE5Ljg5MDYgQzMzLjA3ODEsLTIxLjA0NjkgMzIuNTc4MSwtMjIuMDkzOCAzMi4zOTA2LC0yMi4yODEzIEwzMC4yMTg4LC0yNC40ODQ0IEMyOS45NTMxLC0yNC43NSAyOS41OTM4LC0yNC45MDYzIDI5LjIxODgsLTI0LjkwNjMgQzI4LjYyNSwtMjQuOTA2MyAxNS4wNjI1LC0yNC44NzUgMTQuMzQzOCwtMjQuOTA2MyBDMTMuNjI1LC0yNC45MjE5IDEzLjA5MzgsLTI0LjI5NjkgMTMuMDE1NiwtMjMuNjg3NSBDMTMuMDE1NiwtMjMuNjg3NSAxMi40ODQ0LC0xNi4zMjgxIDkuODc1LC04LjE4NzUgQzcuMjgxMjUsLTAuMDc4MTI1IDQuMzQzNzUsNC45MDYyNSAxLjY4NzUsOC41MzEyNSBDMS42ODc1LDguNTMxMjUgMS4xNDA2Myw5LjUxNTYzIDEuNSwxMC4yNjU2IEMxLjg0Mzc1LDExLjAxNTYgMi40ODQzOCwxMi4wOTM4IDIuNDg0MzgsMTIuMDkzOCBDMi40ODQzOCwxMi4wOTM4IDIuNzM0MzgsMTIuNjI1IDMuNTkzNzUsMTIuNjI1IiB0cmFuc2Zvcm09Im1hdHJpeCgwLjk5MjEyNiwwLDAsMC45OTIxMjYsNDQzLjM3Niw0NjAuNDk4KSIgY2xhc3M9IlRpbWVTaWciLz4mI3hhOzxwYXRoIGQ9Ik01ODAuNTA0LDU5MS45NDkgTDU3OC41OTgsNjAyLjY5OSBDNTc1LjA1MSw2MDQuNDMzIDU3MS4zMzIsNjA1LjEzNiA1NjcuNzA3LDYwNS4xMzYgQzU1NS4xNDUsNjA1LjEzNiA1NDYuMjIzLDU5NS42NjcgNTQ2LjIyMyw1NzguNjA1IEM1NDYuMjIzLDU2MS42OTkgNTU1LjY5Miw1NTIuMDU4IDU2OC4yNTQsNTUyLjA1OCBDNTcxLjQxLDU1Mi4wNTggNTc0LjU4Miw1NTIuNzYxIDU3Ny44MTcsNTU0LjUxMSBMNTc5LjcwNyw1NjUuMTY3IEw1ODQuMDUxLDU2NS4xNjcgTDU4My43MzgsNTUyLjc2MSBDNTc4LjEyOSw1NDkuNDQ5IDU3Mi41Miw1NDguNDk2IDU2Ny4zNzksNTQ4LjQ5NiBDNTUwLjcyMyw1NDguNDk2IDUzOC40NzMsNTYxLjEzNiA1MzguNDczLDU3OC42MDUgQzUzOC40NzMsNTk2LjI5MiA1NTAuMTYsNjA4LjY5OSA1NjcuMzc5LDYwOC42OTkgQzU3My40NzMsNjA4LjY5OSA1NzkuMTYsNjA3LjUxMSA1ODQuNTM1LDYwNC40MzMgTDU4NC43Nyw1OTEuOTQ5IEw1ODAuNTA0LDU5MS45NDkiIGNsYXNzPSJMeXJpY3MiLz4mI3hhOzxwYXRoIGQ9Ik01MDkuNzIzLDY1MC44MjQgQzUxNS4xNzYsNjUzLjkwMiA1MjIuMjA3LDY1OS45MTcgNTI0LjczOCw2NjQuODI0IEM1MzEuMjg1LDY2Ny45OTYgNTMzLjM0OCw2NTQuMzg2IDUxMC40NDIsNjQ5Ljk0OSBMNTA5LjcyMyw2NTAuODI0IE01NDYuOTI2LDcxNi42NTIgTDUyNC44MTcsNzE2LjY1MiBMNTI0LjgxNyw2OTMuMzU1IEw1NDkuMzc5LDY5My4zNTUgQzU1MC40ODgsNjkzLjM1NSA1NTEuMzQ4LDY5My4wNDIgNTUxLjQyNiw2OTIuMTY3IEM1NDguNjc2LDY4OS41NTggNTQ0LjIzOCw2ODYuMTY3IDU0NC4yMzgsNjg2LjE2NyBMNTQwLjIyMyw2OTEuMDU4IEw1MjQuODE3LDY5MS4wNTggTDUyNC44MTcsNjcwLjY4MyBMNTUyLjg0OCw2NzAuNjgzIEM1NTMuOTU3LDY3MC42ODMgNTU0Ljc1NCw2NzAuMjkyIDU1NC45ODgsNjY5LjQxNyBDNTUyLjA2Nyw2NjYuODg2IDU0Ny40ODgsNjYzLjMyNCA1NDcuNDg4LDY2My4zMjQgTDU0My40NTcsNjY4LjM4NiBMNDkxLjMxNyw2NjguMzg2IEw0OTIuMDM1LDY3MC42ODMgTDUxOS4zNjMsNjcwLjY4MyBMNTE5LjM2Myw2OTEuMDU4IEw0OTQuNTUxLDY5MS4wNTggTDQ5NS4xOTIsNjkzLjM1NSBMNTE5LjM2Myw2OTMuMzU1IEw1MTkuMzYzLDcxNi42NTIgTDQ4Ni4wMiw3MTYuNjUyIEw0ODYuNjYsNzE4Ljk0OSBMNTU2LjQ4OCw3MTguOTQ5IEM1NTcuNTk4LDcxOC45NDkgNTU4LjMwMSw3MTguNTU4IDU1OC41MzUsNzE3LjY4MyBDNTU1LjY5Miw3MTUuMDc0IDU1MS4wMzUsNzExLjUyNyA1NTEuMDM1LDcxMS41MjcgTDU0Ni45MjYsNzE2LjY1MiBNNTk1LjA1MSw2NTAuMjc3IEM1OTcuNDg4LDY1Mi40OTYgNjAwLjU2Nyw2NTYuNjA1IDYwMS4zNjMsNjU5LjY5OSBDNjA2LjQyNiw2NjMuMTA1IDYxMC42OTIsNjUzLjE5OSA1OTUuOTEsNjQ5LjYzNiBMNTk1LjA1MSw2NTAuMjc3IE01ODQuNTM1LDcxNC4yOTIgTDU4NC41MzUsNzAzLjY5OSBMNjE3Ljk1Nyw3MDMuNjk5IEw2MTcuOTU3LDcxNC4yOTIgTDU4NC41MzUsNzE0LjI5MiBNNjE3Ljk1Nyw2OTEuMjkyIEw2MTcuOTU3LDcwMS4zMzkgTDU4NC41MzUsNzAxLjMzOSBMNTg0LjUzNSw2OTEuMjkyIEw2MTcuOTU3LDY5MS4yOTIgTTYxNy4yMzgsNjg5LjAxMSBMNTg0LjkyNiw2ODkuMDExIEw1NzkuNDEsNjg2LjQ4IEw1NzkuNDEsNzIyLjIxNCBMNTgwLjE5Miw3MjIuMjE0IEM1ODIuMzMyLDcyMi4yMTQgNTg0LjUzNSw3MjEuMDI3IDU4NC41MzUsNzIwLjQ2NCBMNTg0LjUzNSw3MTYuNTc0IEw2MTcuOTU3LDcxNi41NzQgTDYxNy45NTcsNzIxLjgwOCBMNjE4LjgxNyw3MjEuODA4IEM2MjAuNjQ1LDcyMS44MDggNjIzLjE2LDcyMC4zODYgNjIzLjIzOCw3MTkuODM5IEw2MjMuMjM4LDY5Mi4xNjcgQzYyNC42Niw2OTEuOTMzIDYyNS44NDgsNjkxLjIxNCA2MjYuNDEsNjkwLjY2NyBMNjIwLjE2LDY4NS44NTUgTDYxNy4yMzgsNjg5LjAxMSBNNjI1LjQ1Nyw2NzguNDk2IEw2MDguOTQyLDY3OC40OTYgQzYxMi41ODIsNjc0Ljc5MiA2MTYuMTI5LDY3MC4yMTQgNjE4LjUwNCw2NjYuNjUyIEM2MjAuMTYsNjY2Ljg4NiA2MjEuMTEzLDY2Ni4yNjEgNjIxLjUwNCw2NjUuMzA4IEw2MTQuMDgyLDY2Mi43NzcgTDYzMC45ODgsNjYyLjc3NyBDNjMyLjA5OCw2NjIuNzc3IDYzMi44NzksNjYyLjM4NiA2MzMuMDM1LDY2MS41MTEgQzYzMC40MjYsNjU5LjA3NCA2MjYuMTYsNjU1Ljc0NiA2MjYuMTYsNjU1Ljc0NiBMNjIyLjM3OSw2NjAuNDE3IEw1NjkuNzcsNjYwLjQxNyBMNTcwLjQ3Myw2NjIuNzc3IEw2MTMuMzYzLDY2Mi43NzcgQzYxMS44NjMsNjY3LjYwNSA2MDkuMTkyLDY3My44MzkgNjA2LjczOCw2NzguNDk2IEw1NjUuODk1LDY3OC40OTYgTDU2Ni42MTMsNjgwLjg3MSBMNjM0LjUzNSw2ODAuODcxIEM2MzUuNjQ1LDY4MC44NzEgNjM2LjQ0Miw2ODAuNDggNjM2LjY3Niw2NzkuNjA1IEM2MzMuODMyLDY3Ni45OTYgNjI5LjQxLDY3My42MDUgNjI5LjQxLDY3My42MDUgTDYyNS40NTcsNjc4LjQ5NiBNNTgzLjU4Miw2NjMuNTc0IEM1ODUuOTU3LDY2Ny4xMzYgNTg4LjgwMSw2NzIuNzQ2IDU4OS4xMTMsNjc3LjE2NyBDNTk0LjAyLDY4MS40MzMgNTk5LjA2Nyw2NzAuODM5IDU4NC41MzUsNjYzLjEwNSBMNTgzLjU4Miw2NjMuNTc0IiBjbGFzcz0iTHlyaWNzIi8+JiN4YTs8cGF0aCBkPSJNODIzLjEwOSw2MDQuMTk5IEM4MjIuODU5LDU5Ni4zNzEgODIyLjg1OSw1ODguNDAyIDgyMi44NTksNTc5LjQ2NCBMODIyLjg1OSw1NzYuNjIxIEM4MjIuODU5LDU2OC41NzQgODIyLjg1OSw1NjAuNjY3IDgyMy4xMDksNTUzLjA4OSBMODMxLjE1Niw1NTMuMDg5IEM4NDQuOTA2LDU1My4wODkgODUyLjY0LDU2Mi4wMTEgODUyLjY0LDU3OC42ODMgQzg1Mi42NCw1OTQuNjM2IDg0NC45MDYsNjA0LjE5OSA4MzAuMjk2LDYwNC4xOTkgTDgyMy4xMDksNjA0LjE5OSBNODA3Ljg1OSw1NDkuODM5IEw4MDcuODU5LDU1Mi42MDUgTDgxNi4wNzgsNTUzLjQ4IEM4MTYuMzEyLDU2MS4wNTggODE2LjMxMiw1NjguODA4IDgxNi4zMTIsNTc2LjYyMSBMODE2LjMxMiw1NzkuNDY0IEM4MTYuMzEyLDU4OC40MDIgODE2LjMxMiw1OTYuMjE0IDgxNi4wNzgsNjAzLjcxNCBMODA3Ljg1OSw2MDQuNTg5IEw4MDcuODU5LDYwNy40MzMgTDgzMC45OTksNjA3LjQzMyBDODQ4LjE0LDYwNy40MzMgODYwLjIzNCw1OTYuOTMzIDg2MC4yMzQsNTc4LjY4MyBDODYwLjIzNCw1NjAuMDQyIDg0OS4xNzEsNTQ5LjgzOSA4MzIuNDIxLDU0OS44MzkgTDgwNy44NTksNTQ5LjgzOSIgY2xhc3M9Ikx5cmljcyIvPiYjeGE7PHBhdGggZD0iTTc3OS45NjgsNzE1Ljg3MSBMNzU1LjY0LDcxNS44NzEgTDc1NS42NCw2ODEuNzQ2IEw3ODMuMjE4LDY4MS43NDYgQzc4NC4zMTIsNjgxLjc0NiA3ODQuOTUzLDY4MS4zMzkgNzg1LjE4Nyw2ODAuNDggQzc4Mi40MjEsNjc3Ljk0OSA3NzcuOTIxLDY3NC4zMDggNzc3LjkyMSw2NzQuMzA4IEw3NzMuODEyLDY3OS40NDkgTDc1NS42NCw2NzkuNDQ5IEw3NTUuNjQsNjUzLjgyNCBDNzU3LjYyNCw2NTMuNDk2IDc1OC4yNDksNjUyLjcxNCA3NTguNDg0LDY1MS42MDUgTDc1MC4yNjUsNjUwLjczIEw3NTAuMjY1LDcxNS44NzEgTDcxOS4wNjIsNzE1Ljg3MSBMNzE5LjcwMyw3MTguMjMgTDc4OS40NTMsNzE4LjIzIEM3OTAuNjQsNzE4LjIzIDc5MS4yNjUsNzE3LjgzOSA3OTEuNDk5LDcxNi45OCBDNzg4LjczNCw3MTQuMzcxIDc4NC4wNzgsNzEwLjgwOCA3ODQuMDc4LDcxMC44MDggTDc3OS45NjgsNzE1Ljg3MSBNODIxLjg0Myw2NTAuODI0IEM4MjcuMjk2LDY1My45MDIgODM0LjMyOCw2NTkuOTE3IDgzNi44NTksNjY0LjgyNCBDODQzLjQwNiw2NjcuOTk2IDg0NS40NjgsNjU0LjM4NiA4MjIuNTYyLDY0OS45NDkgTDgyMS44NDMsNjUwLjgyNCBNODU5LjA0Niw3MTYuNjUyIEw4MzYuOTM3LDcxNi42NTIgTDgzNi45MzcsNjkzLjM1NSBMODYxLjQ5OSw2OTMuMzU1IEM4NjIuNjA5LDY5My4zNTUgODYzLjQ2OCw2OTMuMDQyIDg2My41NDYsNjkyLjE2NyBDODYwLjc5Niw2ODkuNTU4IDg1Ni4zNTksNjg2LjE2NyA4NTYuMzU5LDY4Ni4xNjcgTDg1Mi4zNDMsNjkxLjA1OCBMODM2LjkzNyw2OTEuMDU4IEw4MzYuOTM3LDY3MC42ODMgTDg2NC45NjgsNjcwLjY4MyBDODY2LjA3OCw2NzAuNjgzIDg2Ni44NzQsNjcwLjI5MiA4NjcuMTA5LDY2OS40MTcgQzg2NC4xODcsNjY2Ljg4NiA4NTkuNjA5LDY2My4zMjQgODU5LjYwOSw2NjMuMzI0IEw4NTUuNTc4LDY2OC4zODYgTDgwMy40MzcsNjY4LjM4NiBMODA0LjE1Niw2NzAuNjgzIEw4MzEuNDg0LDY3MC42ODMgTDgzMS40ODQsNjkxLjA1OCBMODA2LjY3MSw2OTEuMDU4IEw4MDcuMzEyLDY5My4zNTUgTDgzMS40ODQsNjkzLjM1NSBMODMxLjQ4NCw3MTYuNjUyIEw3OTguMTQsNzE2LjY1MiBMNzk4Ljc4MSw3MTguOTQ5IEw4NjguNjA5LDcxOC45NDkgQzg2OS43MTgsNzE4Ljk0OSA4NzAuNDIxLDcxOC41NTggODcwLjY1Niw3MTcuNjgzIEM4NjcuODEyLDcxNS4wNzQgODYzLjE1Niw3MTEuNTI3IDg2My4xNTYsNzExLjUyNyBMODU5LjA0Niw3MTYuNjUyIE05MDcuMTcxLDY1MC4yNzcgQzkwOS42MDksNjUyLjQ5NiA5MTIuNjg3LDY1Ni42MDUgOTEzLjQ4NCw2NTkuNjk5IEM5MTguNTQ2LDY2My4xMDUgOTIyLjgxMiw2NTMuMTk5IDkwOC4wMzEsNjQ5LjYzNiBMOTA3LjE3MSw2NTAuMjc3IE04OTYuNjU2LDcxNC4yOTIgTDg5Ni42NTYsNzAzLjY5OSBMOTMwLjA3OCw3MDMuNjk5IEw5MzAuMDc4LDcxNC4yOTIgTDg5Ni42NTYsNzE0LjI5MiBNOTMwLjA3OCw2OTEuMjkyIEw5MzAuMDc4LDcwMS4zMzkgTDg5Ni42NTYsNzAxLjMzOSBMODk2LjY1Niw2OTEuMjkyIEw5MzAuMDc4LDY5MS4yOTIgTTkyOS4zNTksNjg5LjAxMSBMODk3LjA0Niw2ODkuMDExIEw4OTEuNTMxLDY4Ni40OCBMODkxLjUzMSw3MjIuMjE0IEw4OTIuMzEyLDcyMi4yMTQgQzg5NC40NTMsNzIyLjIxNCA4OTYuNjU2LDcyMS4wMjcgODk2LjY1Niw3MjAuNDY0IEw4OTYuNjU2LDcxNi41NzQgTDkzMC4wNzgsNzE2LjU3NCBMOTMwLjA3OCw3MjEuODA4IEw5MzAuOTM3LDcyMS44MDggQzkzMi43NjUsNzIxLjgwOCA5MzUuMjgxLDcyMC4zODYgOTM1LjM1OSw3MTkuODM5IEw5MzUuMzU5LDY5Mi4xNjcgQzkzNi43ODEsNjkxLjkzMyA5MzcuOTY4LDY5MS4yMTQgOTM4LjUzMSw2OTAuNjY3IEw5MzIuMjgxLDY4NS44NTUgTDkyOS4zNTksNjg5LjAxMSBNOTM3LjU3OCw2NzguNDk2IEw5MjEuMDYyLDY3OC40OTYgQzkyNC43MDMsNjc0Ljc5MiA5MjguMjQ5LDY3MC4yMTQgOTMwLjYyNCw2NjYuNjUyIEM5MzIuMjgxLDY2Ni44ODYgOTMzLjIzNCw2NjYuMjYxIDkzMy42MjQsNjY1LjMwOCBMOTI2LjIwMyw2NjIuNzc3IEw5NDMuMTA5LDY2Mi43NzcgQzk0NC4yMTgsNjYyLjc3NyA5NDQuOTk5LDY2Mi4zODYgOTQ1LjE1Niw2NjEuNTExIEM5NDIuNTQ2LDY1OS4wNzQgOTM4LjI4MSw2NTUuNzQ2IDkzOC4yODEsNjU1Ljc0NiBMOTM0LjQ5OSw2NjAuNDE3IEw4ODEuODksNjYwLjQxNyBMODgyLjU5Myw2NjIuNzc3IEw5MjUuNDg0LDY2Mi43NzcgQzkyMy45ODQsNjY3LjYwNSA5MjEuMzEyLDY3My44MzkgOTE4Ljg1OSw2NzguNDk2IEw4NzguMDE1LDY3OC40OTYgTDg3OC43MzQsNjgwLjg3MSBMOTQ2LjY1Niw2ODAuODcxIEM5NDcuNzY1LDY4MC44NzEgOTQ4LjU2Miw2ODAuNDggOTQ4Ljc5Niw2NzkuNjA1IEM5NDUuOTUzLDY3Ni45OTYgOTQxLjUzMSw2NzMuNjA1IDk0MS41MzEsNjczLjYwNSBMOTM3LjU3OCw2NzguNDk2IE04OTUuNzAzLDY2My41NzQgQzg5OC4wNzgsNjY3LjEzNiA5MDAuOTIxLDY3Mi43NDYgOTAxLjIzNCw2NzcuMTY3IEM5MDYuMTQsNjgxLjQzMyA5MTEuMTg3LDY3MC44MzkgODk2LjY1Niw2NjMuMTA1IEw4OTUuNzAzLDY2My41NzQiIGNsYXNzPSJMeXJpY3MiLz4mI3hhOzxwYXRoIGQ9Ik0xMTI0LjkyLDU5Mi40OTYgTDExMjIuODcsNjAzLjg3MSBMMTA5OS43Myw2MDMuODcxIEMxMDk5LjQ4LDU5Ni4yMTQgMTA5OS40OCw1ODguNDggMTA5OS40OCw1NzkuNjk5IEwxMTEzLjM5LDU3OS42OTkgTDExMTQuNDksNTg3Ljk5NiBMMTExNy43Myw1ODcuOTk2IEwxMTE3LjczLDU2OC4wMTEgTDExMTQuNDksNTY4LjAxMSBMMTExMy4zMSw1NzYuNTQyIEwxMDk5LjQ4LDU3Ni41NDIgQzEwOTkuNDgsNTY4LjQ5NiAxMDk5LjQ4LDU2MC43NDYgMTA5OS43Myw1NTMuMzI0IEwxMTIxLjI5LDU1My4zMjQgTDExMjMuNDIsNTY0LjY5OSBMMTEyNy4yOSw1NjQuNjk5IEwxMTI2Ljc0LDU0OS44MzkgTDEwODQuNDgsNTQ5LjgzOSBMMTA4NC40OCw1NTIuNjA1IEwxMDkyLjcsNTUzLjQ4IEMxMDkyLjkzLDU2MS4wNTggMTA5Mi45Myw1NjguODA4IDEwOTIuOTMsNTc2LjQ2NCBMMTA5Mi45Myw1ODAuODA4IEMxMDkyLjkzLDU4OC41NTggMTA5Mi45Myw1OTYuMjE0IDEwOTIuNyw2MDMuNzE0IEwxMDg0LjQ4LDYwNC41ODkgTDEwODQuNDgsNjA3LjQzMyBMMTEyOC4zMiw2MDcuNDMzIEwxMTI4Ljg3LDU5Mi40OTYgTDExMjQuOTIsNTkyLjQ5NiIgY2xhc3M9Ikx5cmljcyIvPiYjeGE7PHBhdGggZD0iTTEwNjcuMjQsNjg5LjcxNCBMMTA2Ny4yNCw2NjguODcxIEwxMDkwLjIzLDY2OC44NzEgTDEwOTAuMjMsNjg5LjcxNCBMMTA2Ny4yNCw2ODkuNzE0IE0xMDM4Ljk2LDY4OS43MTQgTDEwMzguOTYsNjY4Ljg3MSBMMTA2MS45NSw2NjguODcxIEwxMDYxLjk1LDY4OS43MTQgTDEwMzguOTYsNjg5LjcxNCBNMTA5Mi40Myw2NjMuMjYxIEwxMDg5LjQzLDY2Ni41NzQgTDEwNjcuMjQsNjY2LjU3NCBMMTA2Ny4yNCw2NTMuMDc0IEMxMDY5LjI5LDY1Mi43NDYgMTA2OS45Miw2NTEuOTY0IDEwNzAuMDksNjUwLjg1NSBMMTA2MS45NSw2NDkuOTAyIEwxMDYxLjk1LDY2Ni41NzQgTDEwMzkuNTEsNjY2LjU3NCBMMTAzMy44Miw2NjMuODg2IEwxMDMzLjgyLDY5OS41MjcgTDEwMzQuNjIsNjk5LjUyNyBDMTAzNi44Miw2OTkuNTI3IDEwMzguOTYsNjk4LjMzOSAxMDM4Ljk2LDY5Ny43OTIgTDEwMzguOTYsNjkyLjA4OSBMMTA2MS45NSw2OTIuMDg5IEwxMDYxLjk1LDcyMi4zODYgTDEwNjIuOTYsNzIyLjM4NiBDMTA2NC45NSw3MjIuMzg2IDEwNjcuMjQsNzIxLjA0MiAxMDY3LjI0LDcyMC4yNDYgTDEwNjcuMjQsNjkyLjA4OSBMMTA5MC4yMyw2OTIuMDg5IEwxMDkwLjIzLDY5OC42NTIgTDEwOTEuMDksNjk4LjY1MiBDMTA5Mi44NCw2OTguNjUyIDEwOTUuNTEsNjk3LjQ2NCAxMDk1LjU5LDY5Ni45OTYgTDEwOTUuNTksNjY5Ljg4NiBDMTA5Ny4xOCw2NjkuNTc0IDEwOTguNDMsNjY4Ljk0OSAxMDk4LjkyLDY2OC4zMDggTDEwOTIuNDMsNjYzLjI2MSBNMTEzNy43OSw2NTAuMjc3IEMxMTQwLjIzLDY1Mi40OTYgMTE0My4zMSw2NTYuNjA1IDExNDQuMSw2NTkuNjk5IEMxMTQ5LjE3LDY2My4xMDUgMTE1My40Myw2NTMuMTk5IDExMzguNjUsNjQ5LjYzNiBMMTEzNy43OSw2NTAuMjc3IE0xMTI3LjI4LDcxNC4yOTIgTDExMjcuMjgsNzAzLjY5OSBMMTE2MC43LDcwMy42OTkgTDExNjAuNyw3MTQuMjkyIEwxMTI3LjI4LDcxNC4yOTIgTTExNjAuNyw2OTEuMjkyIEwxMTYwLjcsNzAxLjMzOSBMMTEyNy4yOCw3MDEuMzM5IEwxMTI3LjI4LDY5MS4yOTIgTDExNjAuNyw2OTEuMjkyIE0xMTU5Ljk4LDY4OS4wMTEgTDExMjcuNjcsNjg5LjAxMSBMMTEyMi4xNSw2ODYuNDggTDExMjIuMTUsNzIyLjIxNCBMMTEyMi45Myw3MjIuMjE0IEMxMTI1LjA3LDcyMi4yMTQgMTEyNy4yOCw3MjEuMDI3IDExMjcuMjgsNzIwLjQ2NCBMMTEyNy4yOCw3MTYuNTc0IEwxMTYwLjcsNzE2LjU3NCBMMTE2MC43LDcyMS44MDggTDExNjEuNTYsNzIxLjgwOCBDMTE2My4zOSw3MjEuODA4IDExNjUuOSw3MjAuMzg2IDExNjUuOTgsNzE5LjgzOSBMMTE2NS45OCw2OTIuMTY3IEMxMTY3LjQsNjkxLjkzMyAxMTY4LjU5LDY5MS4yMTQgMTE2OS4xNSw2OTAuNjY3IEwxMTYyLjksNjg1Ljg1NSBMMTE1OS45OCw2ODkuMDExIE0xMTY4LjIsNjc4LjQ5NiBMMTE1MS42OCw2NzguNDk2IEMxMTU1LjMyLDY3NC43OTIgMTE1OC44Nyw2NzAuMjE0IDExNjEuMjQsNjY2LjY1MiBDMTE2Mi45LDY2Ni44ODYgMTE2My44NSw2NjYuMjYxIDExNjQuMjQsNjY1LjMwOCBMMTE1Ni44Miw2NjIuNzc3IEwxMTczLjczLDY2Mi43NzcgQzExNzQuODQsNjYyLjc3NyAxMTc1LjYyLDY2Mi4zODYgMTE3NS43OCw2NjEuNTExIEMxMTczLjE3LDY1OS4wNzQgMTE2OC45LDY1NS43NDYgMTE2OC45LDY1NS43NDYgTDExNjUuMTIsNjYwLjQxNyBMMTExMi41MSw2NjAuNDE3IEwxMTEzLjIxLDY2Mi43NzcgTDExNTYuMSw2NjIuNzc3IEMxMTU0LjYsNjY3LjYwNSAxMTUxLjkzLDY3My44MzkgMTE0OS40OCw2NzguNDk2IEwxMTA4LjY0LDY3OC40OTYgTDExMDkuMzUsNjgwLjg3MSBMMTE3Ny4yOCw2ODAuODcxIEMxMTc4LjM5LDY4MC44NzEgMTE3OS4xOCw2ODAuNDggMTE3OS40Miw2NzkuNjA1IEMxMTc2LjU3LDY3Ni45OTYgMTE3Mi4xNSw2NzMuNjA1IDExNzIuMTUsNjczLjYwNSBMMTE2OC4yLDY3OC40OTYgTTExMjYuMzIsNjYzLjU3NCBDMTEyOC43LDY2Ny4xMzYgMTEzMS41NCw2NzIuNzQ2IDExMzEuODUsNjc3LjE2NyBDMTEzNi43Niw2ODEuNDMzIDExNDEuODEsNjcwLjgzOSAxMTI3LjI4LDY2My4xMDUgTDExMjYuMzIsNjYzLjU3NCIgY2xhc3M9Ikx5cmljcyIvPiYjeGE7PHBhdGggZD0iTTEzOTQuOTksNTUzLjMyNCBMMTM5Ny4wNCw1NjQuNjk5IEwxNDAwLjk5LDU2NC42OTkgTDE0MDAuMzYsNTQ5LjgzOSBMMTM1OC4xLDU0OS44MzkgTDEzNTguMSw1NTIuNjA1IEwxMzY2LjMyLDU1My40OCBDMTM2Ni41NSw1NjEuMDU4IDEzNjYuNTUsNTY4LjgwOCAxMzY2LjU1LDU3Ni40NjQgTDEzNjYuNTUsNTgwLjgwOCBDMTM2Ni41NSw1ODguNTU4IDEzNjYuNTUsNTk2LjIxNCAxMzY2LjMyLDYwMy43MTQgTDEzNTguMSw2MDQuNTg5IEwxMzU4LjEsNjA3LjQzMyBMMTM4MS44LDYwNy40MzMgTDEzODEuOCw2MDQuNTg5IEwxMzczLjM1LDYwMy43MTQgQzEzNzMuMSw1OTYuMTM2IDEzNzMuMSw1ODguNDAyIDEzNzMuMSw1NzkuNjk5IEwxMzg3LjQxLDU3OS42OTkgTDEzODguNTEsNTg4LjcxNCBMMTM5MS44Myw1ODguNzE0IEwxMzkxLjgzLDU2OC4wMTEgTDEzODguNTEsNTY4LjAxMSBMMTM4Ny40OSw1NzYuNTQyIEwxMzczLjEsNTc2LjU0MiBDMTM3My4xLDU2OC40OTYgMTM3My4xLDU2MC43NDYgMTM3My4zNSw1NTMuMzI0IEwxMzk0Ljk5LDU1My4zMjQiIGNsYXNzPSJMeXJpY3MiLz4mI3hhOzxwYXRoIGQ9Ik0xMzI0LjksNjU3LjAxMSBMMTI2NC4yMiw2NTcuMDExIEwxMjY0Ljk0LDY1OS4zODYgTDEyOTUuOTksNjU5LjM4NiBMMTI5NS45OSw3MjIuMjMgTDEyOTYuOTMsNzIyLjIzIEMxMjk5LjQ2LDcyMi4yMyAxMzAxLjI3LDcyMC45NjQgMTMwMS4yNyw3MjAuNDAyIEwxMzAxLjI3LDY3Ni42OTkgQzEzMDkuNzIsNjgxLjQzMyAxMzIwLjcxLDY4OS4xODMgMTMyNS4wNSw2OTUuNTg5IEMxMzMyLjU1LDY5OC42NjcgMTMzMi45Niw2ODMuNjUyIDEzMDEuMjcsNjc1LjA0MiBMMTMwMS4yNyw2NTkuMzg2IEwxMzM0Ljc3LDY1OS4zODYgQzEzMzYuMDQsNjU5LjM4NiAxMzM2Ljc0LDY1OC45OTYgMTMzNi45OSw2NTguMTIxIEMxMzMzLjk3LDY1NS40MzMgMTMyOS4xNiw2NTEuNjk5IDEzMjkuMTYsNjUxLjY5OSBMMTMyNC45LDY1Ny4wMTEgTTE0MDMuMjcsNjk0Ljg1NSBDMTQwMi43MSw3MDYuNTQyIDE0MDEuODUsNzE0LjQ4IDE0MDAuMjYsNzE2LjA1OCBDMTM5OS44Niw3MTYuNTQyIDEzOTkuMzIsNzE2Ljc3NyAxMzk4LjIxLDcxNi43NzcgQzEzOTcuODIsNzE2Ljc3NyAxMzk3LjE4LDcxNi43NzcgMTM5Ni4zMiw3MTYuNjk5IEMxMzk4LjQ0LDcxNS42NjcgMTM5Ny45LDcxMC43NjEgMTM4Ny42Myw3MDkuMTY3IEwxMzg2LjgzLDcwOS45NjQgQzEzODcuNzksNzEwLjUyNyAxMzg4LjgsNzExLjIzIDEzODkuNzYsNzEyLjA0MiBMMTM4MS4zOCw3MTIuMjc3IEwxMzgxLjM4LDcwOC4xMjEgTDEzOTEuNTcsNzA4LjEyMSBMMTM5MS41Nyw3MDkuNjM2IEwxMzkyLjI5LDcwOS42MzYgQzEzOTMuNzEsNzA5LjYzNiAxMzk2LjA4LDcwOC43NjEgMTM5Ni4xNiw3MDguMzcxIEwxMzk2LjE2LDcwMi4wNDIgQzEzOTcuMTgsNzAxLjgwOCAxMzk4LjA1LDcwMS4zMzkgMTM5OC40NCw3MDAuOTMzIEwxMzkzLjQsNjk3LjE1MiBMMTM5MS4wMiw2OTkuNDMzIEwxMzgxLjM4LDY5OS40MzMgTDEzODEuMzgsNjk4LjAxMSBDMTM4Mi44OCw2OTcuNzc3IDEzODMuNDQsNjk3LjE1MiAxMzgzLjYsNjk2LjI3NyBMMTM3Ni43Miw2OTUuNDggTDEzNzYuNzIsNjk5LjQzMyBMMTM2OC41MSw2OTkuNDMzIEwxMzY0LjcxLDY5Ny42OTkgQzEzNjUuODIsNjk2LjgyNCAxMzY2Ljg1LDY5NS44MDggMTM2Ny44OCw2OTQuODU1IEwxNDAzLjI3LDY5NC44NTUgTTEzOTEuNTcsNzA1Ljc2MSBMMTM4MS4zOCw3MDUuNzYxIEwxMzgxLjM4LDcwMS44MDggTDEzOTEuNTcsNzAxLjgwOCBMMTM5MS41Nyw3MDUuNzYxIE0xMzY4LjExLDcwNS43NjEgTDEzNjguMTEsNzAxLjgwOCBMMTM3Ni43Miw3MDEuODA4IEwxMzc2LjcyLDcwNS43NjEgTDEzNjguMTEsNzA1Ljc2MSBNMTM1NS4wOCw3MDMuOTMzIEMxMzU4LjA4LDcwMi41ODkgMTM2MS4wMSw3MDAuNjIxIDEzNjMuNjEsNjk4LjU3NCBMMTM2My42MSw3MTAuMjYxIEwxMzY0LjMyLDcxMC4yNjEgQzEzNjYuMDUsNzEwLjI2MSAxMzY4LjExLDcwOS4yMyAxMzY4LjExLDcwOC44MzkgTDEzNjguMTEsNzA4LjEyMSBMMTM3Ni43Miw3MDguMTIxIEwxMzc2LjcyLDcxMi4zMDggQzEzNjguNTEsNzEyLjU0MiAxMzYxLjU1LDcxMi42MjEgMTM1Ny42OCw3MTIuNTQyIEwxMzYwLjQ0LDcxOC40OCBDMTM2MS4xNiw3MTguMzI0IDEzNjEuODYsNzE3LjgzOSAxMzYyLjM1LDcxNi44MDggQzEzNzUuMTUsNzE1LjU1OCAxMzg0LjU0LDcxNC41NTggMTM5MS42NSw3MTMuNjIxIEMxMzkyLjY4LDcxNC42MzYgMTM5My41NSw3MTUuNTU4IDEzOTQuMSw3MTYuNDE3IEwxMzk0LjE4LDcxNi40OTYgQzEzOTIuMzYsNzE2LjMzOSAxMzkwLjE1LDcxNi4xMDUgMTM4OC41Nyw3MTUuOTQ5IEwxMzg4LjQ5LDcxNy4zNzEgQzEzOTEuMjYsNzE3LjY4MyAxMzk0LjQxLDcxOC40OCAxMzk1LjUyLDcxOS4yNzcgQzEzOTYuNTUsNzE5Ljk5NiAxMzk2Ljk0LDcyMS4xODMgMTM5Ni45NCw3MjIuMzcxIEMxMzk5LjU1LDcyMi4zNzEgMTQwMS44NSw3MjEuNjUyIDE0MDMuNTEsNzIwLjMwOCBDMTQwNi40Myw3MTcuNjA1IDE0MDcuNDYsNzA4LjY4MyAxNDA4LjA4LDY5NS40MDIgQzE0MDkuNjYsNjk1LjI0NiAxNDEwLjYxLDY5NC44NTUgMTQxMS4wOCw2OTQuMjMgTDE0MDUuNCw2ODkuNTU4IEwxNDAyLjU1LDY5Mi40OCBMMTM3MC4wMSw2OTIuNDggQzEzNzAuNTcsNjkxLjkzMyAxMzcxLjA0LDY5MS4yOTIgMTM3MS41MSw2OTAuNzQ2IEMxMzczLjU3LDY5MC41ODkgMTM3NC40Myw2OTAuMjc3IDEzNzQuNjYsNjg5LjQ4IEwxMzY3LjI0LDY4Ny45OCBDMTM2NC44OCw2OTIuNzE0IDEzNTkuNTEsNjk5LjEyMSAxMzU0LjEzLDcwMi45OTYgTDEzNTUuMDgsNzAzLjkzMyBNMTM1NC40NCw2NjIuMzg2IEwxMzU0LjQ0LDY1Ni4zODYgTDE0MDMuNjYsNjU2LjM4NiBMMTQwMy42Niw2NjIuMzg2IEwxMzU0LjQ0LDY2Mi4zODYgTTE0MDAuMzUsNjc4LjAyNyBMMTM2NS4xOSw2NzguMDI3IEwxMzYxLjk0LDY3Ni42MDUgQzEzNjkuMDUsNjc0LjU1OCAxMzc0LjgzLDY3Mi44MDggMTM3OS4yNiw2NzEuMzg2IEwxMzc5LjI2LDY3Ni45OTYgTDEzODAuMTksNjc2Ljk5NiBDMTM4MS45NCw2NzYuOTk2IDEzODQuMjIsNjc2LjEzNiAxMzg0LjIyLDY3NS41NzQgTDEzODQuMjIsNjcxLjcxNCBDMTM4OS45MSw2NzIuODg2IDEzOTYuODYsNjc0LjcxNCAxNDAyLjA4LDY3Ni4yOTIgTDE0MDAuMzUsNjc4LjAyNyBNMTM5Mi4wNSw2ODUuNjk5IEwxMzkyLjA1LDY4MC4zMjQgTDE0MDAuOTcsNjgwLjMyNCBMMTQwMC45Nyw2ODUuNjk5IEwxMzkyLjA1LDY4NS42OTkgTTEzNzguNjksNjgwLjMyNCBMMTM4Ny41NSw2ODAuMzI0IEwxMzg3LjU1LDY4NS42OTkgTDEzNzguNjksNjg1LjY5OSBMMTM3OC42OSw2ODAuMzI0IE0xMzY0LjcxLDY4NS42OTkgTDEzNjQuNzEsNjgwLjMyNCBMMTM3NC4xMSw2ODAuMzI0IEwxMzc0LjExLDY4NS42OTkgTDEzNjQuNzEsNjg1LjY5OSBNMTQwNC4zNiw2NjYuODg2IEMxNDA2LjA0LDY2Ni44ODYgMTQwOC40Nyw2NjUuODcxIDE0MDguNTUsNjY1LjM4NiBMMTQwOC41NSw2NTcuMzM5IEMxNDEwLjA1LDY1Ny4wMTEgMTQxMS40LDY1Ni4zODYgMTQxMS44OCw2NTUuNzQ2IEwxNDA1LjYzLDY1MS4wNzQgTDE0MDIuODYsNjU0LjAxMSBMMTM1NS40LDY1NC4wMTEgTDEzNDkuNTUsNjUxLjQ4IEwxMzQ5LjU1LDY4Mi4wNzQgQzEzNDkuNTUsNjk2LjA1OCAxMzQ5LjMyLDcxMC42ODMgMTM0My4zOCw3MjEuNjY3IEwxMzQ0LjY1LDcyMi40NjQgQzEzNTQuMTMsNzExLjcxNCAxMzU0LjQ0LDY5NS40MzMgMTM1NC40NCw2ODEuOTggTDEzNTQuNDQsNjY0Ljc2MSBMMTM5OS42Myw2NjQuNzYxIEMxMzk3LjEsNjY2LjMzOSAxMzkzLjA3LDY2OC43MTQgMTM4OS44Myw2NzAuMzcxIEMxMzg4LjEsNjcwLjIxNCAxMzg2LjI5LDY2OS45NjQgMTM4NC4yMiw2NjkuODg2IEwxMzg0LjIyLDY2Ny45MTcgQzEzODUuOCw2NjcuNjA1IDEzODYuNDQsNjY2Ljk2NCAxMzg2LjUyLDY2Ni4xODMgTDEzNzkuMjYsNjY1LjI3NyBMMTM3OS4yNiw2NjkuNTc0IEMxMzc2LjQxLDY3MC4xMzYgMTM3My43Miw2NzAuNjgzIDEzNzEuMTEsNjcxLjE2NyBDMTM3Mi44NSw2NjkuOTAyIDEzNzEuMTEsNjY1LjM4NiAxMzU5LjU4LDY2NS4xNTIgTDEzNTkuMDIsNjY2LjI2MSBDMTM2Mi4zNSw2NjcuNDQ5IDEzNjYuOTMsNjY5LjczIDEzNjkuMTUsNjcxLjM4NiBMMTM2OS40Niw2NzEuNDY0IEMxMzYzLjkzLDY3Mi40OTYgMTM1OS4yNyw2NzMuMjkyIDEzNTYuNjYsNjczLjYwNSBMMTM1OS4xLDY3OC41ODkgQzEzNTkuNDMsNjc4LjQ5NiAxMzU5Ljc0LDY3OC40MTcgMTM1OS45Nyw2NzguMTgzIEwxMzU5Ljk3LDY5MC41MTEgTDEzNjAuNjksNjkwLjUxMSBDMTM2Mi41OCw2OTAuNTExIDEzNjQuNzEsNjg5LjQ4IDEzNjQuNzEsNjg5LjA4OSBMMTM2NC43MSw2ODcuOTggTDE0MDAuOTcsNjg3Ljk4IEwxNDAwLjk3LDY4OS40MDIgTDE0MDEuNzcsNjg5LjQwMiBDMTQwMy4yNyw2ODkuNDAyIDE0MDUuNzEsNjg4LjM3MSAxNDA1Ljc5LDY4Ny44MjQgTDE0MDUuNzksNjgwLjg3MSBDMTQwNi45Nyw2ODAuNjM2IDE0MDguMDEsNjgwLjAxMSAxNDA4LjQsNjc5LjUyNyBMMTQwNS40LDY3Ny4yNDYgTDE0MDYuNzQsNjc3LjcxNCBDMTQxMC42MSw2NzguNjY3IDE0MTIuMTEsNjczLjQ0OSAxMzkzLjYzLDY3MC44MzkgQzEzOTYuNzksNjY5LjgyNCAxMzk5Ljk0LDY2OC43MTQgMTQwMS42LDY2Ny45OTYgQzE0MDIuNCw2NjguNDggMTQwMy4xLDY2OC40OCAxNDAzLjUxLDY2OC4yMyBMMTQwMC43NCw2NjQuNzYxIEwxNDAzLjY2LDY2NC43NjEgTDE0MDMuNjYsNjY2Ljg4NiBMMTQwNC4zNiw2NjYuODg2IE0xNDUyLjQxLDY1MC4yNzcgQzE0NTQuODUsNjUyLjQ5NiAxNDU3LjkzLDY1Ni42MDUgMTQ1OC43Miw2NTkuNjk5IEMxNDYzLjc5LDY2My4xMDUgMTQ2OC4wNSw2NTMuMTk5IDE0NTMuMjcsNjQ5LjYzNiBMMTQ1Mi40MSw2NTAuMjc3IE0xNDQxLjksNzE0LjI5MiBMMTQ0MS45LDcwMy42OTkgTDE0NzUuMzIsNzAzLjY5OSBMMTQ3NS4zMiw3MTQuMjkyIEwxNDQxLjksNzE0LjI5MiBNMTQ3NS4zMiw2OTEuMjkyIEwxNDc1LjMyLDcwMS4zMzkgTDE0NDEuOSw3MDEuMzM5IEwxNDQxLjksNjkxLjI5MiBMMTQ3NS4zMiw2OTEuMjkyIE0xNDc0LjYsNjg5LjAxMSBMMTQ0Mi4yOSw2ODkuMDExIEwxNDM2Ljc3LDY4Ni40OCBMMTQzNi43Nyw3MjIuMjE0IEwxNDM3LjU1LDcyMi4yMTQgQzE0MzkuNjksNzIyLjIxNCAxNDQxLjksNzIxLjAyNyAxNDQxLjksNzIwLjQ2NCBMMTQ0MS45LDcxNi41NzQgTDE0NzUuMzIsNzE2LjU3NCBMMTQ3NS4zMiw3MjEuODA4IEwxNDc2LjE4LDcyMS44MDggQzE0NzguMDEsNzIxLjgwOCAxNDgwLjUyLDcyMC4zODYgMTQ4MC42LDcxOS44MzkgTDE0ODAuNiw2OTIuMTY3IEMxNDgyLjAyLDY5MS45MzMgMTQ4My4yMSw2OTEuMjE0IDE0ODMuNzcsNjkwLjY2NyBMMTQ3Ny41Miw2ODUuODU1IEwxNDc0LjYsNjg5LjAxMSBNMTQ4Mi44Miw2NzguNDk2IEwxNDY2LjMsNjc4LjQ5NiBDMTQ2OS45NCw2NzQuNzkyIDE0NzMuNDksNjcwLjIxNCAxNDc1Ljg2LDY2Ni42NTIgQzE0NzcuNTIsNjY2Ljg4NiAxNDc4LjQ3LDY2Ni4yNjEgMTQ3OC44Niw2NjUuMzA4IEwxNDcxLjQ0LDY2Mi43NzcgTDE0ODguMzUsNjYyLjc3NyBDMTQ4OS40Niw2NjIuNzc3IDE0OTAuMjQsNjYyLjM4NiAxNDkwLjQsNjYxLjUxMSBDMTQ4Ny43OSw2NTkuMDc0IDE0ODMuNTIsNjU1Ljc0NiAxNDgzLjUyLDY1NS43NDYgTDE0NzkuNzQsNjYwLjQxNyBMMTQyNy4xMyw2NjAuNDE3IEwxNDI3LjgzLDY2Mi43NzcgTDE0NzAuNzIsNjYyLjc3NyBDMTQ2OS4yMiw2NjcuNjA1IDE0NjYuNTUsNjczLjgzOSAxNDY0LjEsNjc4LjQ5NiBMMTQyMy4yNiw2NzguNDk2IEwxNDIzLjk3LDY4MC44NzEgTDE0OTEuOSw2ODAuODcxIEMxNDkzLjAxLDY4MC44NzEgMTQ5My44LDY4MC40OCAxNDk0LjA0LDY3OS42MDUgQzE0OTEuMTksNjc2Ljk5NiAxNDg2Ljc3LDY3My42MDUgMTQ4Ni43Nyw2NzMuNjA1IEwxNDgyLjgyLDY3OC40OTYgTTE0NDAuOTQsNjYzLjU3NCBDMTQ0My4zMiw2NjcuMTM2IDE0NDYuMTYsNjcyLjc0NiAxNDQ2LjQ3LDY3Ny4xNjcgQzE0NTEuMzgsNjgxLjQzMyAxNDU2LjQzLDY3MC44MzkgMTQ0MS45LDY2My4xMDUgTDE0NDAuOTQsNjYzLjU3NCIgY2xhc3M9Ikx5cmljcyIvPiYjeGE7PHBhdGggZD0iTTE3NzguMjIsNTgwLjAyNyBMMTc1Ni40Myw1ODAuMDI3IEwxNzU2LjQzLDU4Mi44NzEgTDE3NjUuNjgsNTgzLjU3NCBDMTc2NS44Myw1ODguOTQ5IDE3NjUuOTEsNTk0LjQwMiAxNzY1LjkxLDU5OS42MDUgTDE3NjUuOTEsNjAyLjkzMyBDMTc2Mi4zNSw2MDQuMzU1IDE3NTkuMTEsNjA1LjEzNiAxNzU1LjE2LDYwNS4xMzYgQzE3NDEuNDMsNjA1LjEzNiAxNzMyLjg5LDU5NS4xODMgMTczMi44OSw1NzguNjgzIEMxNzMyLjg5LDU2MS45MzMgMTc0MS45Nyw1NTIuMDU4IDE3NTQuOTMsNTUyLjA1OCBDMTc1OC44OCw1NTIuMDU4IDE3NjIuMjcsNTUyLjkzMyAxNzY1LjYsNTU0LjkwMiBMMTc2Ny4zMyw1NjUuMzI0IEwxNzcxLjc1LDU2NS4zMjQgTDE3NzEuNDQsNTUyLjkzMyBDMTc2Ni42MSw1NTAuMDExIDE3NjEuNDksNTQ4LjQ5NiAxNzU0LjIyLDU0OC40OTYgQzE3MzcuMTYsNTQ4LjQ5NiAxNzI1LjE0LDU2MS4xMzYgMTcyNS4xNCw1NzguNjA1IEMxNzI1LjE0LDU5Ni4xMzYgMTczNi44Myw2MDguNjk5IDE3NTMuOTcsNjA4LjY5OSBDMTc2MSw2MDguNjk5IDE3NjYuNTQsNjA2LjgwOCAxNzcyLjU0LDYwMy41NTggTDE3NzIuNTQsNTk5LjY5OSBDMTc3Mi41NCw1OTMuOTE3IDE3NzIuNjMsNTg4LjYzNiAxNzcyLjc5LDU4My40MTcgTDE3NzguMjIsNTgyLjg3MSBMMTc3OC4yMiw1ODAuMDI3IiBjbGFzcz0iTHlyaWNzIi8+JiN4YTs8cGF0aCBkPSJNMTczNi4wOCw2OTQuODU1IEMxNzM1LjUyLDcwNi41NDIgMTczNC42Niw3MTQuNDggMTczMy4wNyw3MTYuMDU4IEMxNzMyLjY4LDcxNi41NDIgMTczMi4xMyw3MTYuNzc3IDE3MzEuMDIsNzE2Ljc3NyBDMTczMC42Myw3MTYuNzc3IDE3MjkuOTksNzE2Ljc3NyAxNzI5LjEzLDcxNi42OTkgQzE3MzEuMjUsNzE1LjY2NyAxNzMwLjcxLDcxMC43NjEgMTcyMC40NCw3MDkuMTY3IEwxNzE5LjY0LDcwOS45NjQgQzE3MjAuNiw3MTAuNTI3IDE3MjEuNjEsNzExLjIzIDE3MjIuNTcsNzEyLjA0MiBMMTcxNC4xOSw3MTIuMjc3IEwxNzE0LjE5LDcwOC4xMjEgTDE3MjQuMzgsNzA4LjEyMSBMMTcyNC4zOCw3MDkuNjM2IEwxNzI1LjEsNzA5LjYzNiBDMTcyNi41Miw3MDkuNjM2IDE3MjguODksNzA4Ljc2MSAxNzI4Ljk3LDcwOC4zNzEgTDE3MjguOTcsNzAyLjA0MiBDMTcyOS45OSw3MDEuODA4IDE3MzAuODYsNzAxLjMzOSAxNzMxLjI1LDcwMC45MzMgTDE3MjYuMjEsNjk3LjE1MiBMMTcyMy44Myw2OTkuNDMzIEwxNzE0LjE5LDY5OS40MzMgTDE3MTQuMTksNjk4LjAxMSBDMTcxNS42OSw2OTcuNzc3IDE3MTYuMjUsNjk3LjE1MiAxNzE2LjQxLDY5Ni4yNzcgTDE3MDkuNTQsNjk1LjQ4IEwxNzA5LjU0LDY5OS40MzMgTDE3MDEuMzIsNjk5LjQzMyBMMTY5Ny41Miw2OTcuNjk5IEMxNjk4LjYzLDY5Ni44MjQgMTY5OS42Niw2OTUuODA4IDE3MDAuNjksNjk0Ljg1NSBMMTczNi4wOCw2OTQuODU1IE0xNzI0LjM4LDcwNS43NjEgTDE3MTQuMTksNzA1Ljc2MSBMMTcxNC4xOSw3MDEuODA4IEwxNzI0LjM4LDcwMS44MDggTDE3MjQuMzgsNzA1Ljc2MSBNMTcwMC45Myw3MDUuNzYxIEwxNzAwLjkzLDcwMS44MDggTDE3MDkuNTQsNzAxLjgwOCBMMTcwOS41NCw3MDUuNzYxIEwxNzAwLjkzLDcwNS43NjEgTTE2ODcuODksNzAzLjkzMyBDMTY5MC44OSw3MDIuNTg5IDE2OTMuODIsNzAwLjYyMSAxNjk2LjQzLDY5OC41NzQgTDE2OTYuNDMsNzEwLjI2MSBMMTY5Ny4xMyw3MTAuMjYxIEMxNjk4Ljg2LDcxMC4yNjEgMTcwMC45Myw3MDkuMjMgMTcwMC45Myw3MDguODM5IEwxNzAwLjkzLDcwOC4xMjEgTDE3MDkuNTQsNzA4LjEyMSBMMTcwOS41NCw3MTIuMzA4IEMxNzAxLjMyLDcxMi41NDIgMTY5NC4zNiw3MTIuNjIxIDE2OTAuNDksNzEyLjU0MiBMMTY5My4yNSw3MTguNDggQzE2OTMuOTcsNzE4LjMyNCAxNjk0LjY4LDcxNy44MzkgMTY5NS4xNiw3MTYuODA4IEMxNzA3Ljk2LDcxNS41NTggMTcxNy4zNSw3MTQuNTU4IDE3MjQuNDYsNzEzLjYyMSBDMTcyNS40OSw3MTQuNjM2IDE3MjYuMzYsNzE1LjU1OCAxNzI2LjkxLDcxNi40MTcgTDE3MjYuOTksNzE2LjQ5NiBDMTcyNS4xOCw3MTYuMzM5IDE3MjIuOTYsNzE2LjEwNSAxNzIxLjM4LDcxNS45NDkgTDE3MjEuMyw3MTcuMzcxIEMxNzI0LjA3LDcxNy42ODMgMTcyNy4yMiw3MTguNDggMTcyOC4zMyw3MTkuMjc3IEMxNzI5LjM2LDcxOS45OTYgMTcyOS43NSw3MjEuMTgzIDE3MjkuNzUsNzIyLjM3MSBDMTczMi4zNiw3MjIuMzcxIDE3MzQuNjYsNzIxLjY1MiAxNzM2LjMyLDcyMC4zMDggQzE3MzkuMjQsNzE3LjYwNSAxNzQwLjI3LDcwOC42ODMgMTc0MC44OSw2OTUuNDAyIEMxNzQyLjQ3LDY5NS4yNDYgMTc0My40Myw2OTQuODU1IDE3NDMuODksNjk0LjIzIEwxNzM4LjIxLDY4OS41NTggTDE3MzUuMzYsNjkyLjQ4IEwxNzAyLjgyLDY5Mi40OCBDMTcwMy4zOCw2OTEuOTMzIDE3MDMuODUsNjkxLjI5MiAxNzA0LjMyLDY5MC43NDYgQzE3MDYuMzgsNjkwLjU4OSAxNzA3LjI0LDY5MC4yNzcgMTcwNy40Nyw2ODkuNDggTDE3MDAuMDUsNjg3Ljk4IEMxNjk3LjY5LDY5Mi43MTQgMTY5Mi4zMiw2OTkuMTIxIDE2ODYuOTQsNzAyLjk5NiBMMTY4Ny44OSw3MDMuOTMzIE0xNjg3LjI1LDY2Mi4zODYgTDE2ODcuMjUsNjU2LjM4NiBMMTczNi40Nyw2NTYuMzg2IEwxNzM2LjQ3LDY2Mi4zODYgTDE2ODcuMjUsNjYyLjM4NiBNMTczMy4xNiw2NzguMDI3IEwxNjk4LDY3OC4wMjcgTDE2OTQuNzUsNjc2LjYwNSBDMTcwMS44Niw2NzQuNTU4IDE3MDcuNjQsNjcyLjgwOCAxNzEyLjA3LDY3MS4zODYgTDE3MTIuMDcsNjc2Ljk5NiBMMTcxMyw2NzYuOTk2IEMxNzE0Ljc1LDY3Ni45OTYgMTcxNy4wNCw2NzYuMTM2IDE3MTcuMDQsNjc1LjU3NCBMMTcxNy4wNCw2NzEuNzE0IEMxNzIyLjcyLDY3Mi44ODYgMTcyOS42OCw2NzQuNzE0IDE3MzQuODksNjc2LjI5MiBMMTczMy4xNiw2NzguMDI3IE0xNzI0Ljg2LDY4NS42OTkgTDE3MjQuODYsNjgwLjMyNCBMMTczMy43OSw2ODAuMzI0IEwxNzMzLjc5LDY4NS42OTkgTDE3MjQuODYsNjg1LjY5OSBNMTcxMS41LDY4MC4zMjQgTDE3MjAuMzYsNjgwLjMyNCBMMTcyMC4zNiw2ODUuNjk5IEwxNzExLjUsNjg1LjY5OSBMMTcxMS41LDY4MC4zMjQgTTE2OTcuNTIsNjg1LjY5OSBMMTY5Ny41Miw2ODAuMzI0IEwxNzA2LjkzLDY4MC4zMjQgTDE3MDYuOTMsNjg1LjY5OSBMMTY5Ny41Miw2ODUuNjk5IE0xNzM3LjE4LDY2Ni44ODYgQzE3MzguODUsNjY2Ljg4NiAxNzQxLjI5LDY2NS44NzEgMTc0MS4zNiw2NjUuMzg2IEwxNzQxLjM2LDY1Ny4zMzkgQzE3NDIuODYsNjU3LjAxMSAxNzQ0LjIxLDY1Ni4zODYgMTc0NC42OSw2NTUuNzQ2IEwxNzM4LjQ0LDY1MS4wNzQgTDE3MzUuNjgsNjU0LjAxMSBMMTY4OC4yMSw2NTQuMDExIEwxNjgyLjM2LDY1MS40OCBMMTY4Mi4zNiw2ODIuMDc0IEMxNjgyLjM2LDY5Ni4wNTggMTY4Mi4xMyw3MTAuNjgzIDE2NzYuMTksNzIxLjY2NyBMMTY3Ny40Niw3MjIuNDY0IEMxNjg2Ljk0LDcxMS43MTQgMTY4Ny4yNSw2OTUuNDMzIDE2ODcuMjUsNjgxLjk4IEwxNjg3LjI1LDY2NC43NjEgTDE3MzIuNDQsNjY0Ljc2MSBDMTcyOS45MSw2NjYuMzM5IDE3MjUuODgsNjY4LjcxNCAxNzIyLjY0LDY3MC4zNzEgQzE3MjAuOTEsNjcwLjIxNCAxNzE5LjEsNjY5Ljk2NCAxNzE3LjA0LDY2OS44ODYgTDE3MTcuMDQsNjY3LjkxNyBDMTcxOC42MSw2NjcuNjA1IDE3MTkuMjUsNjY2Ljk2NCAxNzE5LjMzLDY2Ni4xODMgTDE3MTIuMDcsNjY1LjI3NyBMMTcxMi4wNyw2NjkuNTc0IEMxNzA5LjIyLDY3MC4xMzYgMTcwNi41NCw2NzAuNjgzIDE3MDMuOTMsNjcxLjE2NyBDMTcwNS42Niw2NjkuOTAyIDE3MDMuOTMsNjY1LjM4NiAxNjkyLjM5LDY2NS4xNTIgTDE2OTEuODMsNjY2LjI2MSBDMTY5NS4xNiw2NjcuNDQ5IDE2OTkuNzQsNjY5LjczIDE3MDEuOTYsNjcxLjM4NiBMMTcwMi4yNyw2NzEuNDY0IEMxNjk2Ljc0LDY3Mi40OTYgMTY5Mi4wOCw2NzMuMjkyIDE2ODkuNDcsNjczLjYwNSBMMTY5MS45MSw2NzguNTg5IEMxNjkyLjI0LDY3OC40OTYgMTY5Mi41NSw2NzguNDE3IDE2OTIuNzksNjc4LjE4MyBMMTY5Mi43OSw2OTAuNTExIEwxNjkzLjUsNjkwLjUxMSBDMTY5NS4zOSw2OTAuNTExIDE2OTcuNTIsNjg5LjQ4IDE2OTcuNTIsNjg5LjA4OSBMMTY5Ny41Miw2ODcuOTggTDE3MzMuNzksNjg3Ljk4IEwxNzMzLjc5LDY4OS40MDIgTDE3MzQuNTgsNjg5LjQwMiBDMTczNi4wOCw2ODkuNDAyIDE3MzguNTIsNjg4LjM3MSAxNzM4LjYsNjg3LjgyNCBMMTczOC42LDY4MC44NzEgQzE3MzkuNzksNjgwLjYzNiAxNzQwLjgyLDY4MC4wMTEgMTc0MS4yMSw2NzkuNTI3IEwxNzM4LjIxLDY3Ny4yNDYgTDE3MzkuNTUsNjc3LjcxNCBDMTc0My40Myw2NzguNjY3IDE3NDQuOTMsNjczLjQ0OSAxNzI2LjQ0LDY3MC44MzkgQzE3MjkuNiw2NjkuODI0IDE3MzIuNzUsNjY4LjcxNCAxNzM0LjQxLDY2Ny45OTYgQzE3MzUuMjEsNjY4LjQ4IDE3MzUuOTEsNjY4LjQ4IDE3MzYuMzIsNjY4LjIzIEwxNzMzLjU1LDY2NC43NjEgTDE3MzYuNDcsNjY0Ljc2MSBMMTczNi40Nyw2NjYuODg2IEwxNzM3LjE4LDY2Ni44ODYgTTE3ODUuMjIsNjUwLjI3NyBDMTc4Ny42Niw2NTIuNDk2IDE3OTAuNzQsNjU2LjYwNSAxNzkxLjU0LDY1OS42OTkgQzE3OTYuNiw2NjMuMTA1IDE4MDAuODYsNjUzLjE5OSAxNzg2LjA4LDY0OS42MzYgTDE3ODUuMjIsNjUwLjI3NyBNMTc3NC43MSw3MTQuMjkyIEwxNzc0LjcxLDcwMy42OTkgTDE4MDguMTMsNzAzLjY5OSBMMTgwOC4xMyw3MTQuMjkyIEwxNzc0LjcxLDcxNC4yOTIgTTE4MDguMTMsNjkxLjI5MiBMMTgwOC4xMyw3MDEuMzM5IEwxNzc0LjcxLDcwMS4zMzkgTDE3NzQuNzEsNjkxLjI5MiBMMTgwOC4xMyw2OTEuMjkyIE0xODA3LjQxLDY4OS4wMTEgTDE3NzUuMSw2ODkuMDExIEwxNzY5LjU4LDY4Ni40OCBMMTc2OS41OCw3MjIuMjE0IEwxNzcwLjM2LDcyMi4yMTQgQzE3NzIuNSw3MjIuMjE0IDE3NzQuNzEsNzIxLjAyNyAxNzc0LjcxLDcyMC40NjQgTDE3NzQuNzEsNzE2LjU3NCBMMTgwOC4xMyw3MTYuNTc0IEwxODA4LjEzLDcyMS44MDggTDE4MDguOTksNzIxLjgwOCBDMTgxMC44Miw3MjEuODA4IDE4MTMuMzMsNzIwLjM4NiAxODEzLjQxLDcxOS44MzkgTDE4MTMuNDEsNjkyLjE2NyBDMTgxNC44Myw2OTEuOTMzIDE4MTYuMDIsNjkxLjIxNCAxODE2LjU4LDY5MC42NjcgTDE4MTAuMzMsNjg1Ljg1NSBMMTgwNy40MSw2ODkuMDExIE0xODE1LjYzLDY3OC40OTYgTDE3OTkuMTEsNjc4LjQ5NiBDMTgwMi43NSw2NzQuNzkyIDE4MDYuMyw2NzAuMjE0IDE4MDguNjgsNjY2LjY1MiBDMTgxMC4zMyw2NjYuODg2IDE4MTEuMjksNjY2LjI2MSAxODExLjY4LDY2NS4zMDggTDE4MDQuMjUsNjYyLjc3NyBMMTgyMS4xNiw2NjIuNzc3IEMxODIyLjI3LDY2Mi43NzcgMTgyMy4wNSw2NjIuMzg2IDE4MjMuMjEsNjYxLjUxMSBDMTgyMC42LDY1OS4wNzQgMTgxNi4zMyw2NTUuNzQ2IDE4MTYuMzMsNjU1Ljc0NiBMMTgxMi41NSw2NjAuNDE3IEwxNzU5Ljk0LDY2MC40MTcgTDE3NjAuNjQsNjYyLjc3NyBMMTgwMy41NCw2NjIuNzc3IEMxODAyLjA0LDY2Ny42MDUgMTc5OS4zNiw2NzMuODM5IDE3OTYuOTEsNjc4LjQ5NiBMMTc1Ni4wNyw2NzguNDk2IEwxNzU2Ljc5LDY4MC44NzEgTDE4MjQuNzEsNjgwLjg3MSBDMTgyNS44Miw2ODAuODcxIDE4MjYuNjEsNjgwLjQ4IDE4MjYuODUsNjc5LjYwNSBDMTgyNCw2NzYuOTk2IDE4MTkuNTgsNjczLjYwNSAxODE5LjU4LDY3My42MDUgTDE4MTUuNjMsNjc4LjQ5NiBNMTc3My43NSw2NjMuNTc0IEMxNzc2LjEzLDY2Ny4xMzYgMTc3OC45Nyw2NzIuNzQ2IDE3NzkuMjksNjc3LjE2NyBDMTc4NC4xOSw2ODEuNDMzIDE3ODkuMjQsNjcwLjgzOSAxNzc0LjcxLDY2My4xMDUgTDE3NzMuNzUsNjYzLjU3NCIgY2xhc3M9Ikx5cmljcyIvPiYjeGE7PHBhdGggZD0iTTE5OTEuMjUsNTg0Ljc2MSBMMjAwMC4yNyw1NTcuNDMzIEwyMDA5LjM1LDU4NC43NjEgTDE5OTEuMjUsNTg0Ljc2MSBNMjAyMi43MSw2MDMuNzkyIEwyMDA0LjEzLDU0OS4yOTIgTDE5OTkuNzEsNTQ5LjI5MiBMMTk4MS40Niw2MDMuNjM2IEwxOTc0LjM1LDYwNC41ODkgTDE5NzQuMzUsNjA3LjQzMyBMMTk5My4zMiw2MDcuNDMzIEwxOTkzLjMyLDYwNC41ODkgTDE5ODUuMDIsNjAzLjU1OCBMMTk5MC4xNiw1ODcuOTk2IEwyMDEwLjQ2LDU4Ny45OTYgTDIwMTUuNjcsNjAzLjcxNCBMMjAwNi45Nyw2MDQuNTg5IEwyMDA2Ljk3LDYwNy40MzMgTDIwMjkuODIsNjA3LjQzMyBMMjAyOS44Miw2MDQuNTg5IEwyMDIyLjcxLDYwMy43OTIiIGNsYXNzPSJMeXJpY3MiLz4mI3hhOzxwYXRoIGQ9Ik0xOTQ3LjYzLDY1Ny4wMTEgTDE4ODYuOTYsNjU3LjAxMSBMMTg4Ny42Nyw2NTkuMzg2IEwxOTE4LjcyLDY1OS4zODYgTDE5MTguNzIsNzIyLjIzIEwxOTE5LjY2LDcyMi4yMyBDMTkyMi4xOSw3MjIuMjMgMTkyNCw3MjAuOTY0IDE5MjQsNzIwLjQwMiBMMTkyNCw2NzYuNjk5IEMxOTMyLjQ2LDY4MS40MzMgMTk0My40NCw2ODkuMTgzIDE5NDcuNzgsNjk1LjU4OSBDMTk1NS4yOCw2OTguNjY3IDE5NTUuNjksNjgzLjY1MiAxOTI0LDY3NS4wNDIgTDE5MjQsNjU5LjM4NiBMMTk1Ny41LDY1OS4zODYgQzE5NTguNzcsNjU5LjM4NiAxOTU5LjQ3LDY1OC45OTYgMTk1OS43Miw2NTguMTIxIEMxOTU2LjcxLDY1NS40MzMgMTk1MS44OSw2NTEuNjk5IDE5NTEuODksNjUxLjY5OSBMMTk0Ny42Myw2NTcuMDExIE0yMDA0LjYsNjg5LjcxNCBMMjAwNC42LDY2OC44NzEgTDIwMjcuNTgsNjY4Ljg3MSBMMjAyNy41OCw2ODkuNzE0IEwyMDA0LjYsNjg5LjcxNCBNMTk3Ni4zMiw2ODkuNzE0IEwxOTc2LjMyLDY2OC44NzEgTDE5OTkuMyw2NjguODcxIEwxOTk5LjMsNjg5LjcxNCBMMTk3Ni4zMiw2ODkuNzE0IE0yMDI5Ljc4LDY2My4yNjEgTDIwMjYuNzgsNjY2LjU3NCBMMjAwNC42LDY2Ni41NzQgTDIwMDQuNiw2NTMuMDc0IEMyMDA2LjY0LDY1Mi43NDYgMjAwNy4yNyw2NTEuOTY0IDIwMDcuNDQsNjUwLjg1NSBMMTk5OS4zLDY0OS45MDIgTDE5OTkuMyw2NjYuNTc0IEwxOTc2Ljg2LDY2Ni41NzQgTDE5NzEuMTcsNjYzLjg4NiBMMTk3MS4xNyw2OTkuNTI3IEwxOTcxLjk3LDY5OS41MjcgQzE5NzQuMTcsNjk5LjUyNyAxOTc2LjMyLDY5OC4zMzkgMTk3Ni4zMiw2OTcuNzkyIEwxOTc2LjMyLDY5Mi4wODkgTDE5OTkuMyw2OTIuMDg5IEwxOTk5LjMsNzIyLjM4NiBMMjAwMC4zMiw3MjIuMzg2IEMyMDAyLjMsNzIyLjM4NiAyMDA0LjYsNzIxLjA0MiAyMDA0LjYsNzIwLjI0NiBMMjAwNC42LDY5Mi4wODkgTDIwMjcuNTgsNjkyLjA4OSBMMjAyNy41OCw2OTguNjUyIEwyMDI4LjQ0LDY5OC42NTIgQzIwMzAuMTksNjk4LjY1MiAyMDMyLjg2LDY5Ny40NjQgMjAzMi45NCw2OTYuOTk2IEwyMDMyLjk0LDY2OS44ODYgQzIwMzQuNTMsNjY5LjU3NCAyMDM1Ljc4LDY2OC45NDkgMjAzNi4yNyw2NjguMzA4IEwyMDI5Ljc4LDY2My4yNjEgTTIwNzUuMTQsNjUwLjI3NyBDMjA3Ny41OCw2NTIuNDk2IDIwODAuNjYsNjU2LjYwNSAyMDgxLjQ2LDY1OS42OTkgQzIwODYuNTIsNjYzLjEwNSAyMDkwLjc4LDY1My4xOTkgMjA3Niw2NDkuNjM2IEwyMDc1LjE0LDY1MC4yNzcgTTIwNjQuNjMsNzE0LjI5MiBMMjA2NC42Myw3MDMuNjk5IEwyMDk4LjA1LDcwMy42OTkgTDIwOTguMDUsNzE0LjI5MiBMMjA2NC42Myw3MTQuMjkyIE0yMDk4LjA1LDY5MS4yOTIgTDIwOTguMDUsNzAxLjMzOSBMMjA2NC42Myw3MDEuMzM5IEwyMDY0LjYzLDY5MS4yOTIgTDIwOTguMDUsNjkxLjI5MiBNMjA5Ny4zMyw2ODkuMDExIEwyMDY1LjAyLDY4OS4wMTEgTDIwNTkuNSw2ODYuNDggTDIwNTkuNSw3MjIuMjE0IEwyMDYwLjI4LDcyMi4yMTQgQzIwNjIuNDIsNzIyLjIxNCAyMDY0LjYzLDcyMS4wMjcgMjA2NC42Myw3MjAuNDY0IEwyMDY0LjYzLDcxNi41NzQgTDIwOTguMDUsNzE2LjU3NCBMMjA5OC4wNSw3MjEuODA4IEwyMDk4LjkxLDcyMS44MDggQzIxMDAuNzQsNzIxLjgwOCAyMTAzLjI1LDcyMC4zODYgMjEwMy4zMyw3MTkuODM5IEwyMTAzLjMzLDY5Mi4xNjcgQzIxMDQuNzUsNjkxLjkzMyAyMTA1Ljk0LDY5MS4yMTQgMjEwNi41LDY5MC42NjcgTDIxMDAuMjUsNjg1Ljg1NSBMMjA5Ny4zMyw2ODkuMDExIE0yMTA1LjU1LDY3OC40OTYgTDIwODkuMDMsNjc4LjQ5NiBDMjA5Mi42Nyw2NzQuNzkyIDIwOTYuMjIsNjcwLjIxNCAyMDk4LjYsNjY2LjY1MiBDMjEwMC4yNSw2NjYuODg2IDIxMDEuMjEsNjY2LjI2MSAyMTAxLjYsNjY1LjMwOCBMMjA5NC4xNyw2NjIuNzc3IEwyMTExLjA4LDY2Mi43NzcgQzIxMTIuMTksNjYyLjc3NyAyMTEyLjk3LDY2Mi4zODYgMjExMy4xMyw2NjEuNTExIEMyMTEwLjUyLDY1OS4wNzQgMjEwNi4yNSw2NTUuNzQ2IDIxMDYuMjUsNjU1Ljc0NiBMMjEwMi40Nyw2NjAuNDE3IEwyMDQ5Ljg2LDY2MC40MTcgTDIwNTAuNTcsNjYyLjc3NyBMMjA5My40Niw2NjIuNzc3IEMyMDkxLjk2LDY2Ny42MDUgMjA4OS4yOCw2NzMuODM5IDIwODYuODMsNjc4LjQ5NiBMMjA0NS45OSw2NzguNDk2IEwyMDQ2LjcxLDY4MC44NzEgTDIxMTQuNjMsNjgwLjg3MSBDMjExNS43NCw2ODAuODcxIDIxMTYuNTMsNjgwLjQ4IDIxMTYuNzcsNjc5LjYwNSBDMjExMy45Miw2NzYuOTk2IDIxMDkuNSw2NzMuNjA1IDIxMDkuNSw2NzMuNjA1IEwyMTA1LjU1LDY3OC40OTYgTTIwNjMuNjcsNjYzLjU3NCBDMjA2Ni4wNSw2NjcuMTM2IDIwNjguODksNjcyLjc0NiAyMDY5LjIxLDY3Ny4xNjcgQzIwNzQuMTEsNjgxLjQzMyAyMDc5LjE2LDY3MC44MzkgMjA2NC42Myw2NjMuMTA1IEwyMDYzLjY3LDY2My41NzQiIGNsYXNzPSJMeXJpY3MiLz4mI3hhOzxwYXRoIGQ9Ik0yMjQ1LDYwNC4xOTkgQzIyNDQuNzUsNTk2LjQ0OSAyMjQ0Ljc1LDU4OC40MDIgMjI0NC43NSw1NzkuMTUyIEwyMjUwLjI4LDU3OS4xNTIgQzIyNjIuNjEsNTc5LjE1MiAyMjY3Ljk5LDU4My41NzQgMjI2Ny45OSw1OTEuNzkyIEMyMjY3Ljk5LDU5OS43NzcgMjI2Mi4zOCw2MDQuMTk5IDIyNTEuMzksNjA0LjE5OSBMMjI0NSw2MDQuMTk5IE0yMjUxLjM5LDU1My4wODkgQzIyNjEuMDMsNTUzLjA4OSAyMjY1LjQ1LDU1Ni4zMjQgMjI2NS40NSw1NjMuOTggQzIyNjUuNDUsNTcyLjA0MiAyMjYwLjQ5LDU3NS45OTYgMjI0OS43NCw1NzUuOTk2IEwyMjQ0Ljc1LDU3NS45OTYgQzIyNDQuNzUsNTY4LjA4OSAyMjQ0Ljc1LDU2MC41MTEgMjI0NSw1NTMuMDg5IEwyMjUxLjM5LDU1My4wODkgTTIyMjkuNzUsNTQ5LjgzOSBMMjIyOS43NSw1NTIuNjA1IEwyMjM3Ljk3LDU1My40OCBDMjIzOC4yLDU2MS4wNTggMjIzOC4yLDU2OC44MDggMjIzOC4yLDU3Ni4zODYgTDIyMzguMiw1ODAuNzMgQzIyMzguMiw1ODguNDggMjIzOC4yLDU5Ni4xMzYgMjIzNy45Nyw2MDMuNzE0IEwyMjI5Ljc1LDYwNC41ODkgTDIyMjkuNzUsNjA3LjQzMyBMMjI1Mi45Nyw2MDcuNDMzIEMyMjY4LjYxLDYwNy40MzMgMjI3NS4wMiw1OTkuNzc3IDIyNzUuMDIsNTkxLjc5MiBDMjI3NS4wMiw1ODQuNjA1IDIyNzAuMTEsNTc4LjkxNyAyMjU4LjU4LDU3Ny40MTcgQzIyNjguMTQsNTc1LjM1NSAyMjcyLjA5LDU2OS45MTcgMjI3Mi4wOSw1NjMuNzQ2IEMyMjcyLjA5LDU1NS40NDkgMjI2NS41Myw1NDkuODM5IDIyNTMuNTMsNTQ5LjgzOSBMMjIyOS43NSw1NDkuODM5IiBjbGFzcz0iTHlyaWNzIi8+JiN4YTs8cGF0aCBkPSJNMjIzNS4yNSw2NjguNDY0IEwyMjM1LjI1LDY3Mi43MyBMMjIwOS45OSw2NzIuNzMgTDIyMDkuOTksNjY4LjQ2NCBMMjIzNS4yNSw2NjguNDY0IE0yMjA5Ljk5LDY4Ni4wMTEgTDIyMDkuOTksNjgxLjY2NyBMMjIzNS4yNSw2ODEuNjY3IEwyMjM1LjI1LDY4Ni4wMTEgTDIyMDkuOTksNjg2LjAxMSBNMjIwOS45OSw2NzUuMDI3IEwyMjM1LjI1LDY3NS4wMjcgTDIyMzUuMjUsNjc5LjI5MiBMMjIwOS45OSw2NzkuMjkyIEwyMjA5Ljk5LDY3NS4wMjcgTTIxOTkuMzksNjYxLjA0MiBMMjIxOS40NSw2NjEuMDQyIEMyMjE5LjA2LDY2Mi42OTkgMjIxOC41Miw2NjQuNTI3IDIyMTguMDMsNjY2LjE4MyBMMjIxMC4zOCw2NjYuMTgzIEwyMjA1LjA4LDY2My43MyBMMjIwNS4wOCw2OTAuOTAyIEwyMjA1LjgsNjkwLjkwMiBDMjIwNy44NCw2OTAuOTAyIDIyMDkuOTksNjg5Ljg4NiAyMjA5Ljk5LDY4OS4zMjQgTDIyMDkuOTksNjg4LjM3MSBMMjIzNS4yNSw2ODguMzcxIEwyMjM1LjI1LDY5MC43NDYgTDIyMzYuMDUsNjkwLjc0NiBDMjIzNy43LDY5MC43NDYgMjI0MC4xNiw2ODkuNTU4IDIyNDAuMjQsNjg5LjA4OSBMMjI0MC4yNCw2NjkuNDE3IEMyMjQxLjc0LDY2OS4xMDUgMjI0Myw2NjguNDY0IDIyNDMuNDcsNjY3LjgzOSBMMjIzNy4zMSw2NjMuMTgzIEwyMjM0LjQ3LDY2Ni4xODMgTDIyMjEuNTksNjY2LjE4MyBDMjIyMi43OCw2NjQuNjA1IDIyMjQuMTMsNjYyLjc3NyAyMjI1LjMsNjYxLjA0MiBMMjI0Ni4yNCw2NjEuMDQyIEMyMjQ3LjI3LDY2MS4wNDIgMjI0OC4xMyw2NjAuNjUyIDIyNDguMyw2NTkuNzc3IEMyMjQ1Ljg0LDY1Ny40OTYgMjI0MS44OSw2NTQuNTc0IDIyNDEuODksNjU0LjU3NCBMMjIzOC40Miw2NTguNjY3IEwyMjI5Ljc0LDY1OC42NjcgQzIyMzEuOTQsNjU3LjAxMSAyMjM0LjMxLDY1NS4xOTkgMjIzNS44OSw2NTMuNjk5IEMyMjM3LjU1LDY1My43NzcgMjIzOC41LDY1My4yMyAyMjM4Ljg5LDY1Mi4zNTUgTDIyMzAuOTksNjQ5LjkwMiBDMjIzMC4wNSw2NTIuNTExIDIyMjguMzksNjU1Ljk5NiAyMjI3LjEzLDY1OC42NjcgTDIyMTcuMTcsNjU4LjY2NyBDMjIxOS4yMiw2NTYuNzc3IDIyMTguMzYsNjUxLjU1OCAyMjA4Ljk1LDY1MC4yOTIgTDIyMDguMTYsNjUwLjkzMyBDMjIxMC41Myw2NTIuNTg5IDIyMTIuOTksNjU1Ljk5NiAyMjEzLjQ1LDY1OC42NjcgTDIxOTguNzcsNjU4LjY2NyBMMjE5OS4zOSw2NjEuMDQyIE0yMTgwLjQ0LDY1Mi4xOTkgQzIxODMuOTEsNjUzLjYyMSAyMTg4LjMzLDY1Ni41NDIgMjE5MC4xNiw2NTguOTk2IEMyMTk1LjUyLDY2MC41NzQgMjE5Ni4zMSw2NTAuMzcxIDIxODEuMTQsNjUxLjMyNCBMMjE4MC40NCw2NTIuMTk5IE0yMTgxLjYzLDY5OC4zMzkgQzIxODIuMzMsNjk3LjkzMyAyMTgyLjQ5LDY5Ny4zODYgMjE4Mi4yNSw2OTYuNzQ2IEMyMTg0LjIyLDY5NC4zODYgMjE4Ny4zMSw2OTEuMjkyIDIxODguODEsNjg5Ljc5MiBDMjE4OS41Miw2ODkuMDExIDIxOTAuMzEsNjg4Ljg1NSAyMTkxLjU4LDY4OS43MTQgQzIxOTcuODEsNjk1LjMyNCAyMjA0LjkyLDY5Ny4xNTIgMjIyMC40MSw2OTcuMTUyIEwyMjQ0Ljk3LDY5Ny4xNTIgQzIyNDUuMzgsNjk1LjI0NiAyMjQ2LjQ3LDY5My42NjcgMjI0OC43Nyw2OTMuMzU1IEwyMjQ4LjY5LDY5Mi4yNDYgQzIyMzkuMjgsNjkyLjYzNiAyMjMwLjk5LDY5Mi42MzYgMjIyMS44Myw2OTIuNjM2IEMyMjA2Ljg5LDY5Mi42MzYgMjE5OC4yLDY5MS44NTUgMjE5Mi4yLDY4Ny41MTEgQzIxOTEuODksNjg3LjI3NyAyMTkxLjY2LDY4Ny4xMjEgMjE5MS40Miw2ODcuMDI3IEMyMTk1LjQ0LDY4NC4xMDUgMjE5OC41Myw2ODAuMTY3IDIyMDAuMzQsNjc2LjM3MSBDMjIwMi4wOCw2NzYuMzcxIDIyMDIuODgsNjc2LjEzNiAyMjAzLjUsNjc1LjQxNyBMMjE5OC4zNiw2NzAuOTk2IEwyMTk1LjI4LDY3My44MzkgTDIxODkuNDQsNjczLjgzOSBDMjE5MS41LDY3MS4wNzQgMjE5My45NCw2NjcuNTI3IDIxOTUuNTIsNjY1LjE1MiBDMjE5Ny4zNCw2NjUuMDc0IDIxOTkuMDgsNjY0Ljc2MSAyMTk5Ljg2LDY2My44ODYgTDIxOTQuMTcsNjU4LjgyNCBMMjE5MS40Miw2NjEuNjgzIEwyMTc4LjM4LDY2MS42ODMgTDIxNzkuMDksNjYzLjk2NCBMMjE5MC43OCw2NjMuOTY0IEMyMTg5LjEzLDY2Ni42NTIgMjE4Ni44Myw2NzAuMTM2IDIxODQuOTQsNjcyLjY1MiBDMjE4My44Myw2NzIuODg2IDIxODIuNTYsNjczLjM3MSAyMTgxLjg2LDY3My44MzkgTDIxODYuMTMsNjc3Ljk0OSBMMjE4OC40MSw2NzYuMjE0IEwyMTk1LjI4LDY3Ni4yMTQgQzIxOTMuNyw2ODAuMTY3IDIxOTAuOTQsNjg0LjUxMSAyMTg3LjcsNjg3LjUxMSBDMjE4NS4wOSw2ODguNzc3IDIxODAuNzUsNjkxLjQ2NCAyMTc3Ljc1LDY5Mi44ODYgTDIxODEuNjMsNjk4LjMzOSBNMjE5Mi40NCw3MDguMzU1IEMyMTk2LjA4LDcxMC42NTIgMjIwMS4wNSw3MTQuOTMzIDIyMDMuMDMsNzE4LjEwNSBDMjIwOS4wMyw3MjAuNjk5IDIyMTEuNTYsNzA5LjU0MiAyMTkzLjE2LDcwNy41NzQgTDIxOTIuNDQsNzA4LjM1NSBNMjIzOS42OSw3MDMuNjk5IEwyMjMwLjIsNzAzLjY5OSBMMjIzMC4yLDcwMC44NTUgQzIyMzEuOTQsNzAwLjU0MiAyMjMyLjY2LDY5OS45OTYgMjIzMi44OSw2OTguODg2IEwyMjI1LjE0LDY5OC4wMTEgTDIyMjUuMTQsNzAzLjY5OSBMMjE3Ny4xMSw3MDMuNjk5IEwyMTc3Ljc1LDcwNi4wNzQgTDIyMjUuMTQsNzA2LjA3NCBMMjIyNS4xNCw3MTQuNjA1IEMyMjI1LjE0LDcxNS43OTIgMjIyNC42Nyw3MTYuMjYxIDIyMjMuMDIsNzE2LjI2MSBDMjIyMS4xMSw3MTYuMjYxIDIyMTAuNzcsNzE1LjU1OCAyMjEwLjc3LDcxNS41NTggTDIyMTAuNzcsNzE2LjgwOCBDMjIxNS4xMSw3MTcuMjkyIDIyMTcuNDksNzE4LjAxMSAyMjE4Ljk5LDcxOC43OTIgQzIyMjAuMjUsNzE5LjU3NCAyMjIwLjgsNzIwLjgzOSAyMjIxLjExLDcyMi4zMzkgQzIyMjkuMTcsNzIxLjYzNiAyMjMwLjIsNzE5LjAyNyAyMjMwLjIsNzE0LjgzOSBMMjIzMC4yLDcwNi4wNzQgTDIyNDcuMjcsNzA2LjA3NCBDMjI0OC4zLDcwNi4wNzQgMjI0OS4wOCw3MDUuNjgzIDIyNDkuMjQsNzA0LjgwOCBDMjI0Ni44LDcwMi41MTEgMjI0Myw2OTkuNTg5IDIyNDMsNjk5LjU4OSBMMjIzOS42OSw3MDMuNjk5IE0yMjg2LjA2LDY1MC4yNzcgQzIyODguNSw2NTIuNDk2IDIyOTEuNTgsNjU2LjYwNSAyMjkyLjM4LDY1OS42OTkgQzIyOTcuNDQsNjYzLjEwNSAyMzAxLjcsNjUzLjE5OSAyMjg2LjkyLDY0OS42MzYgTDIyODYuMDYsNjUwLjI3NyBNMjI3NS41NSw3MTQuMjkyIEwyMjc1LjU1LDcwMy42OTkgTDIzMDguOTcsNzAzLjY5OSBMMjMwOC45Nyw3MTQuMjkyIEwyMjc1LjU1LDcxNC4yOTIgTTIzMDguOTcsNjkxLjI5MiBMMjMwOC45Nyw3MDEuMzM5IEwyMjc1LjU1LDcwMS4zMzkgTDIyNzUuNTUsNjkxLjI5MiBMMjMwOC45Nyw2OTEuMjkyIE0yMzA4LjI1LDY4OS4wMTEgTDIyNzUuOTQsNjg5LjAxMSBMMjI3MC40Miw2ODYuNDggTDIyNzAuNDIsNzIyLjIxNCBMMjI3MS4yLDcyMi4yMTQgQzIyNzMuMzQsNzIyLjIxNCAyMjc1LjU1LDcyMS4wMjcgMjI3NS41NSw3MjAuNDY0IEwyMjc1LjU1LDcxNi41NzQgTDIzMDguOTcsNzE2LjU3NCBMMjMwOC45Nyw3MjEuODA4IEwyMzA5LjgzLDcyMS44MDggQzIzMTEuNjYsNzIxLjgwOCAyMzE0LjE3LDcyMC4zODYgMjMxNC4yNSw3MTkuODM5IEwyMzE0LjI1LDY5Mi4xNjcgQzIzMTUuNjcsNjkxLjkzMyAyMzE2Ljg2LDY5MS4yMTQgMjMxNy40Miw2OTAuNjY3IEwyMzExLjE3LDY4NS44NTUgTDIzMDguMjUsNjg5LjAxMSBNMjMxNi40Nyw2NzguNDk2IEwyMjk5Ljk1LDY3OC40OTYgQzIzMDMuNTksNjc0Ljc5MiAyMzA3LjE0LDY3MC4yMTQgMjMwOS41Miw2NjYuNjUyIEMyMzExLjE3LDY2Ni44ODYgMjMxMi4xMyw2NjYuMjYxIDIzMTIuNTIsNjY1LjMwOCBMMjMwNS4wOSw2NjIuNzc3IEwyMzIyLDY2Mi43NzcgQzIzMjMuMTEsNjYyLjc3NyAyMzIzLjg5LDY2Mi4zODYgMjMyNC4wNSw2NjEuNTExIEMyMzIxLjQ0LDY1OS4wNzQgMjMxNy4xNyw2NTUuNzQ2IDIzMTcuMTcsNjU1Ljc0NiBMMjMxMy4zOSw2NjAuNDE3IEwyMjYwLjc4LDY2MC40MTcgTDIyNjEuNDksNjYyLjc3NyBMMjMwNC4zOCw2NjIuNzc3IEMyMzAyLjg4LDY2Ny42MDUgMjMwMC4yLDY3My44MzkgMjI5Ny43NSw2NzguNDk2IEwyMjU2LjkxLDY3OC40OTYgTDIyNTcuNjMsNjgwLjg3MSBMMjMyNS41NSw2ODAuODcxIEMyMzI2LjY2LDY4MC44NzEgMjMyNy40NSw2ODAuNDggMjMyNy42OSw2NzkuNjA1IEMyMzI0Ljg0LDY3Ni45OTYgMjMyMC40Miw2NzMuNjA1IDIzMjAuNDIsNjczLjYwNSBMMjMxNi40Nyw2NzguNDk2IE0yMjc0LjU5LDY2My41NzQgQzIyNzYuOTcsNjY3LjEzNiAyMjc5LjgxLDY3Mi43NDYgMjI4MC4xMyw2NzcuMTY3IEMyMjg1LjAzLDY4MS40MzMgMjI5MC4wOCw2NzAuODM5IDIyNzUuNTUsNjYzLjEwNSBMMjI3NC41OSw2NjMuNTc0IiBjbGFzcz0iTHlyaWNzIi8+JiN4YTs8cGF0aCBkPSJNMjUyMS45NCw1OTEuOTQ5IEwyNTIwLjAzLDYwMi42OTkgQzI1MTYuNDgsNjA0LjQzMyAyNTEyLjc3LDYwNS4xMzYgMjUwOS4xNCw2MDUuMTM2IEMyNDk2LjU4LDYwNS4xMzYgMjQ4Ny42Niw1OTUuNjY3IDI0ODcuNjYsNTc4LjYwNSBDMjQ4Ny42Niw1NjEuNjk5IDI0OTcuMTIsNTUyLjA1OCAyNTA5LjY5LDU1Mi4wNTggQzI1MTIuODQsNTUyLjA1OCAyNTE2LjAyLDU1Mi43NjEgMjUxOS4yNSw1NTQuNTExIEwyNTIxLjE0LDU2NS4xNjcgTDI1MjUuNDgsNTY1LjE2NyBMMjUyNS4xNyw1NTIuNzYxIEMyNTE5LjU2LDU0OS40NDkgMjUxMy45NSw1NDguNDk2IDI1MDguODEsNTQ4LjQ5NiBDMjQ5Mi4xNiw1NDguNDk2IDI0NzkuOTEsNTYxLjEzNiAyNDc5LjkxLDU3OC42MDUgQzI0NzkuOTEsNTk2LjI5MiAyNDkxLjU5LDYwOC42OTkgMjUwOC44MSw2MDguNjk5IEMyNTE0LjkxLDYwOC42OTkgMjUyMC41OSw2MDcuNTExIDI1MjUuOTcsNjA0LjQzMyBMMjUyNi4yLDU5MS45NDkgTDI1MjEuOTQsNTkxLjk0OSIgY2xhc3M9Ikx5cmljcyIvPiYjeGE7PHBhdGggZD0iTTI0NTEuMTYsNjUwLjgyNCBDMjQ1Ni42MSw2NTMuOTAyIDI0NjMuNjQsNjU5LjkxNyAyNDY2LjE3LDY2NC44MjQgQzI0NzIuNzIsNjY3Ljk5NiAyNDc0Ljc4LDY1NC4zODYgMjQ1MS44Nyw2NDkuOTQ5IEwyNDUxLjE2LDY1MC44MjQgTTI0ODguMzYsNzE2LjY1MiBMMjQ2Ni4yNSw3MTYuNjUyIEwyNDY2LjI1LDY5My4zNTUgTDI0OTAuODEsNjkzLjM1NSBDMjQ5MS45Miw2OTMuMzU1IDI0OTIuNzgsNjkzLjA0MiAyNDkyLjg2LDY5Mi4xNjcgQzI0OTAuMTEsNjg5LjU1OCAyNDg1LjY3LDY4Ni4xNjcgMjQ4NS42Nyw2ODYuMTY3IEwyNDgxLjY2LDY5MS4wNTggTDI0NjYuMjUsNjkxLjA1OCBMMjQ2Ni4yNSw2NzAuNjgzIEwyNDk0LjI4LDY3MC42ODMgQzI0OTUuMzksNjcwLjY4MyAyNDk2LjE5LDY3MC4yOTIgMjQ5Ni40Miw2NjkuNDE3IEMyNDkzLjUsNjY2Ljg4NiAyNDg4LjkyLDY2My4zMjQgMjQ4OC45Miw2NjMuMzI0IEwyNDg0Ljg5LDY2OC4zODYgTDI0MzIuNzUsNjY4LjM4NiBMMjQzMy40Nyw2NzAuNjgzIEwyNDYwLjgsNjcwLjY4MyBMMjQ2MC44LDY5MS4wNTggTDI0MzUuOTgsNjkxLjA1OCBMMjQzNi42Miw2OTMuMzU1IEwyNDYwLjgsNjkzLjM1NSBMMjQ2MC44LDcxNi42NTIgTDI0MjcuNDUsNzE2LjY1MiBMMjQyOC4wOSw3MTguOTQ5IEwyNDk3LjkyLDcxOC45NDkgQzI0OTkuMDMsNzE4Ljk0OSAyNDk5LjczLDcxOC41NTggMjQ5OS45Nyw3MTcuNjgzIEMyNDk3LjEyLDcxNS4wNzQgMjQ5Mi40Nyw3MTEuNTI3IDI0OTIuNDcsNzExLjUyNyBMMjQ4OC4zNiw3MTYuNjUyIE0yNTM2LjQ4LDY1MC4yNzcgQzI1MzguOTIsNjUyLjQ5NiAyNTQyLDY1Ni42MDUgMjU0Mi44LDY1OS42OTkgQzI1NDcuODYsNjYzLjEwNSAyNTUyLjEyLDY1My4xOTkgMjUzNy4zNCw2NDkuNjM2IEwyNTM2LjQ4LDY1MC4yNzcgTTI1MjUuOTcsNzE0LjI5MiBMMjUyNS45Nyw3MDMuNjk5IEwyNTU5LjM5LDcwMy42OTkgTDI1NTkuMzksNzE0LjI5MiBMMjUyNS45Nyw3MTQuMjkyIE0yNTU5LjM5LDY5MS4yOTIgTDI1NTkuMzksNzAxLjMzOSBMMjUyNS45Nyw3MDEuMzM5IEwyNTI1Ljk3LDY5MS4yOTIgTDI1NTkuMzksNjkxLjI5MiBNMjU1OC42Nyw2ODkuMDExIEwyNTI2LjM2LDY4OS4wMTEgTDI1MjAuODQsNjg2LjQ4IEwyNTIwLjg0LDcyMi4yMTQgTDI1MjEuNjIsNzIyLjIxNCBDMjUyMy43Nyw3MjIuMjE0IDI1MjUuOTcsNzIxLjAyNyAyNTI1Ljk3LDcyMC40NjQgTDI1MjUuOTcsNzE2LjU3NCBMMjU1OS4zOSw3MTYuNTc0IEwyNTU5LjM5LDcyMS44MDggTDI1NjAuMjUsNzIxLjgwOCBDMjU2Mi4wOCw3MjEuODA4IDI1NjQuNTksNzIwLjM4NiAyNTY0LjY3LDcxOS44MzkgTDI1NjQuNjcsNjkyLjE2NyBDMjU2Ni4wOSw2OTEuOTMzIDI1NjcuMjgsNjkxLjIxNCAyNTY3Ljg0LDY5MC42NjcgTDI1NjEuNTksNjg1Ljg1NSBMMjU1OC42Nyw2ODkuMDExIE0yNTY2Ljg5LDY3OC40OTYgTDI1NTAuMzcsNjc4LjQ5NiBDMjU1NC4wMiw2NzQuNzkyIDI1NTcuNTYsNjcwLjIxNCAyNTU5Ljk0LDY2Ni42NTIgQzI1NjEuNTksNjY2Ljg4NiAyNTYyLjU1LDY2Ni4yNjEgMjU2Mi45NCw2NjUuMzA4IEwyNTU1LjUyLDY2Mi43NzcgTDI1NzIuNDIsNjYyLjc3NyBDMjU3My41Myw2NjIuNzc3IDI1NzQuMzEsNjYyLjM4NiAyNTc0LjQ3LDY2MS41MTEgQzI1NzEuODYsNjU5LjA3NCAyNTY3LjU5LDY1NS43NDYgMjU2Ny41OSw2NTUuNzQ2IEwyNTYzLjgxLDY2MC40MTcgTDI1MTEuMiw2NjAuNDE3IEwyNTExLjkxLDY2Mi43NzcgTDI1NTQuOCw2NjIuNzc3IEMyNTUzLjMsNjY3LjYwNSAyNTUwLjYyLDY3My44MzkgMjU0OC4xNyw2NzguNDk2IEwyNTA3LjMzLDY3OC40OTYgTDI1MDguMDUsNjgwLjg3MSBMMjU3NS45Nyw2ODAuODcxIEMyNTc3LjA4LDY4MC44NzEgMjU3Ny44Nyw2ODAuNDggMjU3OC4xMSw2NzkuNjA1IEMyNTc1LjI3LDY3Ni45OTYgMjU3MC44NCw2NzMuNjA1IDI1NzAuODQsNjczLjYwNSBMMjU2Ni44OSw2NzguNDk2IE0yNTI1LjAyLDY2My41NzQgQzI1MjcuMzksNjY3LjEzNiAyNTMwLjIzLDY3Mi43NDYgMjUzMC41NSw2NzcuMTY3IEMyNTM1LjQ1LDY4MS40MzMgMjU0MC41LDY3MC44MzkgMjUyNS45Nyw2NjMuMTA1IEwyNTI1LjAyLDY2My41NzQiIGNsYXNzPSJMeXJpY3MiLz4mI3hhOzwvc3ZnPg==;clipPath=inset(3.7% 24% 42.59% 17.33%);" vertex="1" parent="dovyj1iJbNHp64XGyW4s-1">
          <mxGeometry x="100" y="800" width="2800" height="461.36" as="geometry" />
        </mxCell>
        <mxCell id="NGr-FaooDCpuAqZqSRhC-0" value="" style="shape=image;imageAspect=0;aspect=fixed;verticalLabelPosition=bottom;verticalAlign=top;image=data:image/svg+xml,PHN2ZyB4bWxuczp4bGluaz0iaHR0cDovL3d3dy53My5vcmcvMTk5OS94bGluayIgeG1sbnM9Imh0dHA6Ly93d3cudzMub3JnLzIwMDAvc3ZnIiB2ZXJzaW9uPSIxLjIiIHZpZXdCb3g9IjMwMCAzMDAgMjgwMCA3NTAiIGhlaWdodD0iNDIwOS40NXB4IiB3aWR0aD0iMjk3Ni4zOHB4Ij4mI3hhOzx0aXRsZT7mnKrlkb3lkI08L3RpdGxlPiYjeGE7PGRlc2M+R2VuZXJhdGVkIGJ5IE11c2VTY29yZSAzLjYuMjwvZGVzYz4mI3hhOzxyZWN0IGZpbGw9Im5vbmUiIGhlaWdodD0iMTAwJSIgd2lkdGg9IjEwMCUiLz4mI3hhOzxwb2x5bGluZSBwb2ludHM9IjMzNi42MTQsMzg2LjIyIDI3NjMuNzgsMzg2LjIyIiBzdHJva2UtbGluZWpvaW49ImJldmVsIiBzdHJva2Utd2lkdGg9IjIuNzMiIHN0cm9rZT0iIzAwMDAwMCIgZmlsbD0ibm9uZSIgY2xhc3M9IlN0YWZmTGluZXMiLz4mI3hhOzxwb2x5bGluZSBwb2ludHM9IjMzNi42MTQsNDExLjAyNCAyNzYzLjc4LDQxMS4wMjQiIHN0cm9rZS1saW5lam9pbj0iYmV2ZWwiIHN0cm9rZS13aWR0aD0iMi43MyIgc3Ryb2tlPSIjMDAwMDAwIiBmaWxsPSJub25lIiBjbGFzcz0iU3RhZmZMaW5lcyIvPiYjeGE7PHBvbHlsaW5lIHBvaW50cz0iMzM2LjYxNCw0MzUuODI3IDI3NjMuNzgsNDM1LjgyNyIgc3Ryb2tlLWxpbmVqb2luPSJiZXZlbCIgc3Ryb2tlLXdpZHRoPSIyLjczIiBzdHJva2U9IiMwMDAwMDAiIGZpbGw9Im5vbmUiIGNsYXNzPSJTdGFmZkxpbmVzIi8+JiN4YTs8cG9seWxpbmUgcG9pbnRzPSIzMzYuNjE0LDQ2MC42MyAyNzYzLjc4LDQ2MC42MyIgc3Ryb2tlLWxpbmVqb2luPSJiZXZlbCIgc3Ryb2tlLXdpZHRoPSIyLjczIiBzdHJva2U9IiMwMDAwMDAiIGZpbGw9Im5vbmUiIGNsYXNzPSJTdGFmZkxpbmVzIi8+JiN4YTs8cG9seWxpbmUgcG9pbnRzPSIzMzYuNjE0LDQ4NS40MzMgMjc2My43OCw0ODUuNDMzIiBzdHJva2UtbGluZWpvaW49ImJldmVsIiBzdHJva2Utd2lkdGg9IjIuNzMiIHN0cm9rZT0iIzAwMDAwMCIgZmlsbD0ibm9uZSIgY2xhc3M9IlN0YWZmTGluZXMiLz4mI3hhOzxwb2x5bGluZSBwb2ludHM9IjE1ODYuNTMsMzg0Ljg1NiAxNTg2LjUzLDQ4Ni43OTciIHN0cm9rZS1saW5lam9pbj0iYmV2ZWwiIHN0cm9rZS13aWR0aD0iNC40NiIgc3Ryb2tlPSIjMDAwMDAwIiBmaWxsPSJub25lIiBjbGFzcz0iQmFyTGluZSIvPiYjeGE7PHBvbHlsaW5lIHBvaW50cz0iMjczOS42LDM4NC44NTYgMjczOS42LDQ4Ni43OTciIHN0cm9rZS1saW5lam9pbj0iYmV2ZWwiIHN0cm9rZS13aWR0aD0iNC40NiIgc3Ryb2tlPSIjMDAwMDAwIiBmaWxsPSJub25lIiBjbGFzcz0iQmFyTGluZSIvPiYjeGE7PHBvbHlsaW5lIHBvaW50cz0iMjc1Ni45NiwzODQuODU2IDI3NTYuOTYsNDg2Ljc5NyIgc3Ryb2tlLWxpbmVqb2luPSJiZXZlbCIgc3Ryb2tlLXdpZHRoPSIxMy42NCIgc3Ryb2tlPSIjMDAwMDAwIiBmaWxsPSJub25lIiBjbGFzcz0iQmFyTGluZSIvPiYjeGE7PHBvbHlsaW5lIHBvaW50cz0iMjQ1MS45NywzNjEuNDE3IDI1MDEuNTYsMzYxLjQxNyIgc3Ryb2tlLWxpbmVqb2luPSJiZXZlbCIgc3Ryb2tlLXdpZHRoPSIzLjk3IiBzdHJva2U9IiMwMDAwMDAiIGZpbGw9Im5vbmUiIGNsYXNzPSJMZWRnZXJMaW5lIi8+JiN4YTs8cG9seWxpbmUgcG9pbnRzPSI1NjcuNzAyLDQ0NS4wNTQgNTY3LjcwMiwzNjcuNjE4IiBzdHJva2UtbGluZWpvaW49ImJldmVsIiBzdHJva2Utd2lkdGg9IjIuNzMiIHN0cm9rZT0iIzAwMDAwMCIgZmlsbD0ibm9uZSIgY2xhc3M9IlN0ZW0iLz4mI3hhOzxwb2x5bGluZSBwb2ludHM9IjgwMC4wNjIsNDM5LjE2IDgwMC4wNjIsNTEzLjMzNyIgc3Ryb2tlLWxpbmVqb2luPSJiZXZlbCIgc3Ryb2tlLXdpZHRoPSIyLjczIiBzdHJva2U9IiMwMDAwMDAiIGZpbGw9Im5vbmUiIGNsYXNzPSJTdGVtIi8+JiN4YTs8cG9seWxpbmUgcG9pbnRzPSIxMDYxLjkzLDQyNi43NTkgMTA2MS45Myw1MDQuMDM1IiBzdHJva2UtbGluZWpvaW49ImJldmVsIiBzdHJva2Utd2lkdGg9IjIuNzMiIHN0cm9rZT0iIzAwMDAwMCIgZmlsbD0ibm9uZSIgY2xhc3M9IlN0ZW0iLz4mI3hhOzxwb2x5bGluZSBwb2ludHM9IjEzMjMuOCw0MTQuMzU3IDEzMjMuOCw0OTQuNzM0IiBzdHJva2UtbGluZWpvaW49ImJldmVsIiBzdHJva2Utd2lkdGg9IjIuNzMiIHN0cm9rZT0iIzAwMDAwMCIgZmlsbD0ibm9uZSIgY2xhc3M9IlN0ZW0iLz4mI3hhOzxwb2x5bGluZSBwb2ludHM9IjE2MzEuODYsNDAxLjk1NiAxNjMxLjg2LDQ4NS40MzMiIHN0cm9rZS1saW5lam9pbj0iYmV2ZWwiIHN0cm9rZS13aWR0aD0iMi43MyIgc3Ryb2tlPSIjMDAwMDAwIiBmaWxsPSJub25lIiBjbGFzcz0iU3RlbSIvPiYjeGE7PHBvbHlsaW5lIHBvaW50cz0iMTkwOC41NywzODkuNTU0IDE5MDguNTcsNDczLjAzMSIgc3Ryb2tlLWxpbmVqb2luPSJiZXZlbCIgc3Ryb2tlLXdpZHRoPSIyLjczIiBzdHJva2U9IiMwMDAwMDAiIGZpbGw9Im5vbmUiIGNsYXNzPSJTdGVtIi8+JiN4YTs8cG9seWxpbmUgcG9pbnRzPSIyMTg1LjI5LDM3Ny4xNTIgMjE4NS4yOSw0NjAuNjMiIHN0cm9rZS1saW5lam9pbj0iYmV2ZWwiIHN0cm9rZS13aWR0aD0iMi43MyIgc3Ryb2tlPSIjMDAwMDAwIiBmaWxsPSJub25lIiBjbGFzcz0iU3RlbSIvPiYjeGE7PHBvbHlsaW5lIHBvaW50cz0iMjQ2Mi4wMSwzNjQuNzUxIDI0NjIuMDEsNDQ4LjIyOCIgc3Ryb2tlLWxpbmVqb2luPSJiZXZlbCIgc3Ryb2tlLXdpZHRoPSIyLjczIiBzdHJva2U9IiMwMDAwMDAiIGZpbGw9Im5vbmUiIGNsYXNzPSJTdGVtIi8+JiN4YTs8cGF0aCBkPSJNMzEuNSwtOC4wOTM3NSBDMjkuNzAzMSwtMTEuNDA2MyAyNS45MDYzLC0xMy4yMDMxIDIxLjI5NjksLTEzLjIwMzEgQzE3LjkwNjMsLTEzLjIwMzEgMTQuMjAzMSwtMTIuMjAzMSAxMC41OTM4LC0xMC4yOTY5IEM0LC02Ljc5Njg4IDAsLTAuOTA2MjUgMCw0LjIwMzEzIEMwLDUuNTkzNzUgMC4yOTY4NzUsNyAxLDguMjk2ODggQzIuNzk2ODgsMTEuNTkzOCA2LjU5Mzc1LDEzLjI5NjkgMTEuMjAzMSwxMy4yOTY5IEMxNC41OTM4LDEzLjI5NjkgMTguMjk2OSwxMi40MDYzIDIxLjkwNjMsMTAuNSBDMjguNSw3IDMyLjUsMS4wOTM3NSAzMi41LC00IEMzMi41LC01LjQwNjI1IDMyLjIwMzEsLTYuNzk2ODggMzEuNSwtOC4wOTM3NSIgdHJhbnNmb3JtPSJtYXRyaXgoMC45OTIxMjYsMCwwLDAuOTkyMTI2LDUzNi44Myw0NDguMjI4KSIgY2xhc3M9Ik5vdGUiLz4mI3hhOzxwYXRoIGQ9Ik0zMS41LC04LjA5Mzc1IEMyOS43MDMxLC0xMS40MDYzIDI1LjkwNjMsLTEzLjIwMzEgMjEuMjk2OSwtMTMuMjAzMSBDMTcuOTA2MywtMTMuMjAzMSAxNC4yMDMxLC0xMi4yMDMxIDEwLjU5MzgsLTEwLjI5NjkgQzQsLTYuNzk2ODggMCwtMC45MDYyNSAwLDQuMjAzMTMgQzAsNS41OTM3NSAwLjI5Njg3NSw3IDEsOC4yOTY4OCBDMi43OTY4OCwxMS41OTM4IDYuNTkzNzUsMTMuMjk2OSAxMS4yMDMxLDEzLjI5NjkgQzE0LjU5MzgsMTMuMjk2OSAxOC4yOTY5LDEyLjQwNjMgMjEuOTA2MywxMC41IEMyOC41LDcgMzIuNSwxLjA5Mzc1IDMyLjUsLTQgQzMyLjUsLTUuNDA2MjUgMzIuMjAzMSwtNi43OTY4OCAzMS41LC04LjA5Mzc1IiB0cmFuc2Zvcm09Im1hdHJpeCgwLjk5MjEyNiwwLDAsMC45OTIxMjYsMTA2MC41Nyw0MjMuNDI1KSIgY2xhc3M9Ik5vdGUiLz4mI3hhOzxwYXRoIGQ9Ik0zMS41LC04LjA5Mzc1IEMyOS43MDMxLC0xMS40MDYzIDI1LjkwNjMsLTEzLjIwMzEgMjEuMjk2OSwtMTMuMjAzMSBDMTcuOTA2MywtMTMuMjAzMSAxNC4yMDMxLC0xMi4yMDMxIDEwLjU5MzgsLTEwLjI5NjkgQzQsLTYuNzk2ODggMCwtMC45MDYyNSAwLDQuMjAzMTMgQzAsNS41OTM3NSAwLjI5Njg3NSw3IDEsOC4yOTY4OCBDMi43OTY4OCwxMS41OTM4IDYuNTkzNzUsMTMuMjk2OSAxMS4yMDMxLDEzLjI5NjkgQzE0LjU5MzgsMTMuMjk2OSAxOC4yOTY5LDEyLjQwNjMgMjEuOTA2MywxMC41IEMyOC41LDcgMzIuNSwxLjA5Mzc1IDMyLjUsLTQgQzMyLjUsLTUuNDA2MjUgMzIuMjAzMSwtNi43OTY4OCAzMS41LC04LjA5Mzc1IiB0cmFuc2Zvcm09Im1hdHJpeCgwLjk5MjEyNiwwLDAsMC45OTIxMjYsMTMyMi40Myw0MTEuMDI0KSIgY2xhc3M9Ik5vdGUiLz4mI3hhOzxwYXRoIGQ9Ik0zMS41LC04LjA5Mzc1IEMyOS43MDMxLC0xMS40MDYzIDI1LjkwNjMsLTEzLjIwMzEgMjEuMjk2OSwtMTMuMjAzMSBDMTcuOTA2MywtMTMuMjAzMSAxNC4yMDMxLC0xMi4yMDMxIDEwLjU5MzgsLTEwLjI5NjkgQzQsLTYuNzk2ODggMCwtMC45MDYyNSAwLDQuMjAzMTMgQzAsNS41OTM3NSAwLjI5Njg3NSw3IDEsOC4yOTY4OCBDMi43OTY4OCwxMS41OTM4IDYuNTkzNzUsMTMuMjk2OSAxMS4yMDMxLDEzLjI5NjkgQzE0LjU5MzgsMTMuMjk2OSAxOC4yOTY5LDEyLjQwNjMgMjEuOTA2MywxMC41IEMyOC41LDcgMzIuNSwxLjA5Mzc1IDMyLjUsLTQgQzMyLjUsLTUuNDA2MjUgMzIuMjAzMSwtNi43OTY4OCAzMS41LC04LjA5Mzc1IiB0cmFuc2Zvcm09Im1hdHJpeCgwLjk5MjEyNiwwLDAsMC45OTIxMjYsMTYzMC40OSwzOTguNjIyKSIgY2xhc3M9Ik5vdGUiLz4mI3hhOzxwYXRoIGQ9Ik0zMS41LC04LjA5Mzc1IEMyOS43MDMxLC0xMS40MDYzIDI1LjkwNjMsLTEzLjIwMzEgMjEuMjk2OSwtMTMuMjAzMSBDMTcuOTA2MywtMTMuMjAzMSAxNC4yMDMxLC0xMi4yMDMxIDEwLjU5MzgsLTEwLjI5NjkgQzQsLTYuNzk2ODggMCwtMC45MDYyNSAwLDQuMjAzMTMgQzAsNS41OTM3NSAwLjI5Njg3NSw3IDEsOC4yOTY4OCBDMi43OTY4OCwxMS41OTM4IDYuNTkzNzUsMTMuMjk2OSAxMS4yMDMxLDEzLjI5NjkgQzE0LjU5MzgsMTMuMjk2OSAxOC4yOTY5LDEyLjQwNjMgMjEuOTA2MywxMC41IEMyOC41LDcgMzIuNSwxLjA5Mzc1IDMyLjUsLTQgQzMyLjUsLTUuNDA2MjUgMzIuMjAzMSwtNi43OTY4OCAzMS41LC04LjA5Mzc1IiB0cmFuc2Zvcm09Im1hdHJpeCgwLjk5MjEyNiwwLDAsMC45OTIxMjYsMTkwNy4yMSwzODYuMjIpIiBjbGFzcz0iTm90ZSIvPiYjeGE7PHBhdGggZD0iTTMxLjUsLTguMDkzNzUgQzI5LjcwMzEsLTExLjQwNjMgMjUuOTA2MywtMTMuMjAzMSAyMS4yOTY5LC0xMy4yMDMxIEMxNy45MDYzLC0xMy4yMDMxIDE0LjIwMzEsLTEyLjIwMzEgMTAuNTkzOCwtMTAuMjk2OSBDNCwtNi43OTY4OCAwLC0wLjkwNjI1IDAsNC4yMDMxMyBDMCw1LjU5Mzc1IDAuMjk2ODc1LDcgMSw4LjI5Njg4IEMyLjc5Njg4LDExLjU5MzggNi41OTM3NSwxMy4yOTY5IDExLjIwMzEsMTMuMjk2OSBDMTQuNTkzOCwxMy4yOTY5IDE4LjI5NjksMTIuNDA2MyAyMS45MDYzLDEwLjUgQzI4LjUsNyAzMi41LDEuMDkzNzUgMzIuNSwtNCBDMzIuNSwtNS40MDYyNSAzMi4yMDMxLC02Ljc5Njg4IDMxLjUsLTguMDkzNzUiIHRyYW5zZm9ybT0ibWF0cml4KDAuOTkyMTI2LDAsMCwwLjk5MjEyNiwyMTgzLjkzLDM3My44MTkpIiBjbGFzcz0iTm90ZSIvPiYjeGE7PHBhdGggZD0iTTMxLjUsLTguMDkzNzUgQzI5LjcwMzEsLTExLjQwNjMgMjUuOTA2MywtMTMuMjAzMSAyMS4yOTY5LC0xMy4yMDMxIEMxNy45MDYzLC0xMy4yMDMxIDE0LjIwMzEsLTEyLjIwMzEgMTAuNTkzOCwtMTAuMjk2OSBDNCwtNi43OTY4OCAwLC0wLjkwNjI1IDAsNC4yMDMxMyBDMCw1LjU5Mzc1IDAuMjk2ODc1LDcgMSw4LjI5Njg4IEMyLjc5Njg4LDExLjU5MzggNi41OTM3NSwxMy4yOTY5IDExLjIwMzEsMTMuMjk2OSBDMTQuNTkzOCwxMy4yOTY5IDE4LjI5NjksMTIuNDA2MyAyMS45MDYzLDEwLjUgQzI4LjUsNyAzMi41LDEuMDkzNzUgMzIuNSwtNCBDMzIuNSwtNS40MDYyNSAzMi4yMDMxLC02Ljc5Njg4IDMxLjUsLTguMDkzNzUiIHRyYW5zZm9ybT0ibWF0cml4KDAuOTkyMTI2LDAsMCwwLjk5MjEyNiwyNDYwLjY1LDM2MS40MTcpIiBjbGFzcz0iTm90ZSIvPiYjeGE7PHBhdGggZD0iTTMxLjUsLTguMDkzNzUgQzI5LjcwMzEsLTExLjQwNjMgMjUuOTA2MywtMTMuMjAzMSAyMS4yOTY5LC0xMy4yMDMxIEMxNy45MDYzLC0xMy4yMDMxIDE0LjIwMzEsLTEyLjIwMzEgMTAuNTkzOCwtMTAuMjk2OSBDNCwtNi43OTY4OCAwLC0wLjkwNjI1IDAsNC4yMDMxMyBDMCw1LjU5Mzc1IDAuMjk2ODc1LDcgMSw4LjI5Njg4IEMyLjc5Njg4LDExLjU5MzggNi41OTM3NSwxMy4yOTY5IDExLjIwMzEsMTMuMjk2OSBDMTQuNTkzOCwxMy4yOTY5IDE4LjI5NjksMTIuNDA2MyAyMS45MDYzLDEwLjUgQzI4LjUsNyAzMi41LDEuMDkzNzUgMzIuNSwtNCBDMzIuNSwtNS40MDYyNSAzMi4yMDMxLC02Ljc5Njg4IDMxLjUsLTguMDkzNzUiIHRyYW5zZm9ybT0ibWF0cml4KDAuOTkyMTI2LDAsMCwwLjk5MjEyNiw3OTguNjk4LDQzNS44MjcpIiBjbGFzcz0iTm90ZSIvPiYjeGE7PHBhdGggZD0iTTYzLjM1OTQsLTUuOTIxODggQzYyLjEyNSwtMTEuMzQzOCA1OS40ODQ0LC0xNS4xNzE5IDU4LjcwMzEsLTE2LjIwMzEgQzU1LjUxNTYsLTIwLjQ4NDQgNTEuNSwtMjMuMzI4MSA0Ni44MTI1LC0yNC42ODc1IEM0My43MDMxLC0yNS41NjI1IDQwLjcwMzEsLTI1LjY4NzUgMzguMjgxMywtMjUuNSBDMzcuMjM0NCwtMzEuNTE1NiAzNi4yMzQ0LC0zNy4zOTA2IDM1LjMyODEsLTQyLjg0MzggQzQwLjc4MTMsLTQ5LjAxNTYgNDQuNDA2MywtNTQuODEyNSA0Ni42ODc1LC01OS4xMDk0IEM1MC4xNTYzLC02NS42ODc1IDUxLjI5NjksLTcwLjI2NTYgNTEuMzU5NCwtNzAuNDY4OCBDNTMuMDc4MSwtNzUuNjg3NSA1My40Mzc1LC04My4zOTA2IDUyLjMyODEsLTkxLjU5MzggQzUxLjMyODEsLTk5LjE0MDYgNDkuMjM0NCwtMTA1Ljg1OSA0Ni44NzUsLTEwOS4xMDkgQzQ1Ljg1OTQsLTExMC41MzEgNDQuNzk2OSwtMTExLjI2NiA0My43NjU2LC0xMTEuMjY2IEM0Mi41NDY5LC0xMTEuMjY2IDQwLjAzMTMsLTExMC4wMzEgMzcuMTQwNiwtMTA3LjI1IEMzNC44NDM4LC0xMDUuMDYzIDMxLjU3ODEsLTEwMS4xNzIgMjkuMDE1NiwtOTUuMTU2MyBDMjYuMDE1NiwtODguMDkzOCAyNS43OTY5LC03OC42MDk0IDI2LjE1NjMsLTcxLjg5MDYgQzI2LjUzMTMsLTY0LjYwOTQgMjcuNjQwNiwtNTguOTIxOSAyNy42NTYzLC01OC44NzUgQzI3LjY3MTksLTU4Ljc4MTMgMjcuOTM3NSwtNTcuMjgxMyAyOC4zNzUsLTU0LjcxODggQzI4LjE1NjMsLTU0LjQ4NDQgMjcuOTA2MywtNTQuMjY1NiAyNy42NTYzLC01NC4wMTU2IEMyNi42MjUsLTUzLjAxNTYgMjUuNDM3NSwtNTEuODkwNiAyNC4wNDY5LC01MC41IEMyMy4xODc1LC00OS42NDA2IDIyLjIzNDQsLTQ4LjczNDQgMjEuMjM0NCwtNDcuNzY1NiBDMTIuNzk2OSwtMzkuNjI1IDAsLTI3LjI5NjkgMCwtOC4xNDA2MyBDMCwtMy40Mzc1IDAuOTA2MjUsMC45ODQzNzUgMi42ODc1LDUgQzQuMjY1NjMsOC41OTM3NSA2LjU2MjUsMTEuODc1IDkuNSwxNC43NSBDMTcuMjM0NCwyMi4zMTI1IDI3LjgyODEsMjUuNTE1NiAzNC44NzUsMjUuMzU5NCBDMzcuODI4MSwyNS4yODEzIDQwLjQ2ODgsMjUuMDQ2OSA0Mi44NTk0LDI0LjU5MzggQzQ0LjY4NzUsMzQuMjAzMSA0NS44MjgxLDQxLjIzNDQgNDUuODU5NCw0Ni41NzgxIEM0NS45MDYzLDUzLjA5MzggNDQuMjUsNTcuMDc4MSA0MC4zNTk0LDU5Ljg0MzggQzM3LjkyMTksNjEuNTc4MSAzNS4xMDk0LDYyLjUzMTMgMzIuMDE1Niw2Mi42NzE5IEMyOS40MjE5LDYyLjc5NjkgMjcuMTU2Myw2Mi4zMjgxIDI1LjczNDQsNjEuOTIxOSBMMjUuNzE4OCw2MS45MjE5IEMyNS43MTg4LDYxLjkyMTkgMjUuNDM3NSw2MS44MjgxIDI1LjQyMTksNjEuNjQwNiBDMjUuNDA2Myw2MS40NTMxIDI1Ljc2NTYsNjEuNDA2MyAyNS43NjU2LDYxLjQwNjMgTDI1Ljc5NjksNjEuNDA2MyBDMjcuNzE4OCw2MC45Njg4IDMxLjI4MTMsNTkuNzM0NCAzMy42NDA2LDU2LjQzNzUgQzM1LjQzNzUsNTMuOTA2MyAzNi4zMTI1LDQ5LjI4MTMgMzQuNDY4OCw0NS4zNDM4IEMzMy4zNTk0LDQyLjk1MzEgMzAuODU5NCw0MCAyNS4yMzQ0LDM5LjU0NjkgQzIyLjczNDQsMzkuMzQzOCAyMC40Njg4LDM5Ljg1OTQgMTguNDY4OCw0MS4wNjI1IEMxNi42NTYzLDQyLjE0MDYgMTUuMTU2Myw0My43ODEzIDE0LjEwOTQsNDUuNzgxMyBDMTEuNjU2Myw1MC40ODQ0IDEyLjEwOTQsNTYuMjE4OCAxNS4yMzQ0LDYwLjA2MjUgQzE4LjIwMzEsNjMuNjg3NSAyMi44MTI1LDY2IDI4LjI1LDY2LjU3ODEgQzI5LjEwOTQsNjYuNjcxOSAyOS45NTMxLDY2LjcwMzEgMzAuNzk2OSw2Ni43MDMxIEMzNS4yMzQ0LDY2LjcwMzEgMzkuNjI1LDY1LjUgNDMuMjAzMSw2My4yOTY5IEM0Ni44NTk0LDYwLjcxODggNDguOTg0NCw1Ni43MzQ0IDQ5LjY1NjMsNTEuMTA5NCBDNTAuMjE4OCw0Ni40Njg4IDQ5LjgyODEsNDAuNTQ2OSA0OC40Mzc1LDMyLjQ2ODggQzQ4LjA3ODEsMzAuMzc1IDQ3LjUzMTMsMjcuMzQzOCA0Ni44NzUsMjMuNTkzOCBDNTIuNjI1LDIxLjY3MTkgNTYuNzgxMywxOC4wOTM4IDYwLjU0NjksMTIuMjM0NCBDNjMuODQzOCw2LjUgNjQuNzgxMywwLjM5MDYyNSA2My4zNTk0LC01LjkyMTg4IE0yOS4xNDA2LDIwLjI5NjkgQzI0LjUsMTkuMDc4MSAyMC4wNjI1LDE2LjU3ODEgMTYuMzEyNSwxMy4wNjI1IEMxNSwxMS44NDM4IDEzLjEyNSw5LjY3MTg4IDExLjY1NjMsNi4yODEyNSBDMTAuMjk2OSwzLjEwOTM4IDkuNjI1LC0wLjMyODEyNSA5LjY4NzUsLTMuOTA2MjUgQzkuNzUsLTguNjA5MzggMTEuMDYyNSwtMTMuNDM3NSAxMy41NjI1LC0xOC4yMTg4IEMxNi40ODQ0LC0yMy43OTY5IDIxLjA0NjksLTI5LjMyODEgMjcuMTA5NCwtMzQuNjU2MyBDMjguNTYyNSwtMzUuOTM3NSAyOS45Mzc1LC0zNy4yMTg4IDMxLjIxODgsLTM4LjUgQzMxLjk4NDQsLTM0LjIzNDQgMzIuODEyNSwtMjkuNTQ2OSAzMy42ODc1LC0yNC42NzE5IEMyOS44NDM4LC0yMy40MDYzIDI1LjA5MzgsLTIwLjI1IDIxLjk4NDQsLTE0LjU5MzggQzE4LjQzNzUsLTguMDMxMjUgMTguNTc4MSwtMi41IDE5LjMxMjUsMC45ODQzNzUgQzIwLjI1LDUuNDM3NSAyMi43ODEzLDkuMjAzMTMgMjYuMjM0NCwxMS4yOTY5IEMyNy4xNzE5LDExLjg1OTQgMzEuMjk2OSwxMy45ODQ0IDMzLjE0MDYsMTMuNDA2MyBDMzMuNTE1NiwxMy4yOTY5IDMzLjc4MTMsMTMuMDYyNSAzMy45MjE5LDEyLjczNDQgQzM0LjQzNzUsMTEuNTYyNSAzMy40MDYzLDEwLjkyMTkgMzEuODU5NCw5Ljk2ODc1IEMzMS4yNSw5LjU5Mzc1IDMwLjU3ODEsOS4xNzE4OCAyOS44NTk0LDguNjQwNjMgQzI2LjUzMTMsNi4xNTYyNSAyNS4wNzgxLDEuNzAzMTMgMjYuMTU2MywtMi42ODc1IEMyNi43MzQ0LC01LjA3ODEzIDI4LjAxNTYsLTcuMjUgMjkuODU5NCwtOC45NTMxMyBDMzEuNTE1NiwtMTAuNSAzMy41NjI1LC0xMS41OTM4IDM1LjkzNzUsLTEyLjIzNDQgQzM3Ljk4NDQsLTAuOTg0Mzc1IDQwLjA0NjksMTAuMTcxOSA0MS42ODc1LDE4LjUzMTMgQzQxLjgxMjUsMTkuMjE4OCA0MS45NTMxLDE5Ljg5MDYgNDIuMDc4MSwyMC41NjI1IEMzNy43MDMxLDIxLjUgMzMuMzU5NCwyMS40MDYzIDI5LjE0MDYsMjAuMjk2OSBNNDAuNDY4OCwtMTIuOTA2MyBDNTAuODEyNSwtMTMuMzc1IDU1LjA3ODEsLTUuOTM3NSA1NS45Njg4LC0xLjEwOTM4IEM1Ni40Mzc1LDEuNDM3NSA1Ni40Mzc1LDUuODc1IDU0Ljg5MDYsMTAuMDkzOCBDNTMuNzE4OCwxMy4yNjU2IDUxLjI2NTYsMTcuMzQzOCA0Ni4xMjUsMTkuNDA2MyBDNDYuMDYyNSwxOC45ODQ0IDQ1Ljk4NDQsMTguNTQ2OSA0NS45MDYzLDE4LjEyNSBDNDQuMzU5NCw5LjM0Mzc1IDQyLjQyMTksLTEuNjU2MjUgNDAuNDY4OCwtMTIuOTA2MyBNMzMuMTQwNiwtODMuODU5NCBDMzQuOTIxOSwtODkuNTkzOCAzNy42NTYzLC05Mi44NDM4IDM5LjY1NjMsLTk0LjU3ODEgQzQxLjQwNjMsLTk2LjA5MzggNDMuMDQ2OSwtOTYuODEyNSA0My45Njg4LC05Ni44MTI1IEM0NC4xMDk0LC05Ni44MTI1IDQ0LjIzNDQsLTk2Ljc4MTMgNDQuMzI4MSwtOTYuNzUgQzQ0Ljc5NjksLTk2LjYwOTQgNDUuMzI4MSwtOTYuMDQ2OSA0NS43OTY5LC05NS4xNzE5IEM0OC4xMDk0LC05MC44OTA2IDQ3LjM1OTQsLTg0LjE3MTkgNDYuMDE1NiwtNzkuNzM0NCBDNDQuMzkwNiwtNzQuMzI4MSA0MS40Njg4LC02OC43MTg4IDMyLjY3MTksLTU5LjEwOTQgQzMyLjUsLTYwLjIxODggMzIuMzQzOCwtNjEuMjY1NiAzMi4xODc1LC02Mi4yNSBDMzAuOTM3NSwtNzAuNTMxMyAzMS4yNjU2LC03Ny44MTI1IDMzLjE0MDYsLTgzLjg1OTQiIHRyYW5zZm9ybT0ibWF0cml4KDAuOTkyMTI2LDAsMCwwLjk5MjEyNiwzNTYuNDU3LDQ2MC42MykiIGNsYXNzPSJDbGVmIi8+JiN4YTs8cGF0aCBkPSJNMy41OTM3NSwxMi42MjUgTDIwLjc2NTYsMTIuNjI1IEwyMC43NjU2LDIwLjA3ODEgTDEyLjU0NjksMjAuMDc4MSBDMTEuNzY1NiwyMC4wNzgxIDExLjEyNSwyMC43MDMxIDExLjEyNSwyMS40ODQ0IEwxMS4xMjUsMjMuMzkwNiBDMTEuMTI1LDI0LjE3MTkgMTEuNzY1NiwyNC43OTY5IDEyLjU0NjksMjQuNzk2OSBMNDIuNzk2OSwyNC43OTY5IEM0My41NzgxLDI0Ljc5NjkgNDQuMjAzMSwyNC4xNzE5IDQ0LjIwMzEsMjMuMzkwNiBMNDQuMjAzMSwyMS40ODQ0IEM0NC4yMDMxLDIwLjcwMzEgNDMuNTc4MSwyMC4wNzgxIDQyLjc5NjksMjAuMDc4MSBMMzMuODU5NCwyMC4wNzgxIEwzMy44NTk0LDEyLjYyNSBMNDIuNzk2OSwxMi42MjUgQzQzLjU3ODEsMTIuNjI1IDQ0LjIwMzEsMTIgNDQuMjAzMSwxMS4yMTg4IEw0NC4yMDMxLDkuMzEyNSBDNDQuMjAzMSw4LjUzMTI1IDQzLjU3ODEsNy45MDYyNSA0Mi43OTY5LDcuOTA2MjUgTDMzLjg1OTQsNy45MDYyNSBMMzMuODU5NCwtOC4wNjI1IEMzMy44NTk0LC04LjU5Mzc1IDMzLjU0NjksLTkuMDc4MTMgMzMuMDc4MSwtOS4zMTI1IEwzMS44NTk0LC05LjkyMTg4IEMzMS4zMjgxLC0xMC4xNzE5IDMwLjcwMzEsLTEwLjA3ODEgMzAuMjY1NiwtOS42ODc1IEwyMS4yMTg4LC0xLjM3NSBDMjAuOTM3NSwtMS4wOTM3NSAyMC43NjU2LC0wLjczNDM3NSAyMC43NjU2LC0wLjMyODEyNSBMMjAuNzY1Niw3LjkwNjI1IEw5LjI1LDcuOTA2MjUgQzkuMjUsNy45MDYyNSAyMC4zNzUsLTQuMTI1IDMyLjIxODgsLTE5Ljg5MDYgQzMzLjA3ODEsLTIxLjA0NjkgMzIuNTc4MSwtMjIuMDkzOCAzMi4zOTA2LC0yMi4yODEzIEwzMC4yMTg4LC0yNC40ODQ0IEMyOS45NTMxLC0yNC43NSAyOS41OTM4LC0yNC45MDYzIDI5LjIxODgsLTI0LjkwNjMgQzI4LjYyNSwtMjQuOTA2MyAxNS4wNjI1LC0yNC44NzUgMTQuMzQzOCwtMjQuOTA2MyBDMTMuNjI1LC0yNC45MjE5IDEzLjA5MzgsLTI0LjI5NjkgMTMuMDE1NiwtMjMuNjg3NSBDMTMuMDE1NiwtMjMuNjg3NSAxMi40ODQ0LC0xNi4zMjgxIDkuODc1LC04LjE4NzUgQzcuMjgxMjUsLTAuMDc4MTI1IDQuMzQzNzUsNC45MDYyNSAxLjY4NzUsOC41MzEyNSBDMS42ODc1LDguNTMxMjUgMS4xNDA2Myw5LjUxNTYzIDEuNSwxMC4yNjU2IEMxLjg0Mzc1LDExLjAxNTYgMi40ODQzOCwxMi4wOTM4IDIuNDg0MzgsMTIuMDkzOCBDMi40ODQzOCwxMi4wOTM4IDIuNzM0MzgsMTIuNjI1IDMuNTkzNzUsMTIuNjI1IiB0cmFuc2Zvcm09Im1hdHJpeCgwLjk5MjEyNiwwLDAsMC45OTIxMjYsNDQzLjM3Niw0MTEuMTU1KSIgY2xhc3M9IlRpbWVTaWciLz4mI3hhOzxwYXRoIGQ9Ik0zLjU5Mzc1LDEyLjYyNSBMMjAuNzY1NiwxMi42MjUgTDIwLjc2NTYsMjAuMDc4MSBMMTIuNTQ2OSwyMC4wNzgxIEMxMS43NjU2LDIwLjA3ODEgMTEuMTI1LDIwLjcwMzEgMTEuMTI1LDIxLjQ4NDQgTDExLjEyNSwyMy4zOTA2IEMxMS4xMjUsMjQuMTcxOSAxMS43NjU2LDI0Ljc5NjkgMTIuNTQ2OSwyNC43OTY5IEw0Mi43OTY5LDI0Ljc5NjkgQzQzLjU3ODEsMjQuNzk2OSA0NC4yMDMxLDI0LjE3MTkgNDQuMjAzMSwyMy4zOTA2IEw0NC4yMDMxLDIxLjQ4NDQgQzQ0LjIwMzEsMjAuNzAzMSA0My41NzgxLDIwLjA3ODEgNDIuNzk2OSwyMC4wNzgxIEwzMy44NTk0LDIwLjA3ODEgTDMzLjg1OTQsMTIuNjI1IEw0Mi43OTY5LDEyLjYyNSBDNDMuNTc4MSwxMi42MjUgNDQuMjAzMSwxMiA0NC4yMDMxLDExLjIxODggTDQ0LjIwMzEsOS4zMTI1IEM0NC4yMDMxLDguNTMxMjUgNDMuNTc4MSw3LjkwNjI1IDQyLjc5NjksNy45MDYyNSBMMzMuODU5NCw3LjkwNjI1IEwzMy44NTk0LC04LjA2MjUgQzMzLjg1OTQsLTguNTkzNzUgMzMuNTQ2OSwtOS4wNzgxMyAzMy4wNzgxLC05LjMxMjUgTDMxLjg1OTQsLTkuOTIxODggQzMxLjMyODEsLTEwLjE3MTkgMzAuNzAzMSwtMTAuMDc4MSAzMC4yNjU2LC05LjY4NzUgTDIxLjIxODgsLTEuMzc1IEMyMC45Mzc1LC0xLjA5Mzc1IDIwLjc2NTYsLTAuNzM0Mzc1IDIwLjc2NTYsLTAuMzI4MTI1IEwyMC43NjU2LDcuOTA2MjUgTDkuMjUsNy45MDYyNSBDOS4yNSw3LjkwNjI1IDIwLjM3NSwtNC4xMjUgMzIuMjE4OCwtMTkuODkwNiBDMzMuMDc4MSwtMjEuMDQ2OSAzMi41NzgxLC0yMi4wOTM4IDMyLjM5MDYsLTIyLjI4MTMgTDMwLjIxODgsLTI0LjQ4NDQgQzI5Ljk1MzEsLTI0Ljc1IDI5LjU5MzgsLTI0LjkwNjMgMjkuMjE4OCwtMjQuOTA2MyBDMjguNjI1LC0yNC45MDYzIDE1LjA2MjUsLTI0Ljg3NSAxNC4zNDM4LC0yNC45MDYzIEMxMy42MjUsLTI0LjkyMTkgMTMuMDkzOCwtMjQuMjk2OSAxMy4wMTU2LC0yMy42ODc1IEMxMy4wMTU2LC0yMy42ODc1IDEyLjQ4NDQsLTE2LjMyODEgOS44NzUsLTguMTg3NSBDNy4yODEyNSwtMC4wNzgxMjUgNC4zNDM3NSw0LjkwNjI1IDEuNjg3NSw4LjUzMTI1IEMxLjY4NzUsOC41MzEyNSAxLjE0MDYzLDkuNTE1NjMgMS41LDEwLjI2NTYgQzEuODQzNzUsMTEuMDE1NiAyLjQ4NDM4LDEyLjA5MzggMi40ODQzOCwxMi4wOTM4IEMyLjQ4NDM4LDEyLjA5MzggMi43MzQzOCwxMi42MjUgMy41OTM3NSwxMi42MjUiIHRyYW5zZm9ybT0ibWF0cml4KDAuOTkyMTI2LDAsMCwwLjk5MjEyNiw0NDMuMzc2LDQ2MC40OTgpIiBjbGFzcz0iVGltZVNpZyIvPiYjeGE7PHBhdGggZD0iTTU0MS45NzksNTc0LjgzMiBMNTUwLjk5NSw1NDcuNTA0IEw1NjAuMDczLDU3NC44MzIgTDU0MS45NzksNTc0LjgzMiBNNTczLjQzMiw1OTMuODYzIEw1NTQuODU0LDUzOS4zNjMgTDU1MC40MzIsNTM5LjM2MyBMNTMyLjE4Miw1OTMuNzA3IEw1MjUuMDczLDU5NC42NiBMNTI1LjA3Myw1OTcuNTA0IEw1NDQuMDQyLDU5Ny41MDQgTDU0NC4wNDIsNTk0LjY2IEw1MzUuNzQ1LDU5My42MjkgTDU0MC44ODYsNTc4LjA2NiBMNTYxLjE4Miw1NzguMDY2IEw1NjYuNDAxLDU5My43ODUgTDU1Ny42OTgsNTk0LjY2IEw1NTcuNjk4LDU5Ny41MDQgTDU4MC41NDIsNTk3LjUwNCBMNTgwLjU0Miw1OTQuNjYgTDU3My40MzIsNTkzLjg2MyIgY2xhc3M9Ikx5cmljcyIvPiYjeGE7PHBhdGggZD0iTTUwMS4wNDIsNjQwLjg5NSBDNTA2LjQ5NSw2NDMuOTczIDUxMy41MjYsNjQ5Ljk4OCA1MTYuMDU3LDY1NC44OTUgQzUyMi42MDQsNjU4LjA2NiA1MjQuNjY3LDY0NC40NTcgNTAxLjc2MSw2NDAuMDIgTDUwMS4wNDIsNjQwLjg5NSBNNTM4LjI0NSw3MDYuNzIzIEw1MTYuMTM2LDcwNi43MjMgTDUxNi4xMzYsNjgzLjQyNiBMNTQwLjY5OCw2ODMuNDI2IEM1NDEuODA3LDY4My40MjYgNTQyLjY2Nyw2ODMuMTEzIDU0Mi43NDUsNjgyLjIzOCBDNTM5Ljk5NSw2NzkuNjI5IDUzNS41NTcsNjc2LjIzOCA1MzUuNTU3LDY3Ni4yMzggTDUzMS41NDIsNjgxLjEyOSBMNTE2LjEzNiw2ODEuMTI5IEw1MTYuMTM2LDY2MC43NTQgTDU0NC4xNjcsNjYwLjc1NCBDNTQ1LjI3Niw2NjAuNzU0IDU0Ni4wNzMsNjYwLjM2MyA1NDYuMzA3LDY1OS40ODggQzU0My4zODYsNjU2Ljk1NyA1MzguODA3LDY1My4zOTUgNTM4LjgwNyw2NTMuMzk1IEw1MzQuNzc2LDY1OC40NTcgTDQ4Mi42MzYsNjU4LjQ1NyBMNDgzLjM1NCw2NjAuNzU0IEw1MTAuNjgyLDY2MC43NTQgTDUxMC42ODIsNjgxLjEyOSBMNDg1Ljg3LDY4MS4xMjkgTDQ4Ni41MTEsNjgzLjQyNiBMNTEwLjY4Miw2ODMuNDI2IEw1MTAuNjgyLDcwNi43MjMgTDQ3Ny4zMzksNzA2LjcyMyBMNDc3Ljk3OSw3MDkuMDIgTDU0Ny44MDcsNzA5LjAyIEM1NDguOTE3LDcwOS4wMiA1NDkuNjIsNzA4LjYyOSA1NDkuODU0LDcwNy43NTQgQzU0Ny4wMTEsNzA1LjE0NSA1NDIuMzU0LDcwMS41OTggNTQyLjM1NCw3MDEuNTk4IEw1MzguMjQ1LDcwNi43MjMgTTU4Ni4zNyw2NDAuMzQ4IEM1ODguODA3LDY0Mi41NjYgNTkxLjg4Niw2NDYuNjc2IDU5Mi42ODIsNjQ5Ljc3IEM1OTcuNzQ1LDY1My4xNzYgNjAyLjAxMSw2NDMuMjcgNTg3LjIyOSw2MzkuNzA3IEw1ODYuMzcsNjQwLjM0OCBNNTc1Ljg1NCw3MDQuMzYzIEw1NzUuODU0LDY5My43NyBMNjA5LjI3Niw2OTMuNzcgTDYwOS4yNzYsNzA0LjM2MyBMNTc1Ljg1NCw3MDQuMzYzIE02MDkuMjc2LDY4MS4zNjMgTDYwOS4yNzYsNjkxLjQxIEw1NzUuODU0LDY5MS40MSBMNTc1Ljg1NCw2ODEuMzYzIEw2MDkuMjc2LDY4MS4zNjMgTTYwOC41NTcsNjc5LjA4MiBMNTc2LjI0NSw2NzkuMDgyIEw1NzAuNzI5LDY3Ni41NTEgTDU3MC43MjksNzEyLjI4NSBMNTcxLjUxMSw3MTIuMjg1IEM1NzMuNjUxLDcxMi4yODUgNTc1Ljg1NCw3MTEuMDk4IDU3NS44NTQsNzEwLjUzNSBMNTc1Ljg1NCw3MDYuNjQ1IEw2MDkuMjc2LDcwNi42NDUgTDYwOS4yNzYsNzExLjg3OSBMNjEwLjEzNiw3MTEuODc5IEM2MTEuOTY0LDcxMS44NzkgNjE0LjQ3OSw3MTAuNDU3IDYxNC41NTcsNzA5LjkxIEw2MTQuNTU3LDY4Mi4yMzggQzYxNS45NzksNjgyLjAwNCA2MTcuMTY3LDY4MS4yODUgNjE3LjcyOSw2ODAuNzM4IEw2MTEuNDc5LDY3NS45MjYgTDYwOC41NTcsNjc5LjA4MiBNNjE2Ljc3Niw2NjguNTY2IEw2MDAuMjYxLDY2OC41NjYgQzYwMy45MDEsNjY0Ljg2MyA2MDcuNDQ4LDY2MC4yODUgNjA5LjgyMyw2NTYuNzIzIEM2MTEuNDc5LDY1Ni45NTcgNjEyLjQzMiw2NTYuMzMyIDYxMi44MjMsNjU1LjM3OSBMNjA1LjQwMSw2NTIuODQ4IEw2MjIuMzA3LDY1Mi44NDggQzYyMy40MTcsNjUyLjg0OCA2MjQuMTk4LDY1Mi40NTcgNjI0LjM1NCw2NTEuNTgyIEM2MjEuNzQ1LDY0OS4xNDUgNjE3LjQ3OSw2NDUuODE2IDYxNy40NzksNjQ1LjgxNiBMNjEzLjY5OCw2NTAuNDg4IEw1NjEuMDg5LDY1MC40ODggTDU2MS43OTIsNjUyLjg0OCBMNjA0LjY4Miw2NTIuODQ4IEM2MDMuMTgyLDY1Ny42NzYgNjAwLjUxMSw2NjMuOTEgNTk4LjA1Nyw2NjguNTY2IEw1NTcuMjE0LDY2OC41NjYgTDU1Ny45MzIsNjcwLjk0MSBMNjI1Ljg1NCw2NzAuOTQxIEM2MjYuOTY0LDY3MC45NDEgNjI3Ljc2MSw2NzAuNTUxIDYyNy45OTUsNjY5LjY3NiBDNjI1LjE1MSw2NjcuMDY2IDYyMC43MjksNjYzLjY3NiA2MjAuNzI5LDY2My42NzYgTDYxNi43NzYsNjY4LjU2NiBNNTc0LjkwMSw2NTMuNjQ1IEM1NzcuMjc2LDY1Ny4yMDcgNTgwLjEyLDY2Mi44MTYgNTgwLjQzMiw2NjcuMjM4IEM1ODUuMzM5LDY3MS41MDQgNTkwLjM4Niw2NjAuOTEgNTc1Ljg1NCw2NTMuMTc2IEw1NzQuOTAxLDY1My42NDUiIGNsYXNzPSJMeXJpY3MiLz4mI3hhOzxwYXRoIGQ9Ik04MDcuMTc1LDU5NC4yNyBDODA2LjkyNSw1ODYuNTIgODA2LjkyNSw1NzguNDczIDgwNi45MjUsNTY5LjIyMyBMODEyLjQ1Nyw1NjkuMjIzIEM4MjQuNzg1LDU2OS4yMjMgODMwLjE2LDU3My42NDUgODMwLjE2LDU4MS44NjMgQzgzMC4xNiw1ODkuODQ4IDgyNC41NSw1OTQuMjcgODEzLjU2Niw1OTQuMjcgTDgwNy4xNzUsNTk0LjI3IE04MTMuNTY2LDU0My4xNiBDODIzLjIwNyw1NDMuMTYgODI3LjYyOCw1NDYuMzk1IDgyNy42MjgsNTU0LjA1MSBDODI3LjYyOCw1NjIuMTEzIDgyMi42Niw1NjYuMDY2IDgxMS45MSw1NjYuMDY2IEw4MDYuOTI1LDU2Ni4wNjYgQzgwNi45MjUsNTU4LjE2IDgwNi45MjUsNTUwLjU4MiA4MDcuMTc1LDU0My4xNiBMODEzLjU2Niw1NDMuMTYgTTc5MS45MjUsNTM5LjkxIEw3OTEuOTI1LDU0Mi42NzYgTDgwMC4xNDQsNTQzLjU1MSBDODAwLjM3OCw1NTEuMTI5IDgwMC4zNzgsNTU4Ljg3OSA4MDAuMzc4LDU2Ni40NTcgTDgwMC4zNzgsNTcwLjgwMSBDODAwLjM3OCw1NzguNTUxIDgwMC4zNzgsNTg2LjIwNyA4MDAuMTQ0LDU5My43ODUgTDc5MS45MjUsNTk0LjY2IEw3OTEuOTI1LDU5Ny41MDQgTDgxNS4xNDQsNTk3LjUwNCBDODMwLjc4NSw1OTcuNTA0IDgzNy4xOTEsNTg5Ljg0OCA4MzcuMTkxLDU4MS44NjMgQzgzNy4xOTEsNTc0LjY3NiA4MzIuMjg1LDU2OC45ODggODIwLjc1Myw1NjcuNDg4IEM4MzAuMzE2LDU2NS40MjYgODM0LjI2OSw1NTkuOTg4IDgzNC4yNjksNTUzLjgxNiBDODM0LjI2OSw1NDUuNTIgODI3LjcwNyw1MzkuOTEgODE1LjcwNyw1MzkuOTEgTDc5MS45MjUsNTM5LjkxIiBjbGFzcz0iTHlyaWNzIi8+JiN4YTs8cGF0aCBkPSJNMTA5NS41Niw1ODIuMDIgTDEwOTMuNjUsNTkyLjc3IEMxMDkwLjExLDU5NC41MDQgMTA4Ni4zOSw1OTUuMjA3IDEwODIuNzYsNTk1LjIwNyBDMTA3MC4yLDU5NS4yMDcgMTA2MS4yOCw1ODUuNzM4IDEwNjEuMjgsNTY4LjY3NiBDMTA2MS4yOCw1NTEuNzcgMTA3MC43NSw1NDIuMTI5IDEwODMuMzEsNTQyLjEyOSBDMTA4Ni40Nyw1NDIuMTI5IDEwODkuNjQsNTQyLjgzMiAxMDkyLjg3LDU0NC41ODIgTDEwOTQuNzYsNTU1LjIzOCBMMTA5OS4xMSw1NTUuMjM4IEwxMDk4Ljc5LDU0Mi44MzIgQzEwOTMuMTgsNTM5LjUyIDEwODcuNTcsNTM4LjU2NiAxMDgyLjQzLDUzOC41NjYgQzEwNjUuNzgsNTM4LjU2NiAxMDUzLjUzLDU1MS4yMDcgMTA1My41Myw1NjguNjc2IEMxMDUzLjUzLDU4Ni4zNjMgMTA2NS4yMiw1OTguNzcgMTA4Mi40Myw1OTguNzcgQzEwODguNTMsNTk4Ljc3IDEwOTQuMjIsNTk3LjU4MiAxMDk5LjU5LDU5NC41MDQgTDEwOTkuODIsNTgyLjAyIEwxMDk1LjU2LDU4Mi4wMiIgY2xhc3M9Ikx5cmljcyIvPiYjeGE7PHBhdGggZD0iTTEzMjcuNDEsNTk0LjI3IEMxMzI3LjE2LDU4Ni40NDEgMTMyNy4xNiw1NzguNDczIDEzMjcuMTYsNTY5LjUzNSBMMTMyNy4xNiw1NjYuNjkxIEMxMzI3LjE2LDU1OC42NDUgMTMyNy4xNiw1NTAuNzM4IDEzMjcuNDEsNTQzLjE2IEwxMzM1LjQ2LDU0My4xNiBDMTM0OS4yMSw1NDMuMTYgMTM1Ni45NCw1NTIuMDgyIDEzNTYuOTQsNTY4Ljc1NCBDMTM1Ni45NCw1ODQuNzA3IDEzNDkuMjEsNTk0LjI3IDEzMzQuNiw1OTQuMjcgTDEzMjcuNDEsNTk0LjI3IE0xMzEyLjE2LDUzOS45MSBMMTMxMi4xNiw1NDIuNjc2IEwxMzIwLjM4LDU0My41NTEgQzEzMjAuNjEsNTUxLjEyOSAxMzIwLjYxLDU1OC44NzkgMTMyMC42MSw1NjYuNjkxIEwxMzIwLjYxLDU2OS41MzUgQzEzMjAuNjEsNTc4LjQ3MyAxMzIwLjYxLDU4Ni4yODUgMTMyMC4zOCw1OTMuNzg1IEwxMzEyLjE2LDU5NC42NiBMMTMxMi4xNiw1OTcuNTA0IEwxMzM1LjMsNTk3LjUwNCBDMTM1Mi40NCw1OTcuNTA0IDEzNjQuNTQsNTg3LjAwNCAxMzY0LjU0LDU2OC43NTQgQzEzNjQuNTQsNTUwLjExMyAxMzUzLjQ3LDUzOS45MSAxMzM2LjcyLDUzOS45MSBMMTMxMi4xNiw1MzkuOTEiIGNsYXNzPSJMeXJpY3MiLz4mI3hhOzxwYXRoIGQ9Ik0xNjY0LjY2LDU4Mi41NjYgTDE2NjIuNjEsNTkzLjk0MSBMMTYzOS40Nyw1OTMuOTQxIEMxNjM5LjIyLDU4Ni4yODUgMTYzOS4yMiw1NzguNTUxIDE2MzkuMjIsNTY5Ljc3IEwxNjUzLjEzLDU2OS43NyBMMTY1NC4yNCw1NzguMDY2IEwxNjU3LjQ3LDU3OC4wNjYgTDE2NTcuNDcsNTU4LjA4MiBMMTY1NC4yNCw1NTguMDgyIEwxNjUzLjA1LDU2Ni42MTMgTDE2MzkuMjIsNTY2LjYxMyBDMTYzOS4yMiw1NTguNTY2IDE2MzkuMjIsNTUwLjgxNiAxNjM5LjQ3LDU0My4zOTUgTDE2NjEuMDMsNTQzLjM5NSBMMTY2My4xNiw1NTQuNzcgTDE2NjcuMDMsNTU0Ljc3IEwxNjY2LjQ5LDUzOS45MSBMMTYyNC4yMiw1MzkuOTEgTDE2MjQuMjIsNTQyLjY3NiBMMTYzMi40NCw1NDMuNTUxIEMxNjMyLjY3LDU1MS4xMjkgMTYzMi42Nyw1NTguODc5IDE2MzIuNjcsNTY2LjUzNSBMMTYzMi42Nyw1NzAuODc5IEMxNjMyLjY3LDU3OC42MjkgMTYzMi42Nyw1ODYuMjg1IDE2MzIuNDQsNTkzLjc4NSBMMTYyNC4yMiw1OTQuNjYgTDE2MjQuMjIsNTk3LjUwNCBMMTY2OC4wNiw1OTcuNTA0IEwxNjY4LjYxLDU4Mi41NjYgTDE2NjQuNjYsNTgyLjU2NiIgY2xhc3M9Ikx5cmljcyIvPiYjeGE7PHBhdGggZD0iTTE5MzguODMsNTQzLjM5NSBMMTk0MC44OCw1NTQuNzcgTDE5NDQuODMsNTU0Ljc3IEwxOTQ0LjIsNTM5LjkxIEwxOTAxLjk0LDUzOS45MSBMMTkwMS45NCw1NDIuNjc2IEwxOTEwLjE2LDU0My41NTEgQzE5MTAuMzksNTUxLjEyOSAxOTEwLjM5LDU1OC44NzkgMTkxMC4zOSw1NjYuNTM1IEwxOTEwLjM5LDU3MC44NzkgQzE5MTAuMzksNTc4LjYyOSAxOTEwLjM5LDU4Ni4yODUgMTkxMC4xNiw1OTMuNzg1IEwxOTAxLjk0LDU5NC42NiBMMTkwMS45NCw1OTcuNTA0IEwxOTI1LjY0LDU5Ny41MDQgTDE5MjUuNjQsNTk0LjY2IEwxOTE3LjE5LDU5My43ODUgQzE5MTYuOTQsNTg2LjIwNyAxOTE2Ljk0LDU3OC40NzMgMTkxNi45NCw1NjkuNzcgTDE5MzEuMjUsNTY5Ljc3IEwxOTMyLjM0LDU3OC43ODUgTDE5MzUuNjcsNTc4Ljc4NSBMMTkzNS42Nyw1NTguMDgyIEwxOTMyLjM0LDU1OC4wODIgTDE5MzEuMzMsNTY2LjYxMyBMMTkxNi45NCw1NjYuNjEzIEMxOTE2Ljk0LDU1OC41NjYgMTkxNi45NCw1NTAuODE2IDE5MTcuMTksNTQzLjM5NSBMMTkzOC44Myw1NDMuMzk1IiBjbGFzcz0iTHlyaWNzIi8+JiN4YTs8cGF0aCBkPSJNMjIyNi40Nyw1NzAuMDk4IEwyMjA0LjY3LDU3MC4wOTggTDIyMDQuNjcsNTcyLjk0MSBMMjIxMy45Miw1NzMuNjQ1IEMyMjE0LjA4LDU3OS4wMiAyMjE0LjE2LDU4NC40NzMgMjIxNC4xNiw1ODkuNjc2IEwyMjE0LjE2LDU5My4wMDQgQzIyMTAuNTksNTk0LjQyNiAyMjA3LjM2LDU5NS4yMDcgMjIwMy40MSw1OTUuMjA3IEMyMTg5LjY3LDU5NS4yMDcgMjE4MS4xNCw1ODUuMjU0IDIxODEuMTQsNTY4Ljc1NCBDMjE4MS4xNCw1NTIuMDA0IDIxOTAuMjIsNTQyLjEyOSAyMjAzLjE3LDU0Mi4xMjkgQzIyMDcuMTIsNTQyLjEyOSAyMjEwLjUyLDU0My4wMDQgMjIxMy44NCw1NDQuOTczIEwyMjE1LjU4LDU1NS4zOTUgTDIyMjAsNTU1LjM5NSBMMjIxOS42OSw1NDMuMDA0IEMyMjE0Ljg2LDU0MC4wODIgMjIwOS43Myw1MzguNTY2IDIyMDIuNDcsNTM4LjU2NiBDMjE4NS40MSw1MzguNTY2IDIxNzMuMzksNTUxLjIwNyAyMTczLjM5LDU2OC42NzYgQzIxNzMuMzksNTg2LjIwNyAyMTg1LjA4LDU5OC43NyAyMjAyLjIyLDU5OC43NyBDMjIwOS4yNSw1OTguNzcgMjIxNC43OCw1OTYuODc5IDIyMjAuNzgsNTkzLjYyOSBMMjIyMC43OCw1ODkuNzcgQzIyMjAuNzgsNTgzLjk4OCAyMjIwLjg3LDU3OC43MDcgMjIyMS4wMyw1NzMuNDg4IEwyMjI2LjQ3LDU3Mi45NDEgTDIyMjYuNDcsNTcwLjA5OCIgY2xhc3M9Ikx5cmljcyIvPiYjeGE7PHBhdGggZD0iTTI0NjUuOCw1NzQuODMyIEwyNDc0LjgxLDU0Ny41MDQgTDI0ODMuODksNTc0LjgzMiBMMjQ2NS44LDU3NC44MzIgTTI0OTcuMjUsNTkzLjg2MyBMMjQ3OC42Nyw1MzkuMzYzIEwyNDc0LjI1LDUzOS4zNjMgTDI0NTYsNTkzLjcwNyBMMjQ0OC44OSw1OTQuNjYgTDI0NDguODksNTk3LjUwNCBMMjQ2Ny44Niw1OTcuNTA0IEwyNDY3Ljg2LDU5NC42NiBMMjQ1OS41Niw1OTMuNjI5IEwyNDY0LjcsNTc4LjA2NiBMMjQ4NSw1NzguMDY2IEwyNDkwLjIyLDU5My43ODUgTDI0ODEuNTEsNTk0LjY2IEwyNDgxLjUxLDU5Ny41MDQgTDI1MDQuMzYsNTk3LjUwNCBMMjUwNC4zNiw1OTQuNjYgTDI0OTcuMjUsNTkzLjg2MyIgY2xhc3M9Ikx5cmljcyIvPiYjeGE7PHBhdGggZD0iTTI0MjQuODYsNjQwLjg5NSBDMjQzMC4zMSw2NDMuOTczIDI0MzcuMzQsNjQ5Ljk4OCAyNDM5Ljg3LDY1NC44OTUgQzI0NDYuNDIsNjU4LjA2NiAyNDQ4LjQ4LDY0NC40NTcgMjQyNS41OCw2NDAuMDIgTDI0MjQuODYsNjQwLjg5NSBNMjQ2Mi4wNiw3MDYuNzIzIEwyNDM5Ljk1LDcwNi43MjMgTDI0MzkuOTUsNjgzLjQyNiBMMjQ2NC41MSw2ODMuNDI2IEMyNDY1LjYyLDY4My40MjYgMjQ2Ni40OCw2ODMuMTEzIDI0NjYuNTYsNjgyLjIzOCBDMjQ2My44MSw2NzkuNjI5IDI0NTkuMzcsNjc2LjIzOCAyNDU5LjM3LDY3Ni4yMzggTDI0NTUuMzYsNjgxLjEyOSBMMjQzOS45NSw2ODEuMTI5IEwyNDM5Ljk1LDY2MC43NTQgTDI0NjcuOTgsNjYwLjc1NCBDMjQ2OS4wOSw2NjAuNzU0IDI0NjkuODksNjYwLjM2MyAyNDcwLjEyLDY1OS40ODggQzI0NjcuMiw2NTYuOTU3IDI0NjIuNjIsNjUzLjM5NSAyNDYyLjYyLDY1My4zOTUgTDI0NTguNTksNjU4LjQ1NyBMMjQwNi40NSw2NTguNDU3IEwyNDA3LjE3LDY2MC43NTQgTDI0MzQuNSw2NjAuNzU0IEwyNDM0LjUsNjgxLjEyOSBMMjQwOS42OSw2ODEuMTI5IEwyNDEwLjMzLDY4My40MjYgTDI0MzQuNSw2ODMuNDI2IEwyNDM0LjUsNzA2LjcyMyBMMjQwMS4xNiw3MDYuNzIzIEwyNDAxLjgsNzA5LjAyIEwyNDcxLjYyLDcwOS4wMiBDMjQ3Mi43Myw3MDkuMDIgMjQ3My40NCw3MDguNjI5IDI0NzMuNjcsNzA3Ljc1NCBDMjQ3MC44Myw3MDUuMTQ1IDI0NjYuMTcsNzAxLjU5OCAyNDY2LjE3LDcwMS41OTggTDI0NjIuMDYsNzA2LjcyMyBNMjUxMC4xOSw2NDAuMzQ4IEMyNTEyLjYyLDY0Mi41NjYgMjUxNS43LDY0Ni42NzYgMjUxNi41LDY0OS43NyBDMjUyMS41Niw2NTMuMTc2IDI1MjUuODMsNjQzLjI3IDI1MTEuMDUsNjM5LjcwNyBMMjUxMC4xOSw2NDAuMzQ4IE0yNDk5LjY3LDcwNC4zNjMgTDI0OTkuNjcsNjkzLjc3IEwyNTMzLjA5LDY5My43NyBMMjUzMy4wOSw3MDQuMzYzIEwyNDk5LjY3LDcwNC4zNjMgTTI1MzMuMDksNjgxLjM2MyBMMjUzMy4wOSw2OTEuNDEgTDI0OTkuNjcsNjkxLjQxIEwyNDk5LjY3LDY4MS4zNjMgTDI1MzMuMDksNjgxLjM2MyBNMjUzMi4zNyw2NzkuMDgyIEwyNTAwLjA2LDY3OS4wODIgTDI0OTQuNTUsNjc2LjU1MSBMMjQ5NC41NSw3MTIuMjg1IEwyNDk1LjMzLDcxMi4yODUgQzI0OTcuNDcsNzEyLjI4NSAyNDk5LjY3LDcxMS4wOTggMjQ5OS42Nyw3MTAuNTM1IEwyNDk5LjY3LDcwNi42NDUgTDI1MzMuMDksNzA2LjY0NSBMMjUzMy4wOSw3MTEuODc5IEwyNTMzLjk1LDcxMS44NzkgQzI1MzUuNzgsNzExLjg3OSAyNTM4LjMsNzEwLjQ1NyAyNTM4LjM3LDcwOS45MSBMMjUzOC4zNyw2ODIuMjM4IEMyNTM5LjgsNjgyLjAwNCAyNTQwLjk4LDY4MS4yODUgMjU0MS41NSw2ODAuNzM4IEwyNTM1LjMsNjc1LjkyNiBMMjUzMi4zNyw2NzkuMDgyIE0yNTQwLjU5LDY2OC41NjYgTDI1MjQuMDgsNjY4LjU2NiBDMjUyNy43Miw2NjQuODYzIDI1MzEuMjYsNjYwLjI4NSAyNTMzLjY0LDY1Ni43MjMgQzI1MzUuMyw2NTYuOTU3IDI1MzYuMjUsNjU2LjMzMiAyNTM2LjY0LDY1NS4zNzkgTDI1MjkuMjIsNjUyLjg0OCBMMjU0Ni4xMiw2NTIuODQ4IEMyNTQ3LjIzLDY1Mi44NDggMjU0OC4wMSw2NTIuNDU3IDI1NDguMTcsNjUxLjU4MiBDMjU0NS41Niw2NDkuMTQ1IDI1NDEuMyw2NDUuODE2IDI1NDEuMyw2NDUuODE2IEwyNTM3LjUxLDY1MC40ODggTDI0ODQuOTEsNjUwLjQ4OCBMMjQ4NS42MSw2NTIuODQ4IEwyNTI4LjUsNjUyLjg0OCBDMjUyNyw2NTcuNjc2IDI1MjQuMzMsNjYzLjkxIDI1MjEuODcsNjY4LjU2NiBMMjQ4MS4wMyw2NjguNTY2IEwyNDgxLjc1LDY3MC45NDEgTDI1NDkuNjcsNjcwLjk0MSBDMjU1MC43OCw2NzAuOTQxIDI1NTEuNTgsNjcwLjU1MSAyNTUxLjgxLDY2OS42NzYgQzI1NDguOTcsNjY3LjA2NiAyNTQ0LjU1LDY2My42NzYgMjU0NC41NSw2NjMuNjc2IEwyNTQwLjU5LDY2OC41NjYgTTI0OTguNzIsNjUzLjY0NSBDMjUwMS4wOSw2NTcuMjA3IDI1MDMuOTQsNjYyLjgxNiAyNTA0LjI1LDY2Ny4yMzggQzI1MDkuMTYsNjcxLjUwNCAyNTE0LjIsNjYwLjkxIDI0OTkuNjcsNjUzLjE3NiBMMjQ5OC43Miw2NTMuNjQ1IiBjbGFzcz0iTHlyaWNzIi8+JiN4YTs8L3N2Zz4=;clipPath=inset(41.33% 11.79% 49% 1.42%);" vertex="1" parent="dovyj1iJbNHp64XGyW4s-1">
          <mxGeometry x="100" y="2200" width="2800" height="441.3" as="geometry" />
        </mxCell>
        <mxCell id="cKpHkWoznhQ5DR9Bzh_P-0" value="$$\begin{array}{c}{\text{A自然小調的音階也是沒有任何的升號或降號，但主音為A}}\\{\text{一般認為，小調常用來表達悲傷陰沉或恐怖的情感}}\end{array}$$" style="text;html=1;strokeColor=none;fillColor=none;align=center;verticalAlign=middle;whiteSpace=wrap;rounded=0;dashed=1;fontFamily=Noto Serif TC;fontSize=100;fontColor=#000000;fontSource=https%3A%2F%2Ffonts.googleapis.com%2Fcss%3Ffamily%3DNoto%2BSerif%2BTC;labelBorderColor=none;spacing=0;" vertex="1" parent="dovyj1iJbNHp64XGyW4s-1">
          <mxGeometry x="100" y="1600" width="2800" height="400" as="geometry" />
        </mxCell>
      </root>
    </mxGraphModel>
  </diagram>
  <diagram name="Page-3" id="6t4WcQ5zlv0pTMRkOHf2">
    <mxGraphModel dx="7680" dy="4140" grid="1" gridSize="200" guides="1" tooltips="1" connect="1" arrows="1" fold="1" page="1" pageScale="1" pageWidth="3000" pageHeight="3000" background="#81D8D0" math="1" shadow="0">
      <root>
        <mxCell id="Rap0Z1SO3b9VL-MWsds1-0" />
        <mxCell id="Rap0Z1SO3b9VL-MWsds1-1" parent="Rap0Z1SO3b9VL-MWsds1-0" />
        <mxCell id="Rap0Z1SO3b9VL-MWsds1-5" value="$$\begin{array}{c}\text{貝多芬的給愛麗絲} \left( {\text{Für Elise}} \right) \text{是個a小調的例子}\\ \text{但注意其主音不是第一個出現的聲音}\\ \text{而是貫穿整個主旋律的那個音}\end{array}$$" style="text;html=1;strokeColor=none;fillColor=none;align=center;verticalAlign=middle;whiteSpace=wrap;rounded=0;dashed=1;fontFamily=Noto Serif TC;fontSize=100;fontColor=#000000;fontSource=https%3A%2F%2Ffonts.googleapis.com%2Fcss%3Ffamily%3DNoto%2BSerif%2BTC;labelBorderColor=none;spacing=0;" parent="Rap0Z1SO3b9VL-MWsds1-1" vertex="1">
          <mxGeometry x="100" y="200" width="2800" height="600" as="geometry" />
        </mxCell>
      </root>
    </mxGraphModel>
  </diagram>
  <diagram name="Page-4" id="uTrEzcfXd9zN4yk6hxYQ">
    <mxGraphModel dx="7680" dy="4140" grid="1" gridSize="200" guides="1" tooltips="1" connect="1" arrows="1" fold="1" page="1" pageScale="1" pageWidth="3000" pageHeight="3000" background="#81D8D0" math="1" shadow="0">
      <root>
        <mxCell id="I5U8bTfeIXlskN4UnYWA-0" />
        <mxCell id="I5U8bTfeIXlskN4UnYWA-1" parent="I5U8bTfeIXlskN4UnYWA-0" />
        <mxCell id="I5U8bTfeIXlskN4UnYWA-2" value="$$\begin{array}{c}{\color{red}{\text{C自然大調}}}{\text{從}}{\color{red}{\text{主音C}}}{\text{按照音高順時針排列}}\\{\text{其音程結構為}}{\color{red}{\text{全全}}}{\color{blue}{\text{半}}}{\color{red}{\text{全全全}}}{\color{blue}{\text{半}}}\\{\color{red}{\text{a自然小調}}}{\text{從}}{\color{red}{\text{主音A}}}{\text{按照音高順時針排列}}\\{\text{其音程結構為}}{\color{red}{\text{全}}}{\color{blue}{\text{半}}}{\color{red}{\text{全全}}}{\color{blue}{\text{半}}}{\color{red}{\text{全全}}}\\{\color{red}{\text{C自然大調}}}{\text{與}}{\color{red}{\text{a自然小調}}}{\text{互為}}{\color{red}{\text{關係調}}}\\{\text{主音不同但音列完全相同}}\end{array}$$" style="text;html=1;strokeColor=none;fillColor=none;align=center;verticalAlign=middle;whiteSpace=wrap;rounded=0;dashed=1;fontFamily=Noto Serif TC;fontSize=100;fontColor=#000000;fontSource=https%3A%2F%2Ffonts.googleapis.com%2Fcss%3Ffamily%3DNoto%2BSerif%2BTC;labelBorderColor=none;spacing=0;" parent="I5U8bTfeIXlskN4UnYWA-1" vertex="1">
          <mxGeometry x="100" y="200" width="2800" height="1100" as="geometry" />
        </mxCell>
        <mxCell id="I5U8bTfeIXlskN4UnYWA-3" value="$$\color{black}{\text{C}}$$" style="text;html=1;strokeColor=none;fillColor=none;align=center;verticalAlign=middle;whiteSpace=wrap;rounded=0;dashed=1;labelBorderColor=none;fontFamily=Noto Serif TC;fontSize=80;fontColor=#000000;fontSource=https%3A%2F%2Ffonts.googleapis.com%2Fcss%3Ffamily%3DNoto%2BSerif%2BTC;" parent="I5U8bTfeIXlskN4UnYWA-1" vertex="1">
          <mxGeometry x="600" y="1300" width="400" height="200" as="geometry" />
        </mxCell>
        <mxCell id="I5U8bTfeIXlskN4UnYWA-4" value="$$\color{red}{\text{D}\flat\vert\text{C}\sharp}$$" style="text;html=1;strokeColor=none;fillColor=none;align=center;verticalAlign=middle;whiteSpace=wrap;rounded=0;dashed=1;labelBorderColor=none;fontFamily=Noto Serif TC;fontSize=80;fontColor=#000000;fontSource=https%3A%2F%2Ffonts.googleapis.com%2Fcss%3Ffamily%3DNoto%2BSerif%2BTC;" parent="I5U8bTfeIXlskN4UnYWA-1" vertex="1">
          <mxGeometry x="850" y="1366.987298" width="400" height="200" as="geometry" />
        </mxCell>
        <mxCell id="I5U8bTfeIXlskN4UnYWA-5" value="$$\color{blue}{\text{D}}$$" style="text;html=1;strokeColor=none;fillColor=none;align=center;verticalAlign=middle;whiteSpace=wrap;rounded=0;dashed=1;labelBorderColor=none;fontFamily=Noto Serif TC;fontSize=80;fontColor=#000000;fontSource=https%3A%2F%2Ffonts.googleapis.com%2Fcss%3Ffamily%3DNoto%2BSerif%2BTC;" parent="I5U8bTfeIXlskN4UnYWA-1" vertex="1">
          <mxGeometry x="1033.012702" y="1550" width="400" height="200" as="geometry" />
        </mxCell>
        <mxCell id="I5U8bTfeIXlskN4UnYWA-6" value="$$\color{black}{\text{E}\flat}$$" style="text;html=1;strokeColor=none;fillColor=none;align=center;verticalAlign=middle;whiteSpace=wrap;rounded=0;dashed=1;labelBorderColor=none;fontFamily=Noto Serif TC;fontSize=80;fontColor=#000000;fontSource=https%3A%2F%2Ffonts.googleapis.com%2Fcss%3Ffamily%3DNoto%2BSerif%2BTC;" parent="I5U8bTfeIXlskN4UnYWA-1" vertex="1">
          <mxGeometry x="1100" y="1800" width="400" height="200" as="geometry" />
        </mxCell>
        <mxCell id="I5U8bTfeIXlskN4UnYWA-7" value="$$\color{red}{\text{E}}$$" style="text;html=1;strokeColor=none;fillColor=none;align=center;verticalAlign=middle;whiteSpace=wrap;rounded=0;dashed=1;labelBorderColor=none;fontFamily=Noto Serif TC;fontSize=80;fontColor=#000000;fontSource=https%3A%2F%2Ffonts.googleapis.com%2Fcss%3Ffamily%3DNoto%2BSerif%2BTC;" parent="I5U8bTfeIXlskN4UnYWA-1" vertex="1">
          <mxGeometry x="1033.012702" y="2050" width="400" height="200" as="geometry" />
        </mxCell>
        <mxCell id="I5U8bTfeIXlskN4UnYWA-8" value="$$\color{black}{\text{F}}$$" style="text;html=1;strokeColor=none;fillColor=none;align=center;verticalAlign=middle;whiteSpace=wrap;rounded=0;dashed=1;labelBorderColor=none;fontFamily=Noto Serif TC;fontSize=80;fontColor=#000000;fontSource=https%3A%2F%2Ffonts.googleapis.com%2Fcss%3Ffamily%3DNoto%2BSerif%2BTC;" parent="I5U8bTfeIXlskN4UnYWA-1" vertex="1">
          <mxGeometry x="850" y="2233.012702" width="400" height="200" as="geometry" />
        </mxCell>
        <mxCell id="I5U8bTfeIXlskN4UnYWA-9" value="$$\color{red}{\text{G}\flat\vert\text{F}\sharp}$$" style="text;html=1;strokeColor=none;fillColor=none;align=center;verticalAlign=middle;whiteSpace=wrap;rounded=0;dashed=1;labelBorderColor=none;fontFamily=Noto Serif TC;fontSize=80;fontColor=#000000;fontSource=https%3A%2F%2Ffonts.googleapis.com%2Fcss%3Ffamily%3DNoto%2BSerif%2BTC;" parent="I5U8bTfeIXlskN4UnYWA-1" vertex="1">
          <mxGeometry x="600" y="2300" width="400" height="200" as="geometry" />
        </mxCell>
        <mxCell id="I5U8bTfeIXlskN4UnYWA-10" value="$$\color{black}{\text{G}}$$" style="text;html=1;strokeColor=none;fillColor=none;align=center;verticalAlign=middle;whiteSpace=wrap;rounded=0;dashed=1;labelBorderColor=none;fontFamily=Noto Serif TC;fontSize=80;fontColor=#000000;fontSource=https%3A%2F%2Ffonts.googleapis.com%2Fcss%3Ffamily%3DNoto%2BSerif%2BTC;" parent="I5U8bTfeIXlskN4UnYWA-1" vertex="1">
          <mxGeometry x="350" y="2233.012702" width="400" height="200" as="geometry" />
        </mxCell>
        <mxCell id="I5U8bTfeIXlskN4UnYWA-11" value="$$\color{blue}{\text{A}\flat}$$" style="text;html=1;strokeColor=none;fillColor=none;align=center;verticalAlign=middle;whiteSpace=wrap;rounded=0;dashed=1;labelBorderColor=none;fontFamily=Noto Serif TC;fontSize=80;fontColor=#000000;fontSource=https%3A%2F%2Ffonts.googleapis.com%2Fcss%3Ffamily%3DNoto%2BSerif%2BTC;" parent="I5U8bTfeIXlskN4UnYWA-1" vertex="1">
          <mxGeometry x="166.987298" y="2050" width="400" height="200" as="geometry" />
        </mxCell>
        <mxCell id="I5U8bTfeIXlskN4UnYWA-12" value="$$\color{red}{\text{A}}$$" style="text;html=1;strokeColor=none;fillColor=none;align=center;verticalAlign=middle;whiteSpace=wrap;rounded=0;dashed=1;labelBorderColor=none;fontFamily=Noto Serif TC;fontSize=80;fontColor=#000000;fontSource=https%3A%2F%2Ffonts.googleapis.com%2Fcss%3Ffamily%3DNoto%2BSerif%2BTC;" parent="I5U8bTfeIXlskN4UnYWA-1" vertex="1">
          <mxGeometry x="100" y="1800" width="400" height="200" as="geometry" />
        </mxCell>
        <mxCell id="I5U8bTfeIXlskN4UnYWA-13" value="$$\color{black}{\text{B}\flat}$$" style="text;html=1;strokeColor=none;fillColor=none;align=center;verticalAlign=middle;whiteSpace=wrap;rounded=0;dashed=1;labelBorderColor=none;fontFamily=Noto Serif TC;fontSize=80;fontColor=#000000;fontSource=https%3A%2F%2Ffonts.googleapis.com%2Fcss%3Ffamily%3DNoto%2BSerif%2BTC;" parent="I5U8bTfeIXlskN4UnYWA-1" vertex="1">
          <mxGeometry x="166.987298" y="1550" width="400" height="200" as="geometry" />
        </mxCell>
        <mxCell id="I5U8bTfeIXlskN4UnYWA-14" value="$$\color{red}{\text{B}\vert\text{C}\flat}$$" style="text;html=1;strokeColor=none;fillColor=none;align=center;verticalAlign=middle;whiteSpace=wrap;rounded=0;dashed=1;labelBorderColor=none;fontFamily=Noto Serif TC;fontSize=80;fontColor=#000000;fontSource=https%3A%2F%2Ffonts.googleapis.com%2Fcss%3Ffamily%3DNoto%2BSerif%2BTC;" parent="I5U8bTfeIXlskN4UnYWA-1" vertex="1">
          <mxGeometry x="350" y="1366.987298" width="400" height="200" as="geometry" />
        </mxCell>
        <mxCell id="I5U8bTfeIXlskN4UnYWA-15" value="$$\color{red}{\text{C}}$$" style="text;html=1;strokeColor=none;fillColor=none;align=center;verticalAlign=middle;whiteSpace=wrap;rounded=0;dashed=1;labelBorderColor=none;fontFamily=Noto Serif TC;fontSize=80;fontColor=#000000;fontSource=https%3A%2F%2Ffonts.googleapis.com%2Fcss%3Ffamily%3DNoto%2BSerif%2BTC;" parent="I5U8bTfeIXlskN4UnYWA-1" vertex="1">
          <mxGeometry x="2000" y="1300" width="400" height="200" as="geometry" />
        </mxCell>
        <mxCell id="I5U8bTfeIXlskN4UnYWA-16" value="$$\color{red}{\text{G}}$$" style="text;html=1;strokeColor=none;fillColor=none;align=center;verticalAlign=middle;whiteSpace=wrap;rounded=0;dashed=1;labelBorderColor=none;fontFamily=Noto Serif TC;fontSize=80;fontColor=#000000;fontSource=https%3A%2F%2Ffonts.googleapis.com%2Fcss%3Ffamily%3DNoto%2BSerif%2BTC;" parent="I5U8bTfeIXlskN4UnYWA-1" vertex="1">
          <mxGeometry x="2250" y="1366.987298" width="400" height="200" as="geometry" />
        </mxCell>
        <mxCell id="I5U8bTfeIXlskN4UnYWA-17" value="$$\color{red}{\text{D}}$$" style="text;html=1;strokeColor=none;fillColor=none;align=center;verticalAlign=middle;whiteSpace=wrap;rounded=0;dashed=1;labelBorderColor=none;fontFamily=Noto Serif TC;fontSize=80;fontColor=#000000;fontSource=https%3A%2F%2Ffonts.googleapis.com%2Fcss%3Ffamily%3DNoto%2BSerif%2BTC;" parent="I5U8bTfeIXlskN4UnYWA-1" vertex="1">
          <mxGeometry x="2433.012702" y="1550" width="400" height="200" as="geometry" />
        </mxCell>
        <mxCell id="I5U8bTfeIXlskN4UnYWA-18" value="$$\color{red}{\text{A}}$$" style="text;html=1;strokeColor=none;fillColor=none;align=center;verticalAlign=middle;whiteSpace=wrap;rounded=0;dashed=1;labelBorderColor=none;fontFamily=Noto Serif TC;fontSize=80;fontColor=#000000;fontSource=https%3A%2F%2Ffonts.googleapis.com%2Fcss%3Ffamily%3DNoto%2BSerif%2BTC;" parent="I5U8bTfeIXlskN4UnYWA-1" vertex="1">
          <mxGeometry x="2500" y="1800" width="400" height="200" as="geometry" />
        </mxCell>
        <mxCell id="I5U8bTfeIXlskN4UnYWA-19" value="$$\color{red}{\text{E}}$$" style="text;html=1;strokeColor=none;fillColor=none;align=center;verticalAlign=middle;whiteSpace=wrap;rounded=0;dashed=1;labelBorderColor=none;fontFamily=Noto Serif TC;fontSize=80;fontColor=#000000;fontSource=https%3A%2F%2Ffonts.googleapis.com%2Fcss%3Ffamily%3DNoto%2BSerif%2BTC;" parent="I5U8bTfeIXlskN4UnYWA-1" vertex="1">
          <mxGeometry x="2433.012702" y="2050" width="400" height="200" as="geometry" />
        </mxCell>
        <mxCell id="I5U8bTfeIXlskN4UnYWA-20" value="$$\color{blue}{\text{B}\vert\text{C}\flat}$$" style="text;html=1;strokeColor=none;fillColor=none;align=center;verticalAlign=middle;whiteSpace=wrap;rounded=0;dashed=1;labelBorderColor=none;fontFamily=Noto Serif TC;fontSize=80;fontColor=#000000;fontSource=https%3A%2F%2Ffonts.googleapis.com%2Fcss%3Ffamily%3DNoto%2BSerif%2BTC;" parent="I5U8bTfeIXlskN4UnYWA-1" vertex="1">
          <mxGeometry x="2250" y="2233.012702" width="400" height="200" as="geometry" />
        </mxCell>
        <mxCell id="I5U8bTfeIXlskN4UnYWA-21" value="$$\color{black}{\text{G}\flat\vert\text{F}\sharp}$$" style="text;html=1;strokeColor=none;fillColor=none;align=center;verticalAlign=middle;whiteSpace=wrap;rounded=0;dashed=1;labelBorderColor=none;fontFamily=Noto Serif TC;fontSize=80;fontColor=#000000;fontSource=https%3A%2F%2Ffonts.googleapis.com%2Fcss%3Ffamily%3DNoto%2BSerif%2BTC;" parent="I5U8bTfeIXlskN4UnYWA-1" vertex="1">
          <mxGeometry x="2000" y="2300" width="400" height="200" as="geometry" />
        </mxCell>
        <mxCell id="I5U8bTfeIXlskN4UnYWA-22" value="$$\color{black}{\text{D}\flat\vert\text{C}\sharp}$$" style="text;html=1;strokeColor=none;fillColor=none;align=center;verticalAlign=middle;whiteSpace=wrap;rounded=0;dashed=1;labelBorderColor=none;fontFamily=Noto Serif TC;fontSize=80;fontColor=#000000;fontSource=https%3A%2F%2Ffonts.googleapis.com%2Fcss%3Ffamily%3DNoto%2BSerif%2BTC;" parent="I5U8bTfeIXlskN4UnYWA-1" vertex="1">
          <mxGeometry x="1750" y="2233.012702" width="400" height="200" as="geometry" />
        </mxCell>
        <mxCell id="I5U8bTfeIXlskN4UnYWA-23" value="$$\color{black}{\text{A}\flat}$$" style="text;html=1;strokeColor=none;fillColor=none;align=center;verticalAlign=middle;whiteSpace=wrap;rounded=0;dashed=1;labelBorderColor=none;fontFamily=Noto Serif TC;fontSize=80;fontColor=#000000;fontSource=https%3A%2F%2Ffonts.googleapis.com%2Fcss%3Ffamily%3DNoto%2BSerif%2BTC;" parent="I5U8bTfeIXlskN4UnYWA-1" vertex="1">
          <mxGeometry x="1566.987298" y="2050" width="400" height="200" as="geometry" />
        </mxCell>
        <mxCell id="I5U8bTfeIXlskN4UnYWA-24" value="$$\color{black}{\text{E}\flat}$$" style="text;html=1;strokeColor=none;fillColor=none;align=center;verticalAlign=middle;whiteSpace=wrap;rounded=0;dashed=1;labelBorderColor=none;fontFamily=Noto Serif TC;fontSize=80;fontColor=#000000;fontSource=https%3A%2F%2Ffonts.googleapis.com%2Fcss%3Ffamily%3DNoto%2BSerif%2BTC;" parent="I5U8bTfeIXlskN4UnYWA-1" vertex="1">
          <mxGeometry x="1500" y="1800" width="400" height="200" as="geometry" />
        </mxCell>
        <mxCell id="I5U8bTfeIXlskN4UnYWA-25" value="$$\color{black}{\text{B}\flat}$$" style="text;html=1;strokeColor=none;fillColor=none;align=center;verticalAlign=middle;whiteSpace=wrap;rounded=0;dashed=1;labelBorderColor=none;fontFamily=Noto Serif TC;fontSize=80;fontColor=#000000;fontSource=https%3A%2F%2Ffonts.googleapis.com%2Fcss%3Ffamily%3DNoto%2BSerif%2BTC;" parent="I5U8bTfeIXlskN4UnYWA-1" vertex="1">
          <mxGeometry x="1566.987298" y="1550" width="400" height="200" as="geometry" />
        </mxCell>
        <mxCell id="I5U8bTfeIXlskN4UnYWA-26" value="$$\color{blue}{\text{F}}$$" style="text;html=1;strokeColor=none;fillColor=none;align=center;verticalAlign=middle;whiteSpace=wrap;rounded=0;dashed=1;labelBorderColor=none;fontFamily=Noto Serif TC;fontSize=80;fontColor=#000000;fontSource=https%3A%2F%2Ffonts.googleapis.com%2Fcss%3Ffamily%3DNoto%2BSerif%2BTC;" parent="I5U8bTfeIXlskN4UnYWA-1" vertex="1">
          <mxGeometry x="1750" y="1366.987298" width="400" height="200" as="geometry" />
        </mxCell>
      </root>
    </mxGraphModel>
  </diagram>
  <diagram name="Page-4" id="s5Pv61KQXkgRIG3aga50">
    <mxGraphModel dx="7680" dy="4140" grid="1" gridSize="200" guides="1" tooltips="1" connect="1" arrows="1" fold="1" page="1" pageScale="1" pageWidth="3000" pageHeight="3000" background="#81D8D0" math="1" shadow="0">
      <root>
        <mxCell id="JlGaK3brGIoGGhn7__oq-0" />
        <mxCell id="JlGaK3brGIoGGhn7__oq-1" parent="JlGaK3brGIoGGhn7__oq-0" />
        <mxCell id="SkOqs82UHtWv5yeqJcNl-1" value="" style="curved=1;endArrow=none;html=1;rounded=0;strokeColor=#FFFFFF;strokeWidth=10;endFill=0;dashed=1;" parent="JlGaK3brGIoGGhn7__oq-1" edge="1">
          <mxGeometry width="50" height="50" relative="1" as="geometry">
            <mxPoint x="1500" y="2500" as="sourcePoint" />
            <mxPoint x="2600" y="2500" as="targetPoint" />
            <Array as="points">
              <mxPoint x="1610" y="2600" />
              <mxPoint x="1720" y="2500" />
              <mxPoint x="1830" y="2400" />
              <mxPoint x="1940" y="2500" />
              <mxPoint x="2050" y="2600" />
              <mxPoint x="2160" y="2500" />
              <mxPoint x="2270" y="2400" />
              <mxPoint x="2380" y="2500" />
              <mxPoint x="2490" y="2600" />
            </Array>
          </mxGeometry>
        </mxCell>
        <mxCell id="4BOBgS0BmdmkS0aJIjL3-1" value="" style="curved=1;endArrow=none;html=1;rounded=0;strokeColor=#FFFFFF;strokeWidth=10;endFill=0;dashed=1;" parent="JlGaK3brGIoGGhn7__oq-1" edge="1">
          <mxGeometry width="50" height="50" relative="1" as="geometry">
            <mxPoint x="1500" y="2100" as="sourcePoint" />
            <mxPoint x="2600" y="2100" as="targetPoint" />
            <Array as="points">
              <mxPoint x="1637.5" y="2200" />
              <mxPoint x="1775" y="2100" />
              <mxPoint x="1912.5" y="2000" />
              <mxPoint x="2050" y="2100" />
              <mxPoint x="2187.5" y="2200" />
              <mxPoint x="2325" y="2100" />
              <mxPoint x="2462.5" y="2000" />
            </Array>
          </mxGeometry>
        </mxCell>
        <mxCell id="2RbANWaLrWx4ZDA2gPkQ-3" value="" style="curved=1;endArrow=none;html=1;rounded=0;strokeColor=#FFFFFF;strokeWidth=10;endFill=0;dashed=1;" parent="JlGaK3brGIoGGhn7__oq-1" edge="1">
          <mxGeometry width="50" height="50" relative="1" as="geometry">
            <mxPoint x="1500" y="1700" as="sourcePoint" />
            <mxPoint x="2600" y="1700" as="targetPoint" />
            <Array as="points">
              <mxPoint x="1683.3333333333333" y="1800" />
              <mxPoint x="1866.666666666667" y="1700" />
              <mxPoint x="2050" y="1600" />
              <mxPoint x="2233.3333333333335" y="1700" />
              <mxPoint x="2416.666666666667" y="1800" />
            </Array>
          </mxGeometry>
        </mxCell>
        <mxCell id="2RbANWaLrWx4ZDA2gPkQ-1" value="" style="curved=1;endArrow=none;html=1;rounded=0;strokeColor=#FFFFFF;strokeWidth=10;endFill=0;dashed=1;" parent="JlGaK3brGIoGGhn7__oq-1" edge="1">
          <mxGeometry width="50" height="50" relative="1" as="geometry">
            <mxPoint x="1500" y="1300" as="sourcePoint" />
            <mxPoint x="2600" y="1300" as="targetPoint" />
            <Array as="points">
              <mxPoint x="1775" y="1400" />
              <mxPoint x="2050" y="1300" />
              <mxPoint x="2325" y="1200" />
            </Array>
          </mxGeometry>
        </mxCell>
        <mxCell id="div0sr9aN95wSgCFqENT-5" value="" style="curved=1;endArrow=none;html=1;rounded=0;strokeColor=#FFFFFF;strokeWidth=10;endFill=0;dashed=1;" parent="JlGaK3brGIoGGhn7__oq-1" edge="1">
          <mxGeometry width="50" height="50" relative="1" as="geometry">
            <mxPoint x="1500" y="900" as="sourcePoint" />
            <mxPoint x="2600" y="900" as="targetPoint" />
            <Array as="points">
              <mxPoint x="2050" y="1100" />
            </Array>
          </mxGeometry>
        </mxCell>
        <mxCell id="JlGaK3brGIoGGhn7__oq-7" value="$$ \begin{array}{c}{\text{剩下的弦長}}{\ }{\color{red}{{\frac{1}{2}}{l}}}{\ }{\text{，頻率}}{\ }{\color{red}{2f}}{\ }{\text{的弦，音高為}}{\ }{\color{red}{\text{C5}}}\\ {\text{在彈奏時所產生的音色也可視為是由}}\\ {\text{不同振幅的}}{\color{red}{\text{泛音}}}{\text{們所組合而成的}} \end{array} $$" style="text;html=1;strokeColor=none;fillColor=none;align=center;verticalAlign=middle;whiteSpace=wrap;rounded=0;dashed=1;fontFamily=Noto Serif TC;fontSize=100;fontColor=#000000;fontSource=https%3A%2F%2Ffonts.googleapis.com%2Fcss%3Ffamily%3DNoto%2BSerif%2BTC;labelBorderColor=none;spacing=0;" parent="JlGaK3brGIoGGhn7__oq-1" vertex="1">
          <mxGeometry x="100" y="100" width="2800" height="600" as="geometry" />
        </mxCell>
        <mxCell id="JlGaK3brGIoGGhn7__oq-48" value="" style="curved=1;endArrow=none;html=1;rounded=0;strokeColor=#000000;strokeWidth=10;endFill=0;" parent="JlGaK3brGIoGGhn7__oq-1" edge="1">
          <mxGeometry width="50" height="50" relative="1" as="geometry">
            <mxPoint x="1500" y="900" as="sourcePoint" />
            <mxPoint x="2600" y="900" as="targetPoint" />
            <Array as="points">
              <mxPoint x="2050" y="700" />
            </Array>
          </mxGeometry>
        </mxCell>
        <mxCell id="JlGaK3brGIoGGhn7__oq-9" value="" style="endArrow=none;html=1;rounded=0;strokeColor=#000000;strokeWidth=20;" parent="JlGaK3brGIoGGhn7__oq-1" edge="1">
          <mxGeometry width="50" height="50" relative="1" as="geometry">
            <mxPoint x="400" y="800" as="sourcePoint" />
            <mxPoint x="400" y="1000" as="targetPoint" />
          </mxGeometry>
        </mxCell>
        <mxCell id="JlGaK3brGIoGGhn7__oq-10" value="" style="endArrow=none;html=1;rounded=0;strokeColor=#000000;strokeWidth=20;" parent="JlGaK3brGIoGGhn7__oq-1" edge="1">
          <mxGeometry width="50" height="50" relative="1" as="geometry">
            <mxPoint x="2600" y="800" as="sourcePoint" />
            <mxPoint x="2600" y="1000" as="targetPoint" />
          </mxGeometry>
        </mxCell>
        <mxCell id="JlGaK3brGIoGGhn7__oq-11" value="$$ \begin{array}{c}{\text{頻率}}{\ }{\color{red}{2f}}{\ }{\text{的}}{\color{red}{\text{基音}}} \end{array} $$" style="text;html=1;strokeColor=none;fillColor=none;align=center;verticalAlign=middle;whiteSpace=wrap;rounded=0;dashed=1;labelBorderColor=none;fontFamily=Noto Serif TC;fontSize=100;fontColor=#000000;fontSource=https%3A%2F%2Ffonts.googleapis.com%2Fcss%3Ffamily%3DNoto%2BSerif%2BTC;" parent="JlGaK3brGIoGGhn7__oq-1" vertex="1">
          <mxGeometry x="400" y="1000" width="1100" height="200" as="geometry" />
        </mxCell>
        <mxCell id="JlGaK3brGIoGGhn7__oq-12" value="" style="endArrow=none;html=1;rounded=0;strokeColor=#000000;strokeWidth=10;dashed=1;" parent="JlGaK3brGIoGGhn7__oq-1" edge="1">
          <mxGeometry width="50" height="50" relative="1" as="geometry">
            <mxPoint x="1500" y="1000" as="sourcePoint" />
            <mxPoint x="1500" y="1200" as="targetPoint" />
          </mxGeometry>
        </mxCell>
        <mxCell id="JlGaK3brGIoGGhn7__oq-13" value="" style="endArrow=none;html=1;rounded=0;strokeColor=#000000;strokeWidth=10;dashed=1;" parent="JlGaK3brGIoGGhn7__oq-1" edge="1">
          <mxGeometry width="50" height="50" relative="1" as="geometry">
            <mxPoint x="2600" y="1000" as="sourcePoint" />
            <mxPoint x="2600" y="1200" as="targetPoint" />
          </mxGeometry>
        </mxCell>
        <mxCell id="JlGaK3brGIoGGhn7__oq-15" value="" style="endArrow=classic;html=1;rounded=0;strokeColor=#000000;strokeWidth=10;endFill=1;endSize=50;targetPerimeterSpacing=0;startArrow=classic;startFill=1;startSize=50;" parent="JlGaK3brGIoGGhn7__oq-1" edge="1">
          <mxGeometry width="50" height="50" relative="1" as="geometry">
            <mxPoint x="1500" y="1100" as="sourcePoint" />
            <mxPoint x="2600" y="1100" as="targetPoint" />
          </mxGeometry>
        </mxCell>
        <mxCell id="JlGaK3brGIoGGhn7__oq-17" value="" style="endArrow=none;html=1;rounded=0;strokeColor=#000000;strokeWidth=20;" parent="JlGaK3brGIoGGhn7__oq-1" edge="1">
          <mxGeometry width="50" height="50" relative="1" as="geometry">
            <mxPoint x="400" y="1200" as="sourcePoint" />
            <mxPoint x="400" y="1400" as="targetPoint" />
          </mxGeometry>
        </mxCell>
        <mxCell id="JlGaK3brGIoGGhn7__oq-18" value="" style="endArrow=none;html=1;rounded=0;strokeColor=#000000;strokeWidth=20;" parent="JlGaK3brGIoGGhn7__oq-1" edge="1">
          <mxGeometry width="50" height="50" relative="1" as="geometry">
            <mxPoint x="2600" y="1200" as="sourcePoint" />
            <mxPoint x="2600" y="1400" as="targetPoint" />
          </mxGeometry>
        </mxCell>
        <mxCell id="JlGaK3brGIoGGhn7__oq-19" value="$$ \begin{array}{c}{\text{頻率}}{\ }{\color{red}{4f}}{\ }{\text{的}}{\color{red}{\text{第一泛音}}} \end{array} $$" style="text;html=1;strokeColor=none;fillColor=none;align=center;verticalAlign=middle;whiteSpace=wrap;rounded=0;dashed=1;labelBorderColor=none;fontFamily=Noto Serif TC;fontSize=100;fontColor=#000000;fontSource=https%3A%2F%2Ffonts.googleapis.com%2Fcss%3Ffamily%3DNoto%2BSerif%2BTC;" parent="JlGaK3brGIoGGhn7__oq-1" vertex="1">
          <mxGeometry x="400" y="1400" width="1100" height="200" as="geometry" />
        </mxCell>
        <mxCell id="JlGaK3brGIoGGhn7__oq-20" value="" style="endArrow=none;html=1;rounded=0;strokeColor=#000000;strokeWidth=10;dashed=1;" parent="JlGaK3brGIoGGhn7__oq-1" edge="1">
          <mxGeometry width="50" height="50" relative="1" as="geometry">
            <mxPoint x="1500" y="1400" as="sourcePoint" />
            <mxPoint x="1500" y="1600" as="targetPoint" />
          </mxGeometry>
        </mxCell>
        <mxCell id="JlGaK3brGIoGGhn7__oq-21" value="" style="endArrow=none;html=1;rounded=0;strokeColor=#000000;strokeWidth=10;dashed=1;" parent="JlGaK3brGIoGGhn7__oq-1" edge="1">
          <mxGeometry width="50" height="50" relative="1" as="geometry">
            <mxPoint x="2600" y="1400" as="sourcePoint" />
            <mxPoint x="2600" y="1600" as="targetPoint" />
          </mxGeometry>
        </mxCell>
        <mxCell id="JlGaK3brGIoGGhn7__oq-23" value="" style="endArrow=classic;html=1;rounded=0;strokeColor=#000000;strokeWidth=10;endFill=1;endSize=50;targetPerimeterSpacing=0;startArrow=classic;startFill=1;startSize=50;" parent="JlGaK3brGIoGGhn7__oq-1" edge="1">
          <mxGeometry width="50" height="50" relative="1" as="geometry">
            <mxPoint x="1500" y="1500" as="sourcePoint" />
            <mxPoint x="2600" y="1500" as="targetPoint" />
          </mxGeometry>
        </mxCell>
        <mxCell id="JlGaK3brGIoGGhn7__oq-25" value="" style="endArrow=none;html=1;rounded=0;strokeColor=#000000;strokeWidth=20;" parent="JlGaK3brGIoGGhn7__oq-1" edge="1">
          <mxGeometry width="50" height="50" relative="1" as="geometry">
            <mxPoint x="400" y="1600" as="sourcePoint" />
            <mxPoint x="400" y="1800" as="targetPoint" />
          </mxGeometry>
        </mxCell>
        <mxCell id="JlGaK3brGIoGGhn7__oq-26" value="" style="endArrow=none;html=1;rounded=0;strokeColor=#000000;strokeWidth=20;" parent="JlGaK3brGIoGGhn7__oq-1" edge="1">
          <mxGeometry width="50" height="50" relative="1" as="geometry">
            <mxPoint x="2600" y="1600" as="sourcePoint" />
            <mxPoint x="2600" y="1800" as="targetPoint" />
          </mxGeometry>
        </mxCell>
        <mxCell id="JlGaK3brGIoGGhn7__oq-27" value="$$ \begin{array}{c}{\text{頻率}}{\ }{\color{red}{6f}}{\ }{\text{的}}{\color{red}{\text{第二泛音}}} \end{array} $$" style="text;html=1;strokeColor=none;fillColor=none;align=center;verticalAlign=middle;whiteSpace=wrap;rounded=0;dashed=1;labelBorderColor=none;fontFamily=Noto Serif TC;fontSize=100;fontColor=#000000;fontSource=https%3A%2F%2Ffonts.googleapis.com%2Fcss%3Ffamily%3DNoto%2BSerif%2BTC;" parent="JlGaK3brGIoGGhn7__oq-1" vertex="1">
          <mxGeometry x="400" y="1800" width="1100" height="200" as="geometry" />
        </mxCell>
        <mxCell id="JlGaK3brGIoGGhn7__oq-28" value="" style="endArrow=none;html=1;rounded=0;strokeColor=#000000;strokeWidth=10;dashed=1;" parent="JlGaK3brGIoGGhn7__oq-1" edge="1">
          <mxGeometry width="50" height="50" relative="1" as="geometry">
            <mxPoint x="1500" y="1800" as="sourcePoint" />
            <mxPoint x="1500" y="2000" as="targetPoint" />
          </mxGeometry>
        </mxCell>
        <mxCell id="JlGaK3brGIoGGhn7__oq-29" value="" style="endArrow=none;html=1;rounded=0;strokeColor=#000000;strokeWidth=10;dashed=1;" parent="JlGaK3brGIoGGhn7__oq-1" edge="1">
          <mxGeometry width="50" height="50" relative="1" as="geometry">
            <mxPoint x="2600" y="1800" as="sourcePoint" />
            <mxPoint x="2600" y="2000" as="targetPoint" />
          </mxGeometry>
        </mxCell>
        <mxCell id="JlGaK3brGIoGGhn7__oq-31" value="" style="endArrow=classic;html=1;rounded=0;strokeColor=#000000;strokeWidth=10;endFill=1;endSize=50;targetPerimeterSpacing=0;startArrow=classic;startFill=1;startSize=50;" parent="JlGaK3brGIoGGhn7__oq-1" edge="1">
          <mxGeometry width="50" height="50" relative="1" as="geometry">
            <mxPoint x="1500" y="1900" as="sourcePoint" />
            <mxPoint x="2600" y="1900" as="targetPoint" />
          </mxGeometry>
        </mxCell>
        <mxCell id="JlGaK3brGIoGGhn7__oq-33" value="" style="endArrow=none;html=1;rounded=0;strokeColor=#000000;strokeWidth=20;" parent="JlGaK3brGIoGGhn7__oq-1" edge="1">
          <mxGeometry width="50" height="50" relative="1" as="geometry">
            <mxPoint x="400" y="2000" as="sourcePoint" />
            <mxPoint x="400" y="2200" as="targetPoint" />
          </mxGeometry>
        </mxCell>
        <mxCell id="JlGaK3brGIoGGhn7__oq-34" value="" style="endArrow=none;html=1;rounded=0;strokeColor=#000000;strokeWidth=20;" parent="JlGaK3brGIoGGhn7__oq-1" edge="1">
          <mxGeometry width="50" height="50" relative="1" as="geometry">
            <mxPoint x="2600" y="2000" as="sourcePoint" />
            <mxPoint x="2600" y="2200" as="targetPoint" />
          </mxGeometry>
        </mxCell>
        <mxCell id="JlGaK3brGIoGGhn7__oq-35" value="$$ \begin{array}{c}{\text{頻率}}{\ }{\color{red}{8f}}{\ }{\text{的}}{\color{red}{\text{第三泛音}}} \end{array} $$" style="text;html=1;strokeColor=none;fillColor=none;align=center;verticalAlign=middle;whiteSpace=wrap;rounded=0;dashed=1;labelBorderColor=none;fontFamily=Noto Serif TC;fontSize=100;fontColor=#000000;fontSource=https%3A%2F%2Ffonts.googleapis.com%2Fcss%3Ffamily%3DNoto%2BSerif%2BTC;" parent="JlGaK3brGIoGGhn7__oq-1" vertex="1">
          <mxGeometry x="400" y="2200" width="1100" height="200" as="geometry" />
        </mxCell>
        <mxCell id="JlGaK3brGIoGGhn7__oq-36" value="" style="endArrow=none;html=1;rounded=0;strokeColor=#000000;strokeWidth=10;dashed=1;" parent="JlGaK3brGIoGGhn7__oq-1" edge="1">
          <mxGeometry width="50" height="50" relative="1" as="geometry">
            <mxPoint x="1500" y="2200" as="sourcePoint" />
            <mxPoint x="1500" y="2400" as="targetPoint" />
          </mxGeometry>
        </mxCell>
        <mxCell id="JlGaK3brGIoGGhn7__oq-37" value="" style="endArrow=none;html=1;rounded=0;strokeColor=#000000;strokeWidth=10;dashed=1;" parent="JlGaK3brGIoGGhn7__oq-1" edge="1">
          <mxGeometry width="50" height="50" relative="1" as="geometry">
            <mxPoint x="2600" y="2200" as="sourcePoint" />
            <mxPoint x="2600" y="2400" as="targetPoint" />
          </mxGeometry>
        </mxCell>
        <mxCell id="JlGaK3brGIoGGhn7__oq-39" value="" style="endArrow=classic;html=1;rounded=0;strokeColor=#000000;strokeWidth=10;endFill=1;endSize=50;targetPerimeterSpacing=0;startArrow=classic;startFill=1;startSize=50;" parent="JlGaK3brGIoGGhn7__oq-1" edge="1">
          <mxGeometry width="50" height="50" relative="1" as="geometry">
            <mxPoint x="1500" y="2300" as="sourcePoint" />
            <mxPoint x="2600" y="2300" as="targetPoint" />
          </mxGeometry>
        </mxCell>
        <mxCell id="JlGaK3brGIoGGhn7__oq-41" value="" style="endArrow=none;html=1;rounded=0;strokeColor=#000000;strokeWidth=20;" parent="JlGaK3brGIoGGhn7__oq-1" edge="1">
          <mxGeometry width="50" height="50" relative="1" as="geometry">
            <mxPoint x="400" y="2400" as="sourcePoint" />
            <mxPoint x="400" y="2600" as="targetPoint" />
          </mxGeometry>
        </mxCell>
        <mxCell id="JlGaK3brGIoGGhn7__oq-42" value="" style="endArrow=none;html=1;rounded=0;strokeColor=#000000;strokeWidth=20;" parent="JlGaK3brGIoGGhn7__oq-1" edge="1">
          <mxGeometry width="50" height="50" relative="1" as="geometry">
            <mxPoint x="2600" y="2400" as="sourcePoint" />
            <mxPoint x="2600" y="2600" as="targetPoint" />
          </mxGeometry>
        </mxCell>
        <mxCell id="JlGaK3brGIoGGhn7__oq-43" value="$$ \begin{array}{c}{\text{頻率}}{\ }{\color{red}{10f}}{\ }{\text{的}}{\color{red}{\text{第四泛音}}} \end{array} $$" style="text;html=1;strokeColor=none;fillColor=none;align=center;verticalAlign=middle;whiteSpace=wrap;rounded=0;dashed=1;labelBorderColor=none;fontFamily=Noto Serif TC;fontSize=100;fontColor=#000000;fontSource=https%3A%2F%2Ffonts.googleapis.com%2Fcss%3Ffamily%3DNoto%2BSerif%2BTC;" parent="JlGaK3brGIoGGhn7__oq-1" vertex="1">
          <mxGeometry x="400" y="2600" width="1100" height="200" as="geometry" />
        </mxCell>
        <mxCell id="JlGaK3brGIoGGhn7__oq-44" value="" style="endArrow=none;html=1;rounded=0;strokeColor=#000000;strokeWidth=10;dashed=1;" parent="JlGaK3brGIoGGhn7__oq-1" edge="1">
          <mxGeometry width="50" height="50" relative="1" as="geometry">
            <mxPoint x="1500" y="2600" as="sourcePoint" />
            <mxPoint x="1500" y="2800" as="targetPoint" />
          </mxGeometry>
        </mxCell>
        <mxCell id="JlGaK3brGIoGGhn7__oq-45" value="" style="endArrow=none;html=1;rounded=0;strokeColor=#000000;strokeWidth=10;dashed=1;" parent="JlGaK3brGIoGGhn7__oq-1" edge="1">
          <mxGeometry width="50" height="50" relative="1" as="geometry">
            <mxPoint x="2600" y="2600" as="sourcePoint" />
            <mxPoint x="2600" y="2800" as="targetPoint" />
          </mxGeometry>
        </mxCell>
        <mxCell id="JlGaK3brGIoGGhn7__oq-47" value="" style="endArrow=classic;html=1;rounded=0;strokeColor=#000000;strokeWidth=10;endFill=1;endSize=50;targetPerimeterSpacing=0;startArrow=classic;startFill=1;startSize=50;" parent="JlGaK3brGIoGGhn7__oq-1" edge="1">
          <mxGeometry width="50" height="50" relative="1" as="geometry">
            <mxPoint x="1500" y="2700" as="sourcePoint" />
            <mxPoint x="2600" y="2700" as="targetPoint" />
          </mxGeometry>
        </mxCell>
        <mxCell id="3kCs-aGEOlyv9RwCiDJb-0" value="" style="endArrow=none;html=1;rounded=0;strokeColor=#000000;strokeWidth=20;" parent="JlGaK3brGIoGGhn7__oq-1" edge="1">
          <mxGeometry width="50" height="50" relative="1" as="geometry">
            <mxPoint x="1500" y="800" as="sourcePoint" />
            <mxPoint x="1500" y="1000" as="targetPoint" />
          </mxGeometry>
        </mxCell>
        <mxCell id="3kCs-aGEOlyv9RwCiDJb-1" value="" style="endArrow=none;html=1;rounded=0;strokeColor=#000000;strokeWidth=20;" parent="JlGaK3brGIoGGhn7__oq-1" edge="1">
          <mxGeometry width="50" height="50" relative="1" as="geometry">
            <mxPoint x="1500" y="1200" as="sourcePoint" />
            <mxPoint x="1500" y="1400" as="targetPoint" />
          </mxGeometry>
        </mxCell>
        <mxCell id="3kCs-aGEOlyv9RwCiDJb-2" value="" style="endArrow=none;html=1;rounded=0;strokeColor=#000000;strokeWidth=20;" parent="JlGaK3brGIoGGhn7__oq-1" edge="1">
          <mxGeometry width="50" height="50" relative="1" as="geometry">
            <mxPoint x="1500" y="1600" as="sourcePoint" />
            <mxPoint x="1500" y="1800" as="targetPoint" />
          </mxGeometry>
        </mxCell>
        <mxCell id="3kCs-aGEOlyv9RwCiDJb-3" value="" style="endArrow=none;html=1;rounded=0;strokeColor=#000000;strokeWidth=20;" parent="JlGaK3brGIoGGhn7__oq-1" edge="1">
          <mxGeometry width="50" height="50" relative="1" as="geometry">
            <mxPoint x="1500" y="2000" as="sourcePoint" />
            <mxPoint x="1500" y="2200" as="targetPoint" />
          </mxGeometry>
        </mxCell>
        <mxCell id="3kCs-aGEOlyv9RwCiDJb-4" value="" style="endArrow=none;html=1;rounded=0;strokeColor=#000000;strokeWidth=20;" parent="JlGaK3brGIoGGhn7__oq-1" edge="1">
          <mxGeometry width="50" height="50" relative="1" as="geometry">
            <mxPoint x="1500" y="2400" as="sourcePoint" />
            <mxPoint x="1500" y="2600" as="targetPoint" />
          </mxGeometry>
        </mxCell>
        <mxCell id="div0sr9aN95wSgCFqENT-0" value="" style="endArrow=none;html=1;rounded=0;strokeColor=#000000;strokeWidth=10;" parent="JlGaK3brGIoGGhn7__oq-1" edge="1">
          <mxGeometry width="50" height="50" relative="1" as="geometry">
            <mxPoint x="400" y="900" as="sourcePoint" />
            <mxPoint x="1500" y="900" as="targetPoint" />
          </mxGeometry>
        </mxCell>
        <mxCell id="div0sr9aN95wSgCFqENT-1" value="" style="endArrow=none;html=1;rounded=0;strokeColor=#000000;strokeWidth=10;" parent="JlGaK3brGIoGGhn7__oq-1" edge="1">
          <mxGeometry width="50" height="50" relative="1" as="geometry">
            <mxPoint x="400" y="1300" as="sourcePoint" />
            <mxPoint x="1500" y="1300" as="targetPoint" />
          </mxGeometry>
        </mxCell>
        <mxCell id="div0sr9aN95wSgCFqENT-2" value="" style="endArrow=none;html=1;rounded=0;strokeColor=#000000;strokeWidth=10;" parent="JlGaK3brGIoGGhn7__oq-1" edge="1">
          <mxGeometry width="50" height="50" relative="1" as="geometry">
            <mxPoint x="400" y="1700" as="sourcePoint" />
            <mxPoint x="1500" y="1700" as="targetPoint" />
          </mxGeometry>
        </mxCell>
        <mxCell id="div0sr9aN95wSgCFqENT-3" value="" style="endArrow=none;html=1;rounded=0;strokeColor=#000000;strokeWidth=10;" parent="JlGaK3brGIoGGhn7__oq-1" edge="1">
          <mxGeometry width="50" height="50" relative="1" as="geometry">
            <mxPoint x="400" y="2100" as="sourcePoint" />
            <mxPoint x="1500" y="2100" as="targetPoint" />
          </mxGeometry>
        </mxCell>
        <mxCell id="div0sr9aN95wSgCFqENT-4" value="" style="endArrow=none;html=1;rounded=0;strokeColor=#000000;strokeWidth=10;" parent="JlGaK3brGIoGGhn7__oq-1" edge="1">
          <mxGeometry width="50" height="50" relative="1" as="geometry">
            <mxPoint x="400" y="2500" as="sourcePoint" />
            <mxPoint x="1500" y="2500" as="targetPoint" />
          </mxGeometry>
        </mxCell>
        <mxCell id="2RbANWaLrWx4ZDA2gPkQ-0" value="" style="curved=1;endArrow=none;html=1;rounded=0;strokeColor=#000000;strokeWidth=10;endFill=0;" parent="JlGaK3brGIoGGhn7__oq-1" edge="1">
          <mxGeometry width="50" height="50" relative="1" as="geometry">
            <mxPoint x="1500" y="1300" as="sourcePoint" />
            <mxPoint x="2600" y="1300" as="targetPoint" />
            <Array as="points">
              <mxPoint x="1775" y="1200" />
              <mxPoint x="2050" y="1300" />
              <mxPoint x="2325" y="1400" />
            </Array>
          </mxGeometry>
        </mxCell>
        <mxCell id="2RbANWaLrWx4ZDA2gPkQ-2" value="" style="curved=1;endArrow=none;html=1;rounded=0;strokeColor=#000000;strokeWidth=10;endFill=0;" parent="JlGaK3brGIoGGhn7__oq-1" edge="1">
          <mxGeometry width="50" height="50" relative="1" as="geometry">
            <mxPoint x="1500" y="1700" as="sourcePoint" />
            <mxPoint x="2600" y="1700" as="targetPoint" />
            <Array as="points">
              <mxPoint x="1683.3333333333333" y="1600" />
              <mxPoint x="1866.6666666666667" y="1700" />
              <mxPoint x="2050" y="1800" />
              <mxPoint x="2233.3333333333335" y="1700" />
              <mxPoint x="2416.666666666667" y="1600" />
            </Array>
          </mxGeometry>
        </mxCell>
        <mxCell id="4BOBgS0BmdmkS0aJIjL3-0" value="" style="curved=1;endArrow=none;html=1;rounded=0;strokeColor=#000000;strokeWidth=10;endFill=0;" parent="JlGaK3brGIoGGhn7__oq-1" edge="1">
          <mxGeometry width="50" height="50" relative="1" as="geometry">
            <mxPoint x="1500" y="2100" as="sourcePoint" />
            <mxPoint x="2600" y="2100" as="targetPoint" />
            <Array as="points">
              <mxPoint x="1637.5" y="2000" />
              <mxPoint x="1775" y="2100" />
              <mxPoint x="1912.5" y="2200" />
              <mxPoint x="2050" y="2100" />
              <mxPoint x="2187.5" y="2000" />
              <mxPoint x="2325" y="2100" />
              <mxPoint x="2462.5" y="2200" />
            </Array>
          </mxGeometry>
        </mxCell>
        <mxCell id="SkOqs82UHtWv5yeqJcNl-0" value="" style="curved=1;endArrow=none;html=1;rounded=0;strokeColor=#000000;strokeWidth=10;endFill=0;" parent="JlGaK3brGIoGGhn7__oq-1" edge="1">
          <mxGeometry width="50" height="50" relative="1" as="geometry">
            <mxPoint x="1500" y="2500" as="sourcePoint" />
            <mxPoint x="2600" y="2500" as="targetPoint" />
            <Array as="points">
              <mxPoint x="1610" y="2400" />
              <mxPoint x="1720" y="2500" />
              <mxPoint x="1830" y="2600" />
              <mxPoint x="1940" y="2500" />
              <mxPoint x="2050" y="2400" />
              <mxPoint x="2160" y="2500" />
              <mxPoint x="2270" y="2600" />
              <mxPoint x="2380" y="2500" />
              <mxPoint x="2490" y="2400" />
            </Array>
          </mxGeometry>
        </mxCell>
        <mxCell id="5BiAqRqppqzg_1BQ-Nap-0" value="" style="endArrow=classic;html=1;rounded=0;strokeColor=#000000;strokeWidth=10;endFill=1;endSize=50;targetPerimeterSpacing=0;" parent="JlGaK3brGIoGGhn7__oq-1" edge="1">
          <mxGeometry width="50" height="50" relative="1" as="geometry">
            <mxPoint x="2500" y="800" as="sourcePoint" />
            <mxPoint x="2900" y="800" as="targetPoint" />
          </mxGeometry>
        </mxCell>
      </root>
    </mxGraphModel>
  </diagram>
  <diagram name="Page-19" id="NsgRzzy_14Y0cikd5GvK">
    <mxGraphModel dx="7680" dy="4140" grid="1" gridSize="200" guides="1" tooltips="1" connect="1" arrows="1" fold="1" page="1" pageScale="1" pageWidth="3000" pageHeight="3000" background="#81D8D0" math="1" shadow="0">
      <root>
        <mxCell id="DnQPekHTD3tI7VG8aV1x-0" />
        <mxCell id="DnQPekHTD3tI7VG8aV1x-1" parent="DnQPekHTD3tI7VG8aV1x-0" />
        <mxCell id="DnQPekHTD3tI7VG8aV1x-2" value="$$\begin{array}{c}{\text{然而}}{\color{red}{\text{五度相生}}}{\text{或}}{\color{red}{\text{純律}}}{\text{的方式}}\\{\text{各個半音間的比例不全相同會不利於移調轉調}}\\{\text{於是發展出利於轉調的}}{\color{red}{\text{十二平均律}}}{\text{的取音方式}}\\\begin{array}{cccccccc}{\text{完全一度}} &amp;amp; {0} &amp;amp; {\text{個半音}} &amp;amp; {f}\\{\text{小二度}} &amp;amp; {1} &amp;amp; {\text{個半音}} &amp;amp; {{2^{\frac{1}{12}}} f} &amp;amp; {\approx} &amp;amp; {1.0595 f}\\{\text{大二度}} &amp;amp; {2} &amp;amp; {\text{個半音}} &amp;amp; {{2^{\frac{2}{12}}} f} &amp;amp; {\approx} &amp;amp; {1.1225 f} &amp;amp; {\approx} &amp;amp; {\frac{9}{8} f}\\{\text{小三度}} &amp;amp; {3} &amp;amp; {\text{個半音}} &amp;amp; {{2^{\frac{3}{12}}} f} &amp;amp; {\approx} &amp;amp; {1.1892 f}\\{\text{大三度}} &amp;amp; {4} &amp;amp; {\text{個半音}} &amp;amp; {{2^{\frac{4}{12}}} f} &amp;amp; {\approx} &amp;amp; {1.2599 f} &amp;amp; {\approx} &amp;amp; {\frac{5}{4} f}\\{\text{完全四度}} &amp;amp; {5} &amp;amp; {\text{個半音}} &amp;amp; {{2^{\frac{5}{12}}} f} &amp;amp; {\approx} &amp;amp; {1.3348 f} &amp;amp; {\approx} &amp;amp; {\frac{4}{3} f}\\{\text{增四度}} &amp;amp; {6} &amp;amp; {\text{個半音}} &amp;amp; {{2^{\frac{6}{12}}} f} &amp;amp; {\approx} &amp;amp; {1.4142 f}\\{\text{完全五度}} &amp;amp; {7} &amp;amp; {\text{個半音}} &amp;amp; {{2^{\frac{7}{12}}} f} &amp;amp; {\approx} &amp;amp; {1.4983 f} &amp;amp; {\approx} &amp;amp; {\frac{3}{2} f}\\{\text{小六度}} &amp;amp; {8} &amp;amp; {\text{個半音}} &amp;amp; {{2^{\frac{8}{12}}} f} &amp;amp; {\approx} &amp;amp; {1.5874 f}\\{\text{大六度}} &amp;amp; {9} &amp;amp; {\text{個半音}} &amp;amp; {{2^{\frac{9}{12}}} f} &amp;amp; {\approx} &amp;amp; {1.6818 f} &amp;amp; {\approx} &amp;amp; {\frac{5}{3} f}\\{\text{小七度}} &amp;amp; {10} &amp;amp; {\text{個半音}} &amp;amp; {{2^{\frac{10}{12}}} f} &amp;amp; {\approx} &amp;amp; {1.7818 f}\\{\text{大七度}} &amp;amp; {11} &amp;amp; {\text{個半音}} &amp;amp; {{2^{\frac{11}{12}}} f} &amp;amp; {\approx} &amp;amp; {1.8877 f} &amp;amp; {\approx} &amp;amp; {\frac{15}{8} f}\\{\text{完全八度}} &amp;amp; {12} &amp;amp; {\text{個半音}} &amp;amp; {2f}\\\end{array}\\{\text{在1939年，國際標準委員會於倫敦}}\\{\text{將中央C上的A4的國際標準音高定為 440 Hz}}\\{\text{這成為普羅大眾最常使用的取音方式}}\\\end{array}$$" style="text;html=1;strokeColor=none;fillColor=none;align=center;verticalAlign=middle;whiteSpace=wrap;rounded=0;dashed=1;fontFamily=Noto Serif TC;fontSize=80;fontColor=#000000;fontSource=https%3A%2F%2Ffonts.googleapis.com%2Fcss%3Ffamily%3DNoto%2BSerif%2BTC;labelBorderColor=none;spacing=0;" parent="DnQPekHTD3tI7VG8aV1x-1" vertex="1">
          <mxGeometry x="100" y="100" width="2800" height="2800" as="geometry" />
        </mxCell>
      </root>
    </mxGraphModel>
  </diagram>
</mxfile>
